<svg width="39" height="39" viewBox="0 0 39 39" fill="none" xmlns="http://www.w3.org/2000/svg">
<path d="M13.8125 8.93828C11.57 8.93828 9.74999 6.75265 9.74999 4.06328C9.71136 3.51986 9.78996 2.97448 9.98046 2.46408C10.171 1.95367 10.4689 1.49017 10.8541 1.10494C11.2394 0.71971 11.7029 0.421758 12.2133 0.231258C12.7237 0.0407575 13.2691 -0.0378431 13.8125 0.000778451C14.3559 -0.0378431 14.9013 0.0407575 15.4117 0.231258C15.9221 0.421758 16.3856 0.71971 16.7708 1.10494C17.1561 1.49017 17.454 1.95367 17.6445 2.46408C17.835 2.97448 17.9136 3.51986 17.875 4.06328C17.875 6.75265 16.055 8.93828 13.8125 8.93828ZM13.8125 1.62578C13.4836 1.58975 13.1508 1.62803 12.8387 1.73779C12.5266 1.84755 12.2431 2.02598 12.0091 2.25993C11.7752 2.49388 11.5968 2.77737 11.487 3.08949C11.3772 3.40161 11.339 3.73439 11.375 4.06328C11.375 5.8589 12.4719 7.31328 13.8125 7.31328C15.1531 7.31328 16.25 5.8589 16.25 4.06328C16.286 3.73439 16.2477 3.40161 16.138 3.08949C16.0282 2.77737 15.8498 2.49388 15.6158 2.25993C15.3819 2.02598 15.0984 1.84755 14.7863 1.73779C14.4742 1.62803 14.1414 1.58975 13.8125 1.62578Z" fill="#201602"/>
<path d="M7.31251 17.0635H5.68751V11.8472C5.68142 10.8429 6.04756 9.87195 6.71526 9.12172C7.38297 8.37149 8.3049 7.89518 9.30314 7.78473L13.7231 7.31348L13.9019 8.93848L9.48189 9.4341C8.88295 9.50038 8.32979 9.78616 7.92916 10.2363C7.52854 10.6864 7.30886 11.269 7.31251 11.8716V17.0635Z" fill="#201602"/>
<path d="M8.93744 12.1883H10.5624V17.0633H8.93744V12.1883ZM17.0624 12.1883H18.6874V17.0633H17.0624V12.1883ZM25.1874 8.93828C22.9449 8.93828 21.1249 6.75265 21.1249 4.06328C21.0863 3.51986 21.1649 2.97448 21.3554 2.46408C21.5459 1.95367 21.8439 1.49017 22.2291 1.10494C22.6143 0.71971 23.0778 0.421758 23.5882 0.231258C24.0986 0.0407575 24.644 -0.0378431 25.1874 0.00077845C25.7309 -0.0378431 26.2762 0.0407575 26.7866 0.231258C27.297 0.421758 27.7606 0.71971 28.1458 1.10494C28.531 1.49017 28.829 1.95367 29.0195 2.46408C29.21 2.97448 29.2886 3.51986 29.2499 4.06328C29.2499 6.75265 27.4299 8.93828 25.1874 8.93828ZM25.1874 1.62578C24.8586 1.58975 24.5258 1.62803 24.2137 1.73779C23.9015 1.84755 23.618 2.02598 23.3841 2.25993C23.1501 2.49388 22.9717 2.77737 22.8619 3.08949C22.7522 3.40161 22.7139 3.73439 22.7499 4.06328C22.7499 5.8589 23.8468 7.31328 25.1874 7.31328C26.5281 7.31328 27.6249 5.8589 27.6249 4.06328C27.661 3.73439 27.6227 3.40161 27.5129 3.08949C27.4032 2.77737 27.2247 2.49388 26.9908 2.25993C26.7568 2.02598 26.4733 1.84755 26.1612 1.73779C25.8491 1.62803 25.5163 1.58975 25.1874 1.62578Z" fill="#201602"/>
<path d="M18.6875 17.0635H17.0625V11.8472C17.0564 10.8429 17.4226 9.87195 18.0903 9.12172C18.758 8.37149 19.6799 7.89518 20.6781 7.78473L25.0981 7.31348L25.2769 8.93848L20.8569 9.4341C20.2579 9.50038 19.7048 9.78616 19.3042 10.2363C18.9035 10.6864 18.6839 11.269 18.6875 11.8716V17.0635Z" fill="#201602"/>
<path d="M20.3124 12.1885H21.9374V17.0635H20.3124V12.1885ZM33.3124 17.0635H31.6874V11.8472C31.6911 11.2446 31.4714 10.6621 31.0708 10.2119C30.6702 9.76179 30.117 9.476 29.5181 9.40973L25.0981 8.93848L25.2768 7.31348L29.6968 7.80098C30.695 7.91143 31.617 8.38774 32.2847 9.13797C32.9524 9.8882 33.3185 10.8592 33.3124 11.8635V17.0635Z" fill="#201602"/>
<path d="M28.4374 12.1885H30.0624V17.0635H28.4374V12.1885Z" fill="#201602"/>
<path d="M38.1875 26.001H0.812473C0.679383 26.0012 0.548281 25.9687 0.430693 25.9063C0.313104 25.844 0.212628 25.7537 0.138098 25.6435C0.0639872 25.5337 0.0178417 25.4074 0.00368037 25.2757C-0.0104809 25.144 0.00777148 25.0109 0.0568479 24.8879L3.30685 16.7629C3.36706 16.6117 3.47127 16.4821 3.606 16.3908C3.74072 16.2995 3.89975 16.2508 4.06247 16.251H34.9375C35.1002 16.2508 35.2592 16.2995 35.3939 16.3908C35.5287 16.4821 35.6329 16.6117 35.6931 16.7629L38.9431 24.8879C38.9922 25.0112 39.0104 25.1447 38.996 25.2766C38.9816 25.4086 38.9351 25.535 38.8605 25.6448C38.7859 25.7546 38.6856 25.8445 38.5683 25.9066C38.451 25.9687 38.3202 26.0011 38.1875 26.001ZM2.01497 24.376H36.9525L34.3525 17.876H4.61497L2.01497 24.376Z" fill="#201602"/>
<path d="M34.9374 34.126H4.06244C3.84695 34.126 3.64029 34.0404 3.48791 33.888C3.33554 33.7356 3.24994 33.529 3.24994 33.3135V25.1885C3.24994 24.973 3.33554 24.7663 3.48791 24.614C3.64029 24.4616 3.84695 24.376 4.06244 24.376H34.9374C35.1529 24.376 35.3596 24.4616 35.512 24.614C35.6643 24.7663 35.7499 24.973 35.7499 25.1885V33.3135C35.7499 33.529 35.6643 33.7356 35.512 33.888C35.3596 34.0404 35.1529 34.126 34.9374 34.126ZM4.87494 32.501H34.1249V26.001H4.87494V32.501Z" fill="#201602"/>
<path d="M34.1249 33.3135H35.7499V39.001H34.1249V33.3135ZM3.24994 33.3135H4.87494V39.001H3.24994V33.3135Z" fill="#201602"/>
</svg>
