<svg width="18" height="18" viewBox="0 0 18 18" fill="none" xmlns="http://www.w3.org/2000/svg">
<path fillRule="evenodd" clipRule="evenodd" d="M16.5937 16.875H13.7816C13.1004 16.875 12.5327 16.3913 12.4031 15.7486C12.3935 15.7486 12.3847 15.75 12.375 15.75V10.6596C12.375 10.0534 11.8713 9.56282 11.2501 9.56282C10.6288 9.56282 10.1251 10.0534 10.1251 10.6596V15.4693C10.1251 15.8123 9.99682 16.1213 9.79326 16.366C9.68147 16.5352 9.4906 16.6468 9.27278 16.6468C8.92782 16.6468 8.64847 16.3674 8.64847 16.0224C8.64847 15.84 8.72785 15.6775 8.85336 15.5632C8.94428 15.4629 9.00032 15.333 9.00032 15.188V10.6071C9.00032 9.40901 10.0075 8.4375 11.25 8.4375C12.4926 8.4375 13.5003 9.40901 13.5003 10.6071V14.3838C13.5003 14.4242 13.4964 14.4591 13.494 14.4961C13.4959 14.4956 13.4983 14.4956 13.5003 14.4947V15.188C13.5003 15.4984 13.7519 15.75 14.0628 15.75H16.3125C16.6234 15.75 16.875 15.4984 16.875 15.188V10.1254C16.875 10.0831 16.87 10.0427 16.8613 10.0031C16.7168 7.56021 14.7662 5.62465 12.375 5.62465C11.3824 5.62465 10.4684 5.96138 9.72573 6.52665C9.72299 6.52528 9.71996 6.52584 9.7142 6.53024C9.63642 6.59296 9.53947 6.62709 9.43956 6.62692C9.19649 6.62692 9.00039 6.42997 9.00039 6.18718C9.00039 6.15698 8.99859 6.1413 8.99543 6.13691C8.96948 5.85042 8.73105 5.62465 8.43789 5.62465H6.75014C6.129 5.62465 5.62503 6.12865 5.62503 6.74996V15.188C5.62503 15.2385 5.63396 15.2872 5.64644 15.3336C5.63213 15.3774 5.6249 15.4232 5.62503 15.4693C5.62503 16.2457 4.99567 16.875 4.21864 16.875H1.40636C0.63007 16.875 0 16.2457 0 15.4693V5.9059C0 5.12944 0.63007 4.50018 1.40636 4.50018H2.81275C3.74425 4.50018 4.49982 3.74456 4.49982 2.81232C4.49982 1.88012 3.74425 1.12451 2.81275 1.12451C1.88068 1.12451 1.12514 1.88012 1.12514 2.81232C1.12514 3.12325 0.873562 3.37482 0.5625 3.37482C0.252281 3.37482 0 3.12325 0 2.81232C0 1.2588 1.25944 0 2.81275 0C4.3662 0 5.62496 1.2588 5.62496 2.81232C5.62496 2.95488 5.61108 3.09357 5.59037 3.23065C5.58584 3.25702 5.58337 3.28419 5.57828 3.31056C5.5537 3.44735 5.52034 3.58193 5.47611 3.71102C5.47432 3.71735 5.47116 3.72312 5.46926 3.72941C5.37348 4.00588 5.23518 4.26572 5.05934 4.49958C4.54655 5.18129 3.73233 5.62461 2.81278 5.62461H1.68761C1.37668 5.62461 1.12511 5.87704 1.12511 6.18711V15.1879C1.12511 15.4983 1.37668 15.7499 1.68761 15.7499H4.52823C4.50945 15.6575 4.49992 15.5635 4.49979 15.4692V6.74996C4.49979 5.50737 5.50765 4.50018 6.75003 4.50018H8.71903C9.06648 4.50018 9.38232 4.62818 9.62733 4.83827C9.63035 4.84021 9.63337 4.8369 9.63668 4.83936C9.73824 4.92686 9.86793 4.97484 10.002 4.9745C10.0789 4.9745 10.152 4.95939 10.2181 4.93137C10.2382 4.92258 10.2503 4.92395 10.2618 4.92532C10.9149 4.65782 11.6252 4.50014 12.375 4.50014C15.2908 4.50014 17.6879 6.71889 17.9716 9.55951C17.9907 9.65316 18.0002 9.7485 17.9999 9.84407V15.4693C18 16.2457 17.3708 16.875 16.5937 16.875ZM7.31271 15.75C7.62293 15.75 7.87521 16.0021 7.87521 16.3125C7.87521 16.6234 7.62296 16.875 7.31271 16.875C7.00179 16.875 6.75007 16.6234 6.75007 16.3125C6.75007 16.0021 7.00182 15.75 7.31271 15.75Z" fill="#469EC8"/>
</svg>
