<svg width="50" height="50" viewBox="0 0 50 50" fill="none" xmlns="http://www.w3.org/2000/svg">
<path d="M31.8216 25.0248V16.1975C31.8216 12.4404 28.7478 9.31753 24.9907 9.32256C21.2335 9.32759 18.1784 12.3858 18.1784 16.1441V18.1508C18.1784 18.9992 17.4906 19.687 16.6421 19.687C15.7937 19.687 15.1058 18.9992 15.1058 18.1508V16.1441C15.1058 14.8091 15.3677 13.5132 15.884 12.2924C16.3824 11.1141 17.0956 10.0561 18.0037 9.14792C18.9119 8.23975 19.9699 7.52656 21.1482 7.02817C22.369 6.51182 23.6649 6.25 25 6.25C26.335 6.25 27.6309 6.51182 28.8517 7.02817C30.0301 7.52656 31.088 8.23977 31.9962 9.14792C32.9044 10.0561 33.6176 11.114 34.116 12.2924C34.6323 13.5132 34.8942 14.8091 34.8942 16.1441V25.0248L31.8216 25.0248Z" fill="#CFD8DD"/>
<path d="M37.9275 43.7502H12.0725C11.5332 43.7502 11.0959 43.313 11.0959 42.7737V23.4814C11.0959 22.9421 11.5332 22.5049 12.0725 22.5049H37.9275C38.4669 22.5049 38.9041 22.9421 38.9041 23.4814V42.7737C38.9041 43.313 38.4669 43.7502 37.9275 43.7502Z" fill="#F7E07F"/>
<path d="M29.9018 27.642C30.0021 27.7401 30.1628 27.7383 30.2608 27.6381C30.3588 27.5378 30.357 27.3771 30.2568 27.2791C30.242 27.2646 25.1535 22.1758 19.8012 27.253C19.6999 27.3493 19.6959 27.5096 19.7923 27.6109C19.8887 27.7122 20.049 27.7162 20.1503 27.6198C25.1433 22.8835 29.888 27.6285 29.9018 27.642Z" fill="#E65A65"/>
<path d="M26.2746 27.2958C26.4104 27.3286 26.5472 27.2452 26.58 27.1094C26.6129 26.9735 26.5294 26.8368 26.3936 26.8039C26.3756 26.7996 20.1286 25.1966 18.9931 32.5173C18.9718 32.6553 19.0663 32.7845 19.2043 32.8059C19.3423 32.8272 19.4716 32.7326 19.4929 32.5947C20.543 25.8245 26.2581 27.2918 26.2746 27.2958ZM27.6686 27.261C27.536 27.2167 27.3926 27.2882 27.3483 27.4207C27.3039 27.5532 27.3754 27.6967 27.5079 27.741C27.5156 27.7436 30.1692 28.6018 30.5033 32.4953C30.5148 32.6349 30.6374 32.7388 30.777 32.7273C30.9167 32.7158 31.0206 32.5933 31.0091 32.4536C30.6462 28.2254 27.6771 27.2639 27.6686 27.261Z" fill="#E65A65"/>
<path d="M30.1898 36.0104C30.2971 36.1002 30.457 36.086 30.5468 35.9786C30.6366 35.8713 30.6224 35.7115 30.5151 35.6216C30.2368 35.3888 30.0244 34.8846 29.8625 34.2994C29.6932 33.6876 29.5834 32.989 29.5106 32.4046C29.3798 31.3542 28.9556 30.3803 28.3217 29.6195C27.8654 29.0719 27.3011 28.6347 26.6598 28.3582C26.0147 28.0801 25.2927 27.9637 24.5247 28.0593C23.5869 28.1761 22.5823 28.6098 21.5697 29.4536C21.4623 29.5429 21.4477 29.7023 21.5369 29.8096C21.6262 29.917 21.7856 29.9316 21.8929 29.8424C22.8242 29.0663 23.7389 28.6686 24.5862 28.5631C25.2613 28.479 25.8947 28.5808 26.4595 28.8243C27.028 29.0693 27.5282 29.457 27.933 29.9428C28.5049 30.6291 28.888 31.5114 29.0069 32.4661C29.0815 33.0655 29.1955 33.7869 29.3746 34.4343C29.5611 35.1083 29.8219 35.7026 30.1898 36.0104Z" fill="#E65A65"/>
<path d="M29.2541 37.7783C29.3614 37.8681 29.5213 37.8539 29.6111 37.7466C29.7009 37.6392 29.6867 37.4794 29.5794 37.3896C29.3146 37.1681 29.0132 36.471 28.7493 35.6241C28.4443 34.6448 28.2024 33.4836 28.1267 32.6091L28.1268 32.609C28.1256 32.5959 28.1235 32.583 28.1204 32.5702C27.9604 31.6198 27.6151 30.912 27.1669 30.4103C26.7904 29.9889 26.3423 29.7141 25.8702 29.564C25.3997 29.4143 24.9072 29.3892 24.4393 29.4663C23.8491 29.5637 23.2946 29.8243 22.8701 30.2037C22.1172 30.8763 22.0252 31.7016 21.9266 32.5862C21.9187 32.6572 21.9106 32.7293 21.8969 32.8442C21.8627 33.1317 21.8277 33.4662 21.7926 33.8021C21.6346 35.3123 21.4735 36.8529 20.8304 38.2732C20.7729 38.4007 20.8298 38.5508 20.9573 38.6083C21.0849 38.6658 21.235 38.609 21.2925 38.4814C21.9685 36.9886 22.134 35.4056 22.2963 33.8536C22.328 33.5501 22.3597 33.2478 22.4007 32.9037C22.4078 32.8444 22.4191 32.7429 22.4303 32.6417C22.5179 31.8562 22.5996 31.1234 23.2072 30.5805C23.5601 30.2652 24.0241 30.048 24.5206 29.9661C24.9144 29.9012 25.3265 29.9216 25.7175 30.0459C26.1068 30.1697 26.4772 30.3974 26.79 30.7474C27.1778 31.1815 27.4785 31.8055 27.6212 32.6552C27.6999 33.5613 27.95 34.7625 28.2653 35.7748C28.5551 36.705 28.9095 37.49 29.2541 37.7783Z" fill="#E65A65"/>
<path d="M28.5055 38.8427C28.5942 38.9511 28.7541 38.9671 28.8625 38.8784C28.9709 38.7897 28.9869 38.6298 28.8982 38.5214C28.7095 38.2909 28.3077 37.6825 27.9067 36.9284C27.6253 36.3992 27.3476 35.8051 27.149 35.2304C26.9673 34.7044 26.9149 34.3147 26.8568 33.8829C26.8252 33.6479 26.792 33.4009 26.738 33.1195C26.6663 32.7458 26.5793 32.4279 26.4801 32.1599C26.3718 31.8677 26.2469 31.6308 26.1094 31.4424C25.8729 31.1181 25.5446 30.924 25.1949 30.8592C24.9209 30.8085 24.6342 30.8379 24.369 30.9469C24.1059 31.0552 23.8647 31.2412 23.6795 31.5043C23.4141 31.8814 23.2637 32.4166 23.3341 33.1051C23.4408 34.148 23.8617 35.5472 24.3665 36.8673C24.9935 38.5071 25.7574 40.0406 26.2114 40.6221C26.2974 40.7322 26.4563 40.7517 26.5664 40.6657C26.6765 40.5797 26.696 40.4208 26.6101 40.3107C26.1842 39.7652 25.4521 38.2862 24.8405 36.6869C24.3486 35.4004 23.9394 34.0462 23.8379 33.0536C23.7812 32.4992 23.8934 32.0808 24.094 31.7959C24.2216 31.6146 24.3849 31.4876 24.5614 31.415C24.7359 31.3432 24.9241 31.3238 25.1037 31.357C25.3309 31.3991 25.5452 31.5265 25.7009 31.7398C25.8096 31.8889 25.9116 32.0848 26.0041 32.3344C26.0945 32.5785 26.174 32.87 26.2402 33.2147C26.2934 33.4919 26.325 33.7268 26.355 33.9503C26.4164 34.4065 26.4717 34.818 26.671 35.395C26.8823 36.0065 27.1698 36.6236 27.4584 37.1663C27.8757 37.951 28.3021 38.5943 28.5055 38.8427ZM21.244 31.158C21.3009 31.0304 21.2437 30.8808 21.1161 30.8238C20.9885 30.7668 20.8388 30.8241 20.7819 30.9517C20.4094 31.7862 20.335 32.9085 20.2627 33.9977C20.1926 35.0542 20.1247 36.0782 19.7916 36.6895C19.7248 36.8122 19.7701 36.9658 19.8927 37.0326C20.0154 37.0994 20.169 37.0541 20.2359 36.9315C20.623 36.2208 20.6946 35.1423 20.7684 34.0295C20.8377 32.9846 20.9092 31.908 21.244 31.158Z" fill="#E65A65"/>
<path d="M25.2646 32.5352C25.2575 32.3956 25.1385 32.2882 24.9988 32.2953C24.8592 32.3024 24.7517 32.4214 24.7588 32.561C24.8251 33.8474 25.094 35.2909 25.62 36.6771C26.0733 37.8715 26.7171 39.0245 27.5863 40.0007C27.6794 40.1053 27.8397 40.1146 27.9443 40.0215C28.0489 39.9284 28.0582 39.7681 27.9651 39.6635C27.1391 38.7358 26.5263 37.6376 26.0941 36.4986C25.5874 35.1634 25.3284 33.7735 25.2646 32.5352ZM24.7659 41.1433C24.8442 41.2593 25.0018 41.29 25.118 41.2117C25.234 41.1334 25.2647 40.9757 25.1864 40.8596C24.7123 40.1578 24.3453 39.4509 24.0353 38.7447C23.7221 38.0311 23.4656 37.3159 23.2161 36.6069L23.2165 36.6059C23.17 36.4737 23.025 36.4042 22.8928 36.4508C22.8493 36.4661 22.8108 36.4929 22.7814 36.5284C22.752 36.5639 22.7329 36.6068 22.726 36.6524L22.6877 36.8331C22.4845 37.7925 22.2989 38.669 21.7435 39.6609C21.675 39.783 21.7185 39.9375 21.8407 40.006C21.9628 40.0744 22.1173 40.0309 22.1858 39.9088C22.644 39.0905 22.8635 38.3595 23.0372 37.6085C23.201 38.0533 23.375 38.4999 23.5712 38.9469C23.8938 39.682 24.2749 40.4164 24.7659 41.1433Z" fill="#E65A65"/>
</svg>
