 <svg
            
            className="backdrop-blur-sm"
            width="25"
            height="25"
            viewBox="0 0 25 25"
            fill="none"
            xmlns="http://www.w3.org/2000/svg"
          >
            <g clipPath="url(#clip0_13_246)">
              <path
                d="M12.5 0C5.60547 0 0 5.60547 0 12.5C0 19.3945 5.60547 25 12.5 25C19.3945 25 25 19.3945 25 12.5C25 5.60547 19.3945 0 12.5 0ZM12.5 23.75C6.28906 23.75 1.25 18.7109 1.25 12.5C1.25 6.28906 6.28906 1.25 12.5 1.25C18.7109 1.25 23.75 6.28906 23.75 12.5C23.75 18.7109 18.7109 23.75 12.5 23.75ZM9.60938 7.5L14.375 12.5L9.60938 17.5H12.2461L16.875 12.5L12.2461 7.5H9.60938Z"
                fill="#0A0A0A"
              />
            </g>
            <defs>
              <clipPath id="clip0_13_246">
                <rect width="25" height="25" fill="white" />
              </clipPath>
            </defs>
          </svg>