<svg width="25" height="25" viewBox="0 0 25 25" fill="none" xmlns="http://www.w3.org/2000/svg">
<path d="M21.5317 5.88691C21.5245 5.82022 21.4979 5.7571 21.4551 5.70545C21.4123 5.6538 21.3553 5.6159 21.291 5.59648C18.3489 4.71767 15.4605 3.66771 12.6409 2.45195C12.5966 2.43197 12.5486 2.42163 12.5 2.42163C12.4515 2.42163 12.4035 2.43197 12.3592 2.45195C9.53952 3.66771 6.6512 4.71767 3.70902 5.59648C3.64482 5.6159 3.58775 5.6538 3.54496 5.70545C3.50217 5.7571 3.47554 5.82022 3.46839 5.88691C3.28253 8.24224 3.47454 10.6121 4.03714 12.9068C5.25921 17.8146 8.14847 21.1531 12.3924 22.5613C12.4622 22.5844 12.5375 22.5844 12.6073 22.5613C16.8512 21.1531 19.7405 17.8152 20.9625 12.9068C21.5253 10.6122 21.7174 8.24226 21.5317 5.88691ZM20.2994 12.7424C19.1307 17.4355 16.5069 20.5076 12.5 21.8762C8.49867 20.5102 5.8766 17.4437 4.70531 12.7605C4.18609 10.6091 3.99195 8.39211 4.12933 6.1832C6.97313 5.32141 9.76756 4.30439 12.5 3.13672C15.2325 4.30458 18.0269 5.32173 20.8707 6.18359C21.0085 8.38585 20.8159 10.5963 20.2994 12.7416V12.7424Z" fill="black"/>
<path d="M19.7928 6.7687C16.3955 5.69448 13.849 4.66791 12.6336 4.15151C12.5913 4.13353 12.5459 4.12427 12.5 4.12427C12.4541 4.12427 12.4087 4.13353 12.3664 4.15151C11.151 4.66733 8.60449 5.69448 5.20723 6.7687C5.13916 6.79028 5.07955 6.83262 5.03675 6.88978C4.99395 6.94694 4.9701 7.01605 4.96855 7.08745C4.92566 8.94802 5.12925 10.8061 5.57402 12.6132C6.63457 16.7851 8.92344 19.5724 12.3771 20.8974C12.456 20.9276 12.5432 20.9276 12.6221 20.8974C16.0758 19.5724 18.3643 16.7851 19.4252 12.6134C19.8699 10.8062 20.0735 8.94808 20.0307 7.08745C20.0292 7.01615 20.0054 6.94711 19.9628 6.88996C19.9201 6.83281 19.8607 6.79041 19.7928 6.7687ZM18.7629 12.4451C17.7734 16.339 15.6662 18.9513 12.5 20.2113C9.33379 18.9513 7.22656 16.339 6.23711 12.4449C5.82953 10.7763 5.63178 9.06339 5.64844 7.34584C8.83691 6.32827 11.2564 5.36166 12.5 4.83803C13.7436 5.36166 16.1631 6.32768 19.3516 7.34584C19.3682 9.06345 19.1704 10.7764 18.7629 12.4451Z" fill="black"/>
<path d="M14.9443 9.99082V9.10156C14.9443 8.45328 14.6868 7.83156 14.2284 7.37316C13.77 6.91475 13.1483 6.65723 12.5 6.65723C11.8517 6.65723 11.23 6.91475 10.7716 7.37316C10.3132 7.83156 10.0557 8.45328 10.0557 9.10156V9.99121C9.70488 10.078 9.39319 10.2795 9.17022 10.5639C8.94724 10.8482 8.82579 11.199 8.8252 11.5604V14.9883C8.82566 15.4171 8.99623 15.8283 9.29949 16.1316C9.60274 16.4348 10.0139 16.6054 10.4428 16.6059H14.558C14.9869 16.6054 15.398 16.4348 15.7013 16.1316C16.0045 15.8283 16.1751 15.4171 16.1756 14.9883V11.56C16.1749 11.1985 16.0534 10.8477 15.8303 10.5633C15.6071 10.2789 15.2953 10.0774 14.9443 9.99082ZM12.5 7.34043C12.9669 7.34095 13.4145 7.52667 13.7446 7.85685C14.0747 8.18702 14.2603 8.63468 14.2607 9.10156V9.94141H10.7393V9.10156C10.7397 8.63468 10.9253 8.18702 11.2554 7.85685C11.5855 7.52667 12.0331 7.34095 12.5 7.34043ZM15.492 14.9883C15.4917 15.2359 15.3932 15.4733 15.2181 15.6484C15.043 15.8235 14.8056 15.922 14.558 15.9223H10.442C10.1944 15.922 9.957 15.8235 9.78191 15.6484C9.60682 15.4733 9.50832 15.2359 9.50801 14.9883V11.56C9.50811 11.3122 9.60651 11.0746 9.78162 10.8993C9.95673 10.724 10.1942 10.6254 10.442 10.625H14.558C14.8056 10.6254 15.043 10.7239 15.2181 10.899C15.3932 11.0741 15.4917 11.3115 15.492 11.5592V14.9883Z" fill="black"/>
<path d="M13.3065 11.887C13.1398 11.7377 12.935 11.6376 12.7148 11.5979C12.4947 11.5581 12.2678 11.5802 12.0594 11.6617C11.8511 11.7432 11.6694 11.8809 11.5347 12.0595C11.3999 12.2381 11.3173 12.4506 11.2962 12.6733C11.2773 12.8638 11.3044 13.0561 11.375 13.234C11.4457 13.4119 11.5578 13.5704 11.7022 13.6961C11.721 13.7109 11.7332 13.7324 11.7362 13.7561V14.3436C11.7362 14.4439 11.756 14.5432 11.7943 14.6359C11.8327 14.7286 11.889 14.8128 11.9599 14.8837C12.0309 14.9547 12.1151 15.0109 12.2077 15.0493C12.3004 15.0877 12.3997 15.1075 12.5001 15.1075C12.6004 15.1075 12.6997 15.0877 12.7924 15.0493C12.8851 15.0109 12.9693 14.9547 13.0402 14.8837C13.1111 14.8128 13.1674 14.7286 13.2058 14.6359C13.2442 14.5432 13.2639 14.4439 13.2639 14.3436V13.7616C13.2652 13.7485 13.269 13.7358 13.2752 13.7242C13.2813 13.7126 13.2897 13.7023 13.2999 13.694C13.4279 13.5811 13.5306 13.4423 13.6011 13.2868C13.6716 13.1313 13.7084 12.9627 13.7091 12.792C13.7097 12.6212 13.6741 12.4523 13.6048 12.2963C13.5354 12.1403 13.4337 12.0008 13.3065 11.887ZM12.8473 13.1817C12.7643 13.254 12.6976 13.343 12.6516 13.443C12.6056 13.5429 12.5813 13.6515 12.5803 13.7616V14.3436C12.5803 14.3649 12.5719 14.3853 12.5568 14.4004C12.5418 14.4154 12.5214 14.4239 12.5001 14.4239C12.4788 14.4239 12.4584 14.4154 12.4433 14.4004C12.4282 14.3853 12.4198 14.3649 12.4198 14.3436V13.7561C12.4187 13.647 12.3944 13.5395 12.3485 13.4405C12.3025 13.3416 12.236 13.2536 12.1534 13.1825C12.0906 13.1276 12.0419 13.0584 12.0113 12.9809C11.9808 12.9033 11.9692 12.8195 11.9776 12.7366C11.9901 12.6175 12.0426 12.5062 12.1264 12.4207C12.2102 12.3353 12.3205 12.2807 12.4393 12.2659C12.4595 12.2636 12.4798 12.2624 12.5001 12.2623C12.6295 12.2619 12.7544 12.3096 12.8505 12.3963C12.9058 12.4458 12.95 12.5065 12.9801 12.5743C13.0103 12.6421 13.0257 12.7155 13.0254 12.7897C13.0251 12.8639 13.0091 12.9372 12.9784 13.0048C12.9477 13.0724 12.903 13.1326 12.8473 13.1817Z" fill="black"/>
</svg>
