<svg xmlns="http://www.w3.org/2000/svg" xml:space="preserve" width="2048" height="2048" style="shape-rendering:geometricPrecision;text-rendering:geometricPrecision;image-rendering:optimizeQuality;fill-rule:evenodd;clip-rule:evenodd"><defs><style>.fil1{fill:none}.fil3{fill:#fff}</style></defs><path style="fill:#424242" d="M0 0h2048v2048H0z"/><g id="Layer_x0020_1"><path class="fil1" d="M0 0h2048v2048H0z"/><path class="fil1" d="M255.999 255.999h1536v1536h-1536z"/><path d="M618.384 1196.6h-56.296c-.207 27.148 0 98.366 0 98.366h-91.609v56.496c30.349-.207 91.609-.207 91.609-.207s0 71.16-.207 98.308h56.503v-98.308h91.609v-56.29h-91.609V1196.6z" style="fill:#212121"/><g id="_253993680"><path id="_253994616" class="fil1" d="M255.999 255.999h1536v1536h-1536z"/><path id="_253993992" class="fil3" d="M533.857 1620.79v171.215h1161.34l-3.27-326.542c-141.382-326.289-560.72-461.292-861.821-318.48 37.484 49.998 59.693 112.075 59.693 179.27 0 165.546-134.25 299.812-299.786 299.812a300.8 300.8 0 0 1-56.151-5.276z"/><path id="_253993176" class="fil3" d="M1507.27 648.518c0 216.983-175.957 392.966-392.94 392.966S721.776 865.501 721.776 648.518C721.776 431.957 897.347 256 1114.33 256c216.983 0 392.94 175.957 392.94 392.518z"/><path id="_253993584" class="fil3" d="M822.214 1323.65c0 129.658-105.157 234.832-234.815 234.832-129.675 0-234.592-105.174-234.592-234.832 0-129.418 104.917-234.567 234.592-234.567 129.658 0 234.815 105.149 234.815 234.567zm-45.685.025c0 104.42-84.684 189.122-189.105 189.122-104.43 0-188.933-84.7-188.933-189.122 0-104.223 84.503-188.908 188.933-188.908 104.42 0 189.105 84.685 189.105 188.908zm-158.145-127.077h-56.296c-.207 27.148 0 98.366 0 98.366h-91.609v56.495c30.349-.206 91.609-.206 91.609-.206s0 71.16-.207 98.308h56.503v-98.308h91.609v-56.29h-91.61v-98.365z"/></g></g></svg>