<svg width="32" height="32" viewBox="0 0 32 32" fill="none" xmlns="http://www.w3.org/2000/svg">
<rect width="32" height="32" fill="black"/>
<path d="M16 31C7.729 31 1 24.271 1 16C1 7.729 7.729 1 16 1C24.271 1 31 7.729 31 16C31 24.271 24.271 31 16 31ZM16 3C8.832 3 3 8.832 3 16C3 23.168 8.832 29 16 29C23.168 29 29 23.168 29 16C29 8.832 23.168 3 16 3Z" fill="white"/>
<path d="M16 14.736C17.8601 14.736 19.368 13.2281 19.368 11.368C19.368 9.50791 17.8601 8 16 8C14.1399 8 12.632 9.50791 12.632 11.368C12.632 13.2281 14.1399 14.736 16 14.736Z" fill="white"/>
<path d="M20.673 24H11.327C10.497 24 9.82495 23.328 9.82495 22.498V21.511C9.82522 20.0781 10.3945 18.704 11.4077 17.6908C12.4209 16.6776 13.7951 16.1083 15.228 16.108H16.772C18.2048 16.1083 19.579 16.6776 20.5922 17.6908C21.6054 18.704 22.1747 20.0781 22.175 21.511V22.498C22.175 23.328 21.503 24 20.673 24Z" fill="white"/>
</svg>
