<svg xmlns="http://www.w3.org/2000/svg" viewBox="0 0 32 32" aria-hidden="true" role="presentation" focusable="false" style="display: block; fill: none; height: 24px; width: 24px; stroke: currentcolor; stroke-width: 2; overflow: visible;"><g fill="none"><path d="M16.67 24.94c-2.35 3.15-4.7 4.73-7.07 4.73-3.62 0-5.17-2.38-5.53-4.21-.32-1.63.5-3.82.8-4.54l1.75-3.85A205.3 205.3 0 0 1 11.7 6.6L12.6 5l.23-.41c.4-.68 1.5-2.25 3.84-2.25a4.16 4.16 0 0 1 3.78 2.16l.29.5.76 1.37.4.73c1.22 2.3 2.75 5.52 4.02 8.25l2.51 5.5c.27.61 1.16 2.92.83 4.62-.36 1.83-1.9 4.2-5.53 4.2-2.42 0-4.77-1.57-7.06-4.72z"></path><path d="M16.67 24.94c2.1-2.8 3.34-5.09 3.7-6.84.52-2.63-1.06-4.83-3.7-4.83s-4.23 2.2-3.7 4.83c.35 1.75 1.59 4.03 3.7 6.84z"></path></g></svg>