<svg width="24" height="24" viewBox="0 0 24 24" fill="none" xmlns="http://www.w3.org/2000/svg">
<path d="M5.54999 7.59408C5.63702 7.59408 5.72048 7.55951 5.78201 7.49797C5.84355 7.43644 5.87812 7.35298 5.87812 7.26595V6.76439C5.87812 6.67737 5.84355 6.59391 5.78201 6.53237C5.72048 6.47084 5.63702 6.43627 5.54999 6.43627C5.46297 6.43627 5.37951 6.47084 5.31797 6.53237C5.25644 6.59391 5.22187 6.67737 5.22187 6.76439V7.26595C5.22187 7.35298 5.25644 7.43644 5.31797 7.49797C5.37951 7.55951 5.46297 7.59408 5.54999 7.59408ZM5.26743 7.91283C5.26743 7.8258 5.23286 7.74234 5.17133 7.68081C5.10979 7.61927 5.02633 7.5847 4.93931 7.5847H4.43774C4.35072 7.5847 4.26726 7.61927 4.20572 7.68081C4.14419 7.74234 4.10962 7.8258 4.10962 7.91283C4.10962 7.99985 4.14419 8.08331 4.20572 8.14485C4.26726 8.20638 4.35072 8.24095 4.43774 8.24095H4.93931C5.02633 8.24095 5.10979 8.20638 5.17133 8.14485C5.23286 8.08331 5.26743 7.99985 5.26743 7.91283ZM5.58749 9.35433C5.67452 9.35433 5.75798 9.31976 5.81951 9.25822C5.88105 9.19669 5.91562 9.11323 5.91562 9.0262V8.52445C5.91562 8.43743 5.88105 8.35397 5.81951 8.29243C5.75798 8.2309 5.67452 8.19633 5.58749 8.19633C5.50047 8.19633 5.41701 8.2309 5.35547 8.29243C5.29394 8.35397 5.25937 8.43743 5.25937 8.52445V9.02602C5.25934 9.06912 5.26781 9.11181 5.28429 9.15164C5.30077 9.19147 5.32494 9.22767 5.35541 9.25816C5.38588 9.28865 5.42206 9.31283 5.46188 9.32933C5.50171 9.34583 5.54439 9.35433 5.58749 9.35433ZM6.19799 8.20514H6.69937C6.78639 8.20514 6.86985 8.17057 6.93139 8.10904C6.99292 8.0475 7.02749 7.96404 7.02749 7.87702C7.02749 7.78999 6.99292 7.70653 6.93139 7.645C6.86985 7.58346 6.78639 7.54889 6.69937 7.54889H6.19799C6.11097 7.54889 6.02751 7.58346 5.96597 7.645C5.90444 7.70653 5.86987 7.78999 5.86987 7.87702C5.86987 7.96404 5.90444 8.0475 5.96597 8.10904C6.02751 8.17057 6.11097 8.20514 6.19799 8.20514ZM18.4125 4.3162C18.4995 4.3162 18.583 4.28163 18.6445 4.2201C18.706 4.15856 18.7406 4.0751 18.7406 3.98808V3.48633C18.7406 3.3993 18.706 3.31584 18.6445 3.25431C18.583 3.19277 18.4995 3.1582 18.4125 3.1582C18.3255 3.1582 18.242 3.19277 18.1805 3.25431C18.1189 3.31584 18.0844 3.3993 18.0844 3.48633V3.98789C18.0843 4.031 18.0928 4.07368 18.1093 4.11352C18.1258 4.15335 18.1499 4.18954 18.1804 4.22003C18.2109 4.25052 18.2471 4.27471 18.2869 4.29121C18.3267 4.30771 18.3694 4.3162 18.4125 4.3162ZM17.3006 4.96364H17.8022C17.8892 4.96364 17.9727 4.92907 18.0342 4.86754C18.0957 4.806 18.1303 4.72254 18.1303 4.63552C18.1303 4.54849 18.0957 4.46503 18.0342 4.4035C17.9727 4.34196 17.8892 4.30739 17.8022 4.30739H17.3006C17.2136 4.30739 17.1301 4.34196 17.0686 4.4035C17.0071 4.46503 16.9725 4.54849 16.9725 4.63552C16.9725 4.72254 17.0071 4.806 17.0686 4.86754C17.1301 4.92907 17.2136 4.96364 17.3006 4.96364ZM18.45 4.91827C18.363 4.91827 18.2795 4.95284 18.218 5.01437C18.1564 5.07591 18.1219 5.15937 18.1219 5.24639V5.74795C18.1219 5.83498 18.1564 5.91844 18.218 5.97997C18.2795 6.04151 18.363 6.07608 18.45 6.07608C18.537 6.07608 18.6205 6.04151 18.682 5.97997C18.7435 5.91844 18.7781 5.83498 18.7781 5.74795V5.24639C18.7781 5.15937 18.7435 5.07591 18.682 5.01437C18.6205 4.95284 18.537 4.91827 18.45 4.91827ZM19.5622 4.27083H19.0607C18.9737 4.27083 18.8902 4.3054 18.8287 4.36693C18.7671 4.42847 18.7326 4.51193 18.7326 4.59895C18.7326 4.68598 18.7671 4.76944 18.8287 4.83097C18.8902 4.89251 18.9737 4.92708 19.0607 4.92708H19.5622C19.6493 4.92708 19.7327 4.89251 19.7943 4.83097C19.8558 4.76944 19.8904 4.68598 19.8904 4.59895C19.8904 4.51193 19.8558 4.42847 19.7943 4.36693C19.7327 4.3054 19.6493 4.27083 19.5622 4.27083Z" fill="black"/>
<path d="M17.9843 11.2486L13.1766 6.82269C12.9404 6.60467 12.6389 6.4708 12.3188 6.44187V5.63562H12.3431C12.5316 5.63523 12.7122 5.56019 12.8455 5.42694C12.9787 5.29369 13.0537 5.11307 13.0541 4.92462V4.23444C13.0537 4.04599 12.9787 3.86537 12.8455 3.73212C12.7122 3.59887 12.5316 3.52383 12.3431 3.52344H8.70452C8.51607 3.52383 8.33546 3.59887 8.2022 3.73212C8.06895 3.86537 7.99391 4.04599 7.99352 4.23444V4.92481C7.99391 5.11326 8.06895 5.29387 8.2022 5.42713C8.33546 5.56038 8.51607 5.63542 8.70452 5.63581H8.72871V6.47862C8.42735 6.50938 8.14811 6.65078 7.94495 6.87548C7.7418 7.10017 7.62917 7.39221 7.62883 7.69512V16.1714H5.90027C5.55851 16.1718 5.23086 16.3078 4.9892 16.5494C4.74754 16.7911 4.6116 17.1187 4.61121 17.4605V19.5526C4.6116 19.8944 4.74754 20.222 4.9892 20.4637C5.23086 20.7054 5.55851 20.8413 5.90027 20.8417H10.1016C10.2634 20.8415 10.4237 20.8106 10.5741 20.7507C10.8355 20.8097 11.1026 20.8402 11.3706 20.8417H16.2733C16.8523 20.841 17.4073 20.6108 17.8167 20.2014C18.226 19.792 18.4563 19.237 18.457 18.6581V12.326C18.4568 12.1235 18.4147 11.9232 18.3333 11.7378C18.252 11.5523 18.1331 11.3859 17.9843 11.2486ZM8.64977 4.925V4.23444C8.64977 4.21992 8.65554 4.20599 8.6658 4.19572C8.67607 4.18546 8.69 4.17969 8.70452 4.17969H12.3437C12.3582 4.17969 12.3722 4.18546 12.3824 4.19572C12.3927 4.20599 12.3985 4.21992 12.3985 4.23444V4.92481C12.3985 4.93933 12.3927 4.95326 12.3824 4.96353C12.3722 4.97379 12.3582 4.97956 12.3437 4.97956H8.70452C8.69003 4.97956 8.67613 4.97382 8.66587 4.96359C8.65561 4.95337 8.64982 4.93949 8.64977 4.925ZM11.6625 5.63581V6.4355H9.38496V5.63581H11.6625ZM5.26746 17.4605C5.26765 17.2927 5.33439 17.1319 5.45302 17.0133C5.57165 16.8946 5.7325 16.8279 5.90027 16.8277H10.1016C10.2694 16.8279 10.4302 16.8946 10.5488 17.0133C10.6675 17.1319 10.7342 17.2927 10.7344 17.4605V18.2088C10.7342 18.3766 10.6675 18.5374 10.5488 18.6561C10.4302 18.7747 10.2694 18.8414 10.1016 18.8416H5.90027C5.7325 18.8414 5.57165 18.7747 5.45302 18.6561C5.33439 18.5374 5.26765 18.3766 5.26746 18.2088V17.4605ZM5.90027 20.1854C5.7325 20.1852 5.57165 20.1185 5.45302 19.9999C5.33439 19.8812 5.26765 19.7204 5.26746 19.5526V19.3308C5.46033 19.4405 5.6784 19.4981 5.90027 19.4981H10.1016C10.3234 19.4981 10.5415 19.4405 10.7344 19.3308V19.5528C10.734 19.5902 10.7302 19.6275 10.7231 19.6642C10.7211 19.6758 10.7185 19.6872 10.7158 19.6987C10.7097 19.7237 10.7021 19.7483 10.693 19.7724C10.6864 19.7902 10.6789 19.8076 10.6706 19.8247C10.6511 19.8668 10.6262 19.9062 10.5968 19.9421L10.584 19.9576C10.5289 20.0222 10.4615 20.0753 10.3858 20.1138C10.3828 20.1153 10.381 20.1179 10.378 20.1194C10.2921 20.1624 10.1976 20.1851 10.1016 20.1856L5.90027 20.1854ZM17.8007 18.6581C17.8003 19.063 17.6392 19.4512 17.3529 19.7376C17.0665 20.0239 16.6783 20.185 16.2733 20.1854H11.3706C11.3226 20.1854 11.2743 20.1842 11.2258 20.1817C11.2517 20.1357 11.2746 20.0882 11.2946 20.0394C11.2969 20.0339 11.2986 20.0281 11.3008 20.0225C11.3167 19.9822 11.3304 19.941 11.3421 19.8993L11.3528 19.8582C11.3616 19.8221 11.3687 19.7855 11.3745 19.7482C11.3768 19.7339 11.3794 19.7199 11.3811 19.7056C11.3874 19.655 11.3907 19.604 11.391 19.553V17.4605C11.3906 17.1187 11.2547 16.7911 11.013 16.5494C10.7714 16.3078 10.4437 16.1718 10.102 16.1714H8.28508V7.69494C8.28523 7.54475 8.34496 7.40077 8.45115 7.29457C8.55735 7.18837 8.70134 7.12865 8.85152 7.1285L12.1735 7.091C12.3803 7.08756 12.5804 7.16406 12.7322 7.30456L17.5399 11.7296C17.622 11.8053 17.6876 11.8973 17.7325 11.9996C17.7773 12.1019 17.8006 12.2124 17.8007 12.3241V18.6581Z" fill="black"/>
<path d="M15.8139 12.2031C15.5774 12.2034 15.3507 12.2974 15.1835 12.4646C15.0162 12.6318 14.9221 12.8586 14.9218 13.0951V17.8238C14.9218 18.0604 15.0158 18.2873 15.1831 18.4546C15.3504 18.6219 15.5773 18.7159 15.8139 18.7159C16.0505 18.7159 16.2775 18.6219 16.4448 18.4546C16.6121 18.2873 16.7061 18.0604 16.7061 17.8238V13.0953C16.7058 12.8587 16.6117 12.6319 16.4445 12.4647C16.2772 12.2974 16.0505 12.2034 15.8139 12.2031ZM16.05 17.824C16.05 17.8866 16.0251 17.9466 15.9809 17.9908C15.9367 18.035 15.8767 18.0599 15.8141 18.0599C15.7516 18.0599 15.6916 18.035 15.6473 17.9908C15.6031 17.9466 15.5783 17.8866 15.5783 17.824V13.0953C15.5783 13.0327 15.6031 12.9727 15.6473 12.9285C15.6916 12.8842 15.7516 12.8594 15.8141 12.8594C15.8767 12.8594 15.9367 12.8842 15.9809 12.9285C16.0251 12.9727 16.05 13.0327 16.05 13.0953V17.824Z" fill="black"/>
</svg>
