<svg width="24" height="24" viewBox="0 0 24 24" fill="none" xmlns="http://www.w3.org/2000/svg">
<g clip-path="url(#clip0_70_55)">
<path d="M15.4435 6.22256C15.3871 6.07816 15.2243 6.00685 15.0799 6.06327C14.9355 6.11968 14.8641 6.2825 14.9206 6.4269C15.2197 7.19307 15.7092 7.85342 16.3268 8.35732C16.9442 8.86097 17.6892 9.20767 18.5 9.34689C18.5989 9.3638 18.6984 9.37752 18.7983 9.38804C18.8985 9.39858 18.999 9.40592 19.0997 9.41004C19.2544 9.4161 19.3848 9.29559 19.3908 9.14087C19.3969 8.98616 19.2764 8.85579 19.1217 8.84973C18.9449 8.84219 18.7688 8.82329 18.5944 8.79316C17.8921 8.67276 17.2328 8.37275 16.6806 7.92226C16.1378 7.47947 15.7073 6.8981 15.4435 6.22256Z" fill="#212121"/>
<path d="M15.4469 6.41699C15.4979 6.27078 15.4207 6.1109 15.2745 6.05993C15.1282 6.00897 14.9684 6.08618 14.9174 6.23241C14.8136 6.53048 14.74 6.83826 14.698 7.15109C14.6557 7.46581 14.6453 7.78205 14.6666 8.09482C14.6769 8.24953 14.8107 8.36662 14.9654 8.3563C15.1201 8.34599 15.2372 8.21219 15.2269 8.05748C15.208 7.77962 15.2169 7.50093 15.2539 7.2258C15.2909 6.95039 15.3555 6.67942 15.4469 6.41699ZM10.029 8.3367C9.90159 8.42529 9.8701 8.60039 9.95869 8.72782C10.0473 8.85524 10.2224 8.88672 10.3498 8.79814C10.5795 8.63827 10.6801 8.56906 10.7775 8.50217C11.1213 8.2658 11.4495 8.04024 11.709 7.84426C11.7173 7.88127 11.7234 7.92863 11.727 7.98717H11.7271L11.7265 7.98721C11.7268 7.99283 11.7274 7.99841 11.728 8.00392C11.7303 8.04641 11.731 8.08964 11.7301 8.13356L11.7291 8.13355C11.726 8.28885 11.8494 8.41726 12.0047 8.42032C12.0839 8.42189 12.156 8.39058 12.2082 8.33897C12.5238 8.08034 12.807 7.72298 13.0529 7.34849C13.2983 6.9748 13.5068 6.58445 13.672 6.26207C13.7424 6.12433 13.6878 5.95561 13.55 5.88523C13.4123 5.81485 13.2436 5.86943 13.1732 6.00716C13.0148 6.31631 12.8156 6.68953 12.5849 7.04086C12.4651 7.22321 12.337 7.39972 12.2023 7.55775C12.187 7.52299 12.1698 7.49117 12.1509 7.46215C12.0456 7.30087 11.9002 7.22514 11.723 7.22165C11.7171 7.22153 11.7112 7.22146 11.7053 7.22146C11.6368 7.2181 11.5695 7.23998 11.516 7.28296L11.692 7.50237L11.5162 7.28375C11.2528 7.49501 10.8672 7.76006 10.4589 8.04073C10.2732 8.16836 10.0853 8.29749 10.029 8.3367Z" fill="#212121"/>
<path d="M14.7786 8.30117C14.903 8.39398 15.0791 8.36841 15.1719 8.24402C15.2647 8.11965 15.2392 7.94354 15.1148 7.85072C14.8394 7.64517 14.5603 7.36256 14.3125 7.05015C14.0602 6.73213 13.8421 6.38561 13.6951 6.06001C13.6314 5.91865 13.4651 5.85568 13.3237 5.91939C13.1824 5.98308 13.1194 6.14936 13.1831 6.29071C13.3491 6.65823 13.5927 7.04619 13.873 7.39954C14.1503 7.74906 14.4652 8.06721 14.7786 8.30117Z" fill="#212121"/>
<path d="M16.3199 5.19642C16.4442 5.28923 16.6204 5.26366 16.7132 5.13928C16.806 5.01491 16.7804 4.8388 16.656 4.74598C16.2954 4.47676 15.8885 4.2627 15.4482 4.11668C15.023 3.97574 14.571 3.89941 14.1039 3.89941C12.9247 3.89941 11.8571 4.37741 11.0844 5.15016C10.3116 5.92291 9.83362 6.99048 9.83362 8.16964C9.83362 9.34881 10.3116 10.4164 11.0844 11.1891C11.8571 11.9619 12.9247 12.4399 14.1039 12.4399C15.1124 12.4399 16.0401 12.0893 16.7718 11.5031C17.5163 10.9066 18.0568 10.0648 18.2714 9.09949C18.3047 8.94843 18.2093 8.79888 18.0582 8.76551C17.9071 8.73214 17.7576 8.82756 17.7242 8.97864C17.5382 9.8157 17.0682 10.5467 16.4202 11.0659C15.7864 11.5736 14.981 11.8774 14.1038 11.8774C13.08 11.8774 12.153 11.4624 11.4821 10.7914C10.8111 10.1205 10.3961 9.19351 10.3961 8.16963C10.3961 7.14577 10.8111 6.21879 11.4821 5.54784C12.153 4.87691 13.08 4.4619 14.1038 4.4619C14.5147 4.4619 14.9074 4.52741 15.2724 4.64842C15.6506 4.77383 16.0036 4.96028 16.3199 5.19641L16.3199 5.19642Z" fill="#212121"/>
<path d="M18.3105 7.45904C18.2614 7.3122 18.1025 7.23302 17.9556 7.28214C17.8088 7.33128 17.7296 7.49017 17.7787 7.63701L17.7841 7.65288L18.05 7.5639L17.7834 7.6536C17.7854 7.65943 17.7875 7.66516 17.7898 7.67076L17.7893 7.67092C17.7905 7.67436 17.7917 7.67776 17.793 7.68112C17.9041 8 18.0604 8.30395 18.249 8.58092C18.4448 8.86859 18.6763 9.12718 18.9284 9.34304C19.0461 9.44375 19.2232 9.42998 19.3239 9.31227C19.4246 9.19456 19.4108 9.01747 19.2931 8.91677C19.0788 8.73329 18.8811 8.512 18.7126 8.26451C18.5523 8.02908 18.4191 7.76982 18.3241 7.49692C18.3233 7.49425 18.3225 7.49158 18.3216 7.48892L18.3214 7.48898L18.3213 7.48874L18.321 7.48886C18.3196 7.48393 18.3182 7.47904 18.3165 7.47419L18.316 7.47435L18.3158 7.4738L18.3155 7.47392L18.3105 7.45904ZM8.99232 15.3994C9.37324 14.516 9.98831 13.8589 10.8848 13.4222C11.7633 12.9943 12.9086 12.7833 14.3671 12.7833C15.7456 12.7833 16.8743 13.0398 17.7483 13.4601C18.7501 13.9418 19.4191 14.6402 19.75 15.4196L19.751 15.4192C19.759 15.4379 19.7647 15.4571 19.7684 15.4763L20.8963 19.7481L20.8969 19.7479C20.9365 19.8981 20.8469 20.052 20.6967 20.0916C20.6708 20.0985 20.6447 20.1014 20.6191 20.1009H8.10925C7.95393 20.1009 7.828 19.975 7.828 19.8197C7.828 19.7879 7.83331 19.7573 7.84304 19.7288L8.97066 15.4576L9.24203 15.529L8.9701 15.4572C8.97538 15.4372 8.98284 15.4178 8.99237 15.3994H8.99232ZM11.1309 13.9276C10.3617 14.3022 9.83419 14.8649 9.50798 15.6208L8.47368 19.5384H20.2605L19.2254 15.618C18.9431 14.9679 18.3693 14.3803 17.5066 13.9654C16.7065 13.5807 15.6598 13.3458 14.3671 13.3458C12.9952 13.3458 11.9308 13.5379 11.1309 13.9276L11.1309 13.9276Z" fill="#212121"/>
<path d="M12.2545 13.3463C12.1702 13.2164 11.9965 13.1795 11.8667 13.2639C11.7368 13.3482 11.6999 13.5218 11.7843 13.6517C12.0596 14.0737 12.4466 14.4134 12.8991 14.6469C13.349 14.8792 13.8636 15.0072 14.3967 15.0072C14.9078 15.0072 15.4029 14.8893 15.8408 14.6739C16.2803 14.4577 16.6617 14.1422 16.9434 13.748C17.0332 13.6218 17.0037 13.4467 16.8775 13.3569C16.7513 13.2671 16.5762 13.2966 16.4864 13.4228C16.26 13.7396 15.9507 13.9945 15.5925 14.1707C15.2326 14.3478 14.8226 14.4447 14.3967 14.4447C13.9527 14.4447 13.5265 14.3393 13.1561 14.1482C12.7882 13.9583 12.4751 13.6845 12.2545 13.3463ZM17.7307 5.92535C17.6275 5.81008 17.4504 5.80025 17.3352 5.90339C17.2199 6.00653 17.21 6.18361 17.3132 6.2989C17.5637 6.57866 17.8677 6.84477 18.1886 7.08464C18.5521 7.35645 18.9453 7.60029 19.3103 7.7948C19.4468 7.86761 19.6165 7.81598 19.6893 7.67945C19.7621 7.54294 19.7105 7.37324 19.5739 7.30043C19.2381 7.12146 18.8712 6.89321 18.5248 6.63421C18.2271 6.41171 17.9504 6.17077 17.7307 5.92535Z" fill="#212121"/>
<path d="M19.5003 7.82227C19.652 7.79012 19.7489 7.64107 19.7167 7.48938C19.6846 7.3377 19.5355 7.2408 19.3839 7.27294C19.2322 7.30565 19.0409 7.34589 18.8424 7.36017C18.6554 7.37358 18.4589 7.36501 18.2802 7.30571C18.1334 7.25717 17.975 7.33687 17.9265 7.48369C17.8779 7.63052 17.9576 7.78892 18.1044 7.83746C18.3661 7.92428 18.6343 7.93827 18.8819 7.92048C19.118 7.90351 19.3315 7.85867 19.5003 7.82227ZM16.6379 4.74127C16.4977 4.67575 16.331 4.73625 16.2654 4.8764C16.1999 5.01656 16.2604 5.18333 16.4006 5.24885C16.734 5.40499 17.1047 5.52527 17.483 5.61603C17.9253 5.72214 18.3725 5.78787 18.7801 5.82349C18.9348 5.83684 19.0711 5.72221 19.0844 5.5675C19.0978 5.41278 18.9831 5.27653 18.8284 5.26317C18.437 5.229 18.016 5.16788 17.6127 5.0711C17.2698 4.98884 16.9356 4.88069 16.6379 4.74127Z" fill="#212121"/>
<path d="M18.9658 5.77304C19.0926 5.68385 19.1231 5.50874 19.0339 5.38194C18.9448 5.25514 18.7696 5.22463 18.6428 5.31382C18.4947 5.41841 18.2542 5.57264 17.9948 5.68768C17.8268 5.76221 17.6534 5.81944 17.5 5.83206C17.3453 5.8442 17.2297 5.97948 17.2418 6.1342C17.254 6.28891 17.3892 6.40451 17.544 6.39237C17.7683 6.37392 18.0026 6.29877 18.2211 6.20185C18.5217 6.06852 18.7971 5.89224 18.9658 5.77304ZM4.40776 9.30121L5.80169 8.85554L5.80134 8.85439C5.85636 8.83671 5.9155 8.83648 5.97065 8.85375L7.43886 9.22535L8.9066 8.48027L8.90628 8.47964C9.04477 8.40934 9.21407 8.46463 9.28437 8.60312C9.29522 8.62445 9.3033 8.64708 9.30842 8.67046L9.95319 10.6871L9.95433 10.6868C10.0016 10.8347 9.92003 10.993 9.77208 11.0403C9.74941 11.0476 9.7259 11.0519 9.70212 11.0533L8.03873 11.2775L7.07889 12.375L7.07961 12.3756C7.04015 12.4208 6.9872 12.4522 6.92855 12.4651L5.55788 12.9033C4.70029 13.1775 3.99917 12.8826 3.56421 12.3573C3.39929 12.1581 3.2737 11.9236 3.19372 11.6735C3.11406 11.4243 3.08049 11.1611 3.09926 10.9035C3.14883 10.223 3.54924 9.57568 4.40776 9.30121ZM5.8945 9.41388L4.57694 9.83514C3.97423 10.0278 3.69367 10.4748 3.65955 10.943C3.64578 11.1321 3.66999 11.324 3.72763 11.5043C3.78499 11.6837 3.87631 11.8533 3.99705 11.9991C4.29666 12.3609 4.78504 12.5623 5.38869 12.3694L6.70796 11.9476L7.67111 10.8463C7.71474 10.7874 7.7812 10.7454 7.85961 10.7349L7.89718 11.0136L7.85982 10.7356L9.31782 10.5391L8.86715 9.12953L7.61612 9.76461C7.58436 9.78369 7.54914 9.79628 7.5125 9.80166C7.47585 9.80705 7.4385 9.80512 7.4026 9.79599L7.40271 9.79558L5.8945 9.41388Z" fill="#212121"/>
<path d="M6.48109 12.4648L6.72886 13.2398L6.01693 13.4654L5.76917 12.6904L6.48109 12.4648Z" fill="#212121"/>
<path d="M6.09021 13.1662C6.11858 13.1568 6.15764 13.1441 6.23691 13.1181C6.51232 13.0278 6.66185 12.9788 7.24394 12.7473C7.42869 12.6738 7.59439 12.7021 7.72335 12.7871C7.79819 12.8364 7.8585 12.9045 7.90105 12.9822C7.9424 13.0577 7.9675 13.1431 7.97318 13.2294C7.98414 13.3964 7.92419 13.5685 7.77196 13.6865C7.75724 13.698 7.71688 13.7196 7.664 13.7457C7.7119 13.8005 7.74905 13.8651 7.77353 13.9343C7.7979 14.0031 7.80951 14.0772 7.8064 14.1511C7.8041 14.2062 7.79405 14.2606 7.77557 14.3125C7.82274 14.3412 7.86497 14.3773 7.90146 14.4187C7.9501 14.4738 7.98775 14.5391 8.01246 14.6089C8.03681 14.6777 8.04844 14.7518 8.04535 14.8258C8.03703 15.0249 7.92749 15.217 7.68299 15.3036C7.44318 15.3885 7.24057 15.4743 7.06049 15.5505C6.97378 15.5872 6.99509 15.5787 6.94572 15.5993C6.70152 15.7016 6.45073 15.7218 6.21203 15.6773C5.96024 15.6304 5.72358 15.5116 5.5243 15.3419L5.52399 15.3423C5.51877 15.3379 5.51384 15.3332 5.50923 15.3283C5.31874 15.162 5.16289 14.9488 5.06207 14.7082C4.94485 14.4284 4.90087 14.1103 4.96169 13.7837C5.0811 13.1423 5.30308 13.1631 5.65517 13.1961C5.77681 13.2075 5.92382 13.2213 6.09021 13.1662ZM6.35262 13.4741C6.3428 13.4773 6.34287 13.4772 6.20739 13.5221C5.96983 13.6008 5.77922 13.583 5.62148 13.5682C5.47715 13.5546 5.38612 13.5461 5.32936 13.8511C5.2826 14.1021 5.31688 14.3477 5.40776 14.5646C5.48644 14.7524 5.6068 14.9178 5.75321 15.0461C5.75798 15.0494 5.76264 15.053 5.76715 15.0569L5.64557 15.1996L5.76715 15.0575C5.91773 15.1858 6.09413 15.2752 6.2794 15.3097C6.44903 15.3412 6.62768 15.3267 6.80215 15.2536C6.92561 15.2019 6.9068 15.2099 6.91547 15.2063C7.10602 15.1256 7.32042 15.0348 7.55848 14.9505C7.63524 14.9233 7.66946 14.8677 7.6718 14.8111C7.67285 14.7856 7.66849 14.759 7.65942 14.7334C7.65075 14.7087 7.63744 14.686 7.62021 14.6663C7.58261 14.6236 7.52084 14.6017 7.44403 14.6289L7.31952 14.2759C7.39629 14.2487 7.43051 14.193 7.43287 14.1365C7.43392 14.111 7.42957 14.0844 7.4205 14.0588C7.41182 14.0341 7.39851 14.0113 7.38128 13.9916C7.34364 13.9489 7.28187 13.927 7.20508 13.9542L7.08057 13.6012C7.10037 13.5941 7.25107 13.5264 7.38232 13.4655L7.54344 13.3907C7.58639 13.3573 7.60306 13.3051 7.59964 13.2528C7.59749 13.2206 7.58839 13.1893 7.57294 13.1609C7.55888 13.1352 7.54025 13.1136 7.5183 13.0991C7.48528 13.0773 7.43877 13.0717 7.38162 13.0944C6.77667 13.335 6.62748 13.384 6.35262 13.4741Z" fill="#212121"/>
</g>
<defs>
<clipPath id="clip0_70_55">
<rect width="24" height="24" fill="white"/>
</clipPath>
</defs>
</svg>
