<svg width="24" height="24" viewBox="0 0 24 24" fill="none" xmlns="http://www.w3.org/2000/svg">
<path d="M21.8475 16.1251L14.6775 11.3776C14.5128 11.2892 14.3211 11.2655 14.1399 11.3112C13.9587 11.3568 13.801 11.4684 13.6978 11.6242C13.5946 11.78 13.5532 11.9687 13.5818 12.1533C13.6104 12.338 13.707 12.5053 13.8525 12.6226L20.8275 17.2501H3.1725L12.4125 11.1226L12.465 11.0776C12.5038 11.0438 12.539 11.0061 12.57 10.9651C12.6023 10.9313 12.63 10.8935 12.6525 10.8526C12.6743 10.8094 12.6919 10.7641 12.705 10.7176C12.7085 10.6701 12.7085 10.6225 12.705 10.5751V9.75006C13.4012 9.70331 14.0503 9.38192 14.5095 8.85658C14.9688 8.33125 15.2005 7.645 15.1538 6.94881C15.107 6.25261 14.7856 5.6035 14.2603 5.14427C13.7349 4.68504 13.0487 4.45331 12.3525 4.50006C11.8681 4.49843 11.3928 4.63245 10.9806 4.88694C10.5684 5.14143 10.2356 5.50623 10.02 5.94006L9.78751 6.41256C9.73433 6.50093 9.69995 6.59931 9.68652 6.70157C9.67309 6.80383 9.6809 6.90776 9.70945 7.00686C9.738 7.10597 9.78668 7.19812 9.85246 7.27755C9.91823 7.35699 9.99968 7.42201 10.0917 7.46855C10.1838 7.51509 10.2844 7.54214 10.3874 7.54802C10.4903 7.5539 10.5934 7.53848 10.6902 7.50272C10.7869 7.46697 10.8752 7.41164 10.9496 7.34021C11.024 7.26878 11.0829 7.18277 11.1225 7.08756L11.3625 6.60756C11.4579 6.41715 11.6064 6.25845 11.7901 6.15064C11.9738 6.04283 12.1847 5.99053 12.3975 6.00006C12.6959 6.00006 12.982 6.11858 13.193 6.32956C13.404 6.54054 13.5225 6.82669 13.5225 7.12506C13.5225 7.42342 13.404 7.70957 13.193 7.92055C12.982 8.13153 12.6959 8.25006 12.3975 8.25006H12C11.8011 8.25006 11.6103 8.32907 11.4697 8.46973C11.329 8.61038 11.25 8.80114 11.25 9.00006V10.0951L2.1525 16.0951C1.89544 16.2551 1.69816 16.4953 1.59109 16.7786C1.48402 17.0618 1.4731 17.3725 1.56 17.6626C1.65766 17.98 1.85793 18.2561 2.1294 18.4475C2.40087 18.6389 2.72818 18.7347 3.06 18.7201H20.94C21.2718 18.7347 21.5991 18.6389 21.8706 18.4475C22.1421 18.2561 22.3423 17.98 22.44 17.6626C22.5197 17.3766 22.5051 17.0726 22.3984 16.7957C22.2917 16.5187 22.0985 16.2835 21.8475 16.1251Z" fill="black"/>
</svg>
