<svg width="24" height="24" viewBox="0 0 24 24" fill="none" xmlns="http://www.w3.org/2000/svg">
<path d="M19.4503 17.5388V12.4951C19.4501 12.4701 19.447 12.4453 19.4411 12.421C19.4376 12.34 19.4269 12.2594 19.409 12.1803L18.4715 8.3532C18.4021 8.05469 18.2334 7.78857 17.9931 7.59836C17.7528 7.40814 17.455 7.30508 17.1485 7.30601H10.2354C10.0676 7.30621 9.9068 7.37294 9.78817 7.49157C9.66954 7.61021 9.6028 7.77105 9.60261 7.93882C9.6031 8.49194 9.82301 9.02228 10.2141 9.41345C10.6051 9.80462 11.1354 10.0247 11.6885 10.0253H16.076L16.6055 12.1675H16.1015V11.4612C16.1015 11.3742 16.067 11.2907 16.0054 11.2292C15.9439 11.1676 15.8604 11.1331 15.7734 11.1331H12.8906C12.8036 11.1331 12.7201 11.1676 12.6586 11.2292C12.5971 11.2907 12.5625 11.3742 12.5625 11.4612V12.1675H11.4971C9.87872 12.1722 8.3033 12.6887 6.99635 13.6432C5.6894 14.5977 4.71793 15.9412 4.22098 17.4814C3.88185 17.4877 3.55797 17.6236 3.31586 17.8611C3.07375 18.0987 2.93178 18.4199 2.91908 18.7589C2.90639 19.0978 3.02394 19.4288 3.24761 19.6838C3.47127 19.9388 3.78408 20.0985 4.12179 20.1301C4.14254 20.1342 4.16364 20.1363 4.18479 20.1364H19.1224C19.1419 20.1362 19.1615 20.1341 19.1807 20.1303C19.487 20.1024 19.7741 19.969 19.993 19.7529C20.2118 19.5368 20.3489 19.2515 20.3808 18.9455C20.4126 18.6396 20.3373 18.3321 20.1676 18.0756C19.9979 17.8191 19.7445 17.6294 19.4505 17.539L19.4503 17.5388ZM16.6517 9.61901C16.6341 9.54779 16.5931 9.48453 16.5353 9.43933C16.4775 9.39412 16.4063 9.36959 16.3329 9.36963H11.6885C11.3136 9.3692 10.9537 9.22163 10.6864 8.95866C10.4191 8.69569 10.2656 8.33831 10.259 7.96338H17.1495C17.3084 7.96305 17.4626 8.01667 17.5871 8.11545C17.7115 8.21423 17.7987 8.35233 17.8344 8.50713L18.7312 12.1675H18.3281L18.0249 10.9409C18.004 10.8563 17.9504 10.7836 17.8759 10.7386C17.8013 10.6935 17.712 10.68 17.6274 10.7009C17.5429 10.7218 17.4701 10.7754 17.4251 10.8499C17.3801 10.9245 17.3665 11.0138 17.3874 11.0984L17.6516 12.1671H17.2817L16.6517 9.61901ZM13.2187 11.7893H15.4453V12.1675H13.2187V11.7893ZM11.4971 12.8238H18.794V17.4801H4.91248C5.39742 16.1207 6.29001 14.944 7.46846 14.1107C8.6469 13.2773 10.0538 12.8279 11.4971 12.8238ZM19.1126 19.4746H19.1023C19.0862 19.4755 19.0699 19.4776 19.049 19.4802H4.25623C4.23955 19.4778 4.22279 19.476 4.20598 19.4748H4.19604C4.02254 19.4625 3.86062 19.3832 3.74451 19.2537C3.62839 19.1242 3.56717 18.9546 3.57379 18.7808C3.58042 18.607 3.65436 18.4426 3.77999 18.3223C3.90563 18.202 4.07311 18.1353 4.24704 18.1362H19.05C19.067 18.1386 19.0841 18.1405 19.1015 18.1416H19.1203C19.2281 18.1514 19.3319 18.1873 19.4227 18.2461C19.5136 18.3049 19.5888 18.3848 19.6419 18.4791H17.3659C17.2788 18.4791 17.1954 18.5137 17.1338 18.5752C17.0723 18.6368 17.0377 18.7202 17.0377 18.8073C17.0377 18.8943 17.0723 18.9777 17.1338 19.0393C17.1954 19.1008 17.2788 19.1354 17.3659 19.1354H19.6425C19.5888 19.2311 19.5124 19.3121 19.42 19.3713C19.3276 19.4305 19.222 19.4658 19.1126 19.4746ZM4.35973 7.41213C4.44669 7.41203 4.53005 7.37742 4.59151 7.3159C4.65296 7.25437 4.68748 7.17097 4.68748 7.08401V6.58151C4.68748 6.49448 4.65291 6.41102 4.59137 6.34949C4.52984 6.28795 4.44638 6.25338 4.35936 6.25338C4.27233 6.25338 4.18887 6.28795 4.12734 6.34949C4.0658 6.41102 4.03123 6.49448 4.03123 6.58151V7.08401C4.03123 7.12713 4.03973 7.16983 4.05624 7.20966C4.07276 7.2495 4.09696 7.28569 4.12747 7.31616C4.15798 7.34663 4.19419 7.3708 4.23405 7.38726C4.2739 7.40373 4.31661 7.41218 4.35973 7.41213ZM3.24711 8.05957H3.74867C3.83569 8.05957 3.91915 8.025 3.98069 7.96346C4.04222 7.90193 4.07679 7.81847 4.07679 7.73145C4.07679 7.64442 4.04222 7.56096 3.98069 7.49943C3.91915 7.43789 3.83569 7.40332 3.74867 7.40332H3.24711C3.16008 7.40332 3.07662 7.43789 3.01509 7.49943C2.95355 7.56096 2.91898 7.64442 2.91898 7.73145C2.91898 7.81847 2.95355 7.90193 3.01509 7.96346C3.07662 8.025 3.16008 8.05957 3.24711 8.05957ZM4.39629 8.01438C4.30927 8.01438 4.22581 8.04895 4.16427 8.11049C4.10274 8.17202 4.06817 8.25548 4.06817 8.34251V8.84407C4.06817 8.93109 4.10274 9.01455 4.16427 9.07609C4.22581 9.13763 4.30927 9.1722 4.39629 9.1722C4.48332 9.1722 4.56678 9.13763 4.62831 9.07609C4.68985 9.01455 4.72442 8.93109 4.72442 8.84407V8.34251C4.72442 8.25548 4.68985 8.17202 4.62831 8.11049C4.56678 8.04895 4.48332 8.01438 4.39629 8.01438ZM5.00736 8.0232H5.50892C5.59594 8.0232 5.6794 7.98863 5.74094 7.92709C5.80247 7.86555 5.83704 7.78209 5.83704 7.69507C5.83704 7.60805 5.80247 7.52459 5.74094 7.46305C5.6794 7.40152 5.59594 7.36695 5.50892 7.36695H5.00736C4.92033 7.36695 4.83687 7.40152 4.77534 7.46305C4.7138 7.52459 4.67923 7.60805 4.67923 7.69507C4.67923 7.78209 4.7138 7.86555 4.77534 7.92709C4.83687 7.98863 4.92033 8.0232 5.00736 8.0232ZM19.6037 5.02207C19.6907 5.02207 19.7742 4.9875 19.8357 4.92596C19.8972 4.86443 19.9318 4.78097 19.9318 4.69395V4.19238C19.9318 4.10536 19.8972 4.0219 19.8357 3.96036C19.7742 3.89883 19.6907 3.86426 19.6037 3.86426C19.5166 3.86426 19.4332 3.89883 19.3716 3.96036C19.3101 4.0219 19.2755 4.10536 19.2755 4.19238V4.69395C19.2755 4.78097 19.3101 4.86443 19.3716 4.92596C19.4332 4.9875 19.5166 5.02207 19.6037 5.02207ZM18.491 5.66951H18.9926C19.0796 5.66951 19.1631 5.63494 19.2246 5.5734C19.2862 5.51187 19.3207 5.42841 19.3207 5.34138C19.3207 5.25436 19.2862 5.1709 19.2246 5.10936C19.1631 5.04783 19.0796 5.01326 18.9926 5.01326H18.491C18.404 5.01326 18.3206 5.04783 18.259 5.10936C18.1975 5.1709 18.1629 5.25436 18.1629 5.34138C18.1629 5.42841 18.1975 5.51187 18.259 5.5734C18.3206 5.63494 18.404 5.66951 18.491 5.66951ZM19.3125 5.95245V6.45401C19.3125 6.54103 19.347 6.62449 19.4086 6.68603C19.4701 6.74756 19.5536 6.78213 19.6406 6.78213C19.7276 6.78213 19.8111 6.74756 19.8726 6.68603C19.9342 6.62449 19.9687 6.54103 19.9687 6.45401V5.95245C19.9687 5.86542 19.9342 5.78196 19.8726 5.72043C19.8111 5.65889 19.7276 5.62432 19.6406 5.62432C19.5536 5.62432 19.4701 5.65889 19.4086 5.72043C19.347 5.78196 19.3125 5.86542 19.3125 5.95245ZM20.7529 4.97688H20.2513C20.1643 4.97688 20.0808 5.01145 20.0193 5.07299C19.9577 5.13452 19.9232 5.21798 19.9232 5.30501C19.9232 5.39203 19.9577 5.47549 20.0193 5.53703C20.0808 5.59856 20.1643 5.63313 20.2513 5.63313H20.7529C20.8399 5.63313 20.9233 5.59856 20.9849 5.53703C21.0464 5.47549 21.081 5.39203 21.081 5.30501C21.081 5.21798 21.0464 5.13452 20.9849 5.07299C20.9233 5.01145 20.8399 4.97688 20.7529 4.97688Z" fill="black"/>
</svg>
