<svg width="19" height="19" viewBox="0 0 19 19" fill="none" xmlns="http://www.w3.org/2000/svg">
<g clipPath="url(#clip0_68_9)">
<path d="M18.7402 12.0235C18.3959 12.0145 18.0571 12.1117 17.7698 12.3017C17.7407 11.6629 17.4668 11.0599 17.0049 10.6178C16.5429 10.1757 15.9285 9.92843 15.2891 9.92741H14.0469V7.70842H15.4756C15.5231 7.70842 15.5697 7.69541 15.6103 7.67081C15.6508 7.64621 15.6839 7.61096 15.7059 7.56889C15.7279 7.52682 15.7379 7.47953 15.7349 7.43217C15.7319 7.3848 15.7159 7.33917 15.6888 7.30022L14.6303 5.77977H15.4764C15.5239 5.77977 15.5704 5.76676 15.611 5.74216C15.6516 5.71756 15.6847 5.68232 15.7066 5.64024C15.7286 5.59817 15.7386 5.55089 15.7356 5.50352C15.7326 5.45615 15.7167 5.41052 15.6895 5.37157L14.6303 3.85097H15.4764C15.5239 3.85097 15.5704 3.83796 15.611 3.81337C15.6516 3.78877 15.6847 3.75352 15.7066 3.71145C15.7286 3.66938 15.7386 3.62209 15.7356 3.57472C15.7326 3.52736 15.7167 3.48172 15.6895 3.44277L13.3695 0.111388C13.3443 0.0789817 13.312 0.0527606 13.2751 0.0347242C13.2382 0.0166877 13.1977 0.0073121 13.1566 0.0073121C13.1155 0.0073121 13.075 0.0166877 13.0381 0.0347242C13.0013 0.0527606 12.969 0.0789817 12.9437 0.111388L10.6237 3.44277C10.5966 3.48174 10.5807 3.52738 10.5777 3.57474C10.5748 3.6221 10.5848 3.66938 10.6068 3.71143C10.6287 3.75349 10.6618 3.78873 10.7024 3.81333C10.743 3.83793 10.7895 3.85095 10.837 3.85097H11.6831L10.6237 5.37157C10.5966 5.41054 10.5807 5.45618 10.5777 5.50354C10.5748 5.5509 10.5848 5.59817 10.6068 5.64023C10.6287 5.68229 10.6618 5.71753 10.7024 5.74213C10.743 5.76672 10.7895 5.77974 10.837 5.77977H11.6831L10.6237 7.30036C10.5966 7.33934 10.5807 7.38498 10.5777 7.43234C10.5748 7.4797 10.5848 7.52697 10.6068 7.56903C10.6287 7.61108 10.6618 7.64632 10.7024 7.67092C10.743 7.69552 10.7895 7.70854 10.837 7.70857H12.2657V9.92741H6.73431V7.70857H8.16302C8.21049 7.70856 8.25704 7.69556 8.29763 7.67096C8.33822 7.64636 8.3713 7.61111 8.39326 7.56904C8.41523 7.52697 8.42526 7.47968 8.42224 7.43232C8.41923 7.38495 8.4033 7.33931 8.37618 7.30036L7.31797 5.77977H8.16406C8.21152 5.77977 8.25808 5.76676 8.29867 5.74216C8.33926 5.71756 8.37234 5.68232 8.3943 5.64024C8.41627 5.59817 8.4263 5.55089 8.42328 5.50352C8.42027 5.45615 8.40434 5.41052 8.37722 5.37157L7.31797 3.85097H8.16406C8.21152 3.85097 8.25808 3.83796 8.29867 3.81337C8.33926 3.78877 8.37234 3.75352 8.3943 3.71145C8.41627 3.66938 8.4263 3.62209 8.42328 3.57472C8.42027 3.52736 8.40434 3.48172 8.37722 3.44277L6.05625 0.111388C6.03106 0.0788463 5.99875 0.0525043 5.9618 0.0343814C5.92485 0.0162585 5.88425 0.00683594 5.84309 0.00683594C5.80194 0.00683594 5.76133 0.0162585 5.72439 0.0343814C5.68744 0.0525043 5.65513 0.0788463 5.62994 0.111388L3.3112 3.44277C3.28402 3.48171 3.26804 3.52735 3.265 3.57474C3.26196 3.62213 3.27198 3.66944 3.29396 3.71153C3.31594 3.75362 3.34904 3.78887 3.38966 3.81346C3.43028 3.83805 3.47687 3.85102 3.52435 3.85097H4.37045L3.3112 5.37157C3.28402 5.41051 3.26804 5.45615 3.265 5.50354C3.26196 5.55092 3.27198 5.59823 3.29396 5.64032C3.31594 5.68242 3.34904 5.71767 3.38966 5.74226C3.43028 5.76684 3.47687 5.77982 3.52435 5.77977H4.37045L3.3112 7.30036C3.28402 7.3393 3.26804 7.38495 3.265 7.43233C3.26196 7.47972 3.27198 7.52703 3.29396 7.56912C3.31594 7.61121 3.34904 7.64647 3.38966 7.67105C3.43028 7.69564 3.47687 7.70862 3.52435 7.70857H4.95306V9.92741H3.71094C3.07142 9.92848 2.45688 10.1758 1.99493 10.6181C1.53299 11.0603 1.25914 11.6635 1.23025 12.3024C0.943039 12.1121 0.604216 12.0147 0.259766 12.0235C0.190884 12.0235 0.124834 12.0509 0.076127 12.0996C0.02742 12.1483 3.93275e-05 12.2144 0 12.2833L0 18.7403C3.93275e-05 18.8092 0.02742 18.8752 0.076127 18.9239C0.124834 18.9726 0.190884 19 0.259766 19.0001H18.7402C18.8091 19.0001 18.8752 18.9727 18.9239 18.924C18.9726 18.8753 19 18.8092 19 18.7403V12.2833C19 12.2144 18.9726 12.1483 18.9239 12.0996C18.8752 12.0509 18.8091 12.0235 18.7402 12.0235ZM12.393 5.66844C12.4201 5.62948 12.436 5.58385 12.439 5.53651C12.442 5.48916 12.4319 5.4419 12.41 5.39985C12.388 5.35779 12.355 5.32255 12.3144 5.29794C12.2739 5.27333 12.2273 5.2603 12.1799 5.26024H11.3338L12.393 3.73965C12.4201 3.70068 12.436 3.65506 12.439 3.60771C12.442 3.56036 12.4319 3.5131 12.41 3.47105C12.388 3.429 12.355 3.39376 12.3144 3.36915C12.2739 3.34454 12.2273 3.3315 12.1799 3.33144H11.3338L13.1563 0.71449L14.9782 3.33144H14.1321C14.0847 3.33147 14.0381 3.34449 13.9976 3.36909C13.957 3.39369 13.9239 3.42893 13.9019 3.47098C13.88 3.51304 13.8699 3.56031 13.8729 3.60767C13.8759 3.65503 13.8918 3.70067 13.9188 3.73965L14.9775 5.26024H14.1314C14.0839 5.26027 14.0374 5.27329 13.9968 5.29789C13.9562 5.32248 13.9232 5.35772 13.9012 5.39978C13.8792 5.44184 13.8692 5.48911 13.8722 5.53647C13.8751 5.58383 13.891 5.62947 13.9181 5.66844L14.9768 7.18889H11.3342L12.393 5.66844ZM12.7852 7.70842H13.5274V9.92741H12.7852V7.70842ZM5.08027 5.66844C5.10739 5.62949 5.12333 5.58386 5.12634 5.53649C5.12935 5.48912 5.11933 5.44184 5.09736 5.39977C5.07539 5.3577 5.04231 5.32245 5.00172 5.29785C4.96113 5.27325 4.91458 5.26024 4.86712 5.26024H4.02102L5.07968 3.73965C5.1068 3.7007 5.12273 3.65506 5.12574 3.60769C5.12876 3.56033 5.11873 3.51304 5.09677 3.47097C5.0748 3.4289 5.04172 3.39365 5.00113 3.36905C4.96054 3.34445 4.91399 3.33145 4.86652 3.33144H4.02043L5.84369 0.71449L7.66561 3.33144H6.82026C6.7728 3.33145 6.72624 3.34445 6.68565 3.36905C6.64506 3.39365 6.61199 3.4289 6.59002 3.47097C6.56805 3.51304 6.55802 3.56033 6.56104 3.60769C6.56405 3.65506 6.57998 3.7007 6.6071 3.73965L7.66561 5.26024H6.82026C6.7728 5.26024 6.72624 5.27325 6.68565 5.29785C6.64506 5.32245 6.61199 5.3577 6.59002 5.39977C6.56805 5.44184 6.55802 5.48912 6.56104 5.53649C6.56405 5.58386 6.57998 5.62949 6.6071 5.66844L7.66561 7.18904H4.02162L5.08027 5.66844ZM5.47259 7.70857H6.21478V9.92741H5.47259V7.70857ZM1.74414 12.4137C1.74473 11.8923 1.95213 11.3924 2.32085 11.0237C2.68957 10.6549 3.18949 10.4475 3.71094 10.4469H15.2891C15.8105 10.4475 16.3104 10.6549 16.6791 11.0237C17.0479 11.3924 17.2553 11.8923 17.2559 12.4137V12.5715C17.137 12.6035 17.0142 12.6189 16.8911 12.6172C16.6082 12.6241 16.3315 12.5338 16.107 12.3615C15.7955 12.1415 15.4236 12.0234 15.0424 12.0234C14.6611 12.0234 14.2892 12.1415 13.9778 12.3615C13.7503 12.5276 13.4759 12.6171 13.1942 12.6171C12.9125 12.6171 12.6381 12.5276 12.4106 12.3615C12.0992 12.1415 11.7274 12.0234 11.3461 12.0234C10.9649 12.0234 10.593 12.1415 10.2817 12.3615C10.0543 12.5276 9.77996 12.6171 9.49837 12.6171C9.21677 12.6171 8.94246 12.5276 8.71506 12.3615C8.4038 12.1415 8.03201 12.0233 7.65084 12.0233C7.26967 12.0233 6.89788 12.1415 6.58662 12.3615C6.36255 12.5336 6.08635 12.6238 5.80391 12.6172C5.52122 12.6241 5.24473 12.5339 5.02045 12.3616C4.71214 12.1351 4.33782 12.0162 3.95527 12.0235C3.57305 12.0164 3.19911 12.1352 2.89112 12.3616C2.66687 12.5338 2.39044 12.624 2.10781 12.6172C1.98511 12.6189 1.86278 12.6036 1.74429 12.5717L1.74414 12.4137ZM0.519531 12.564C0.709091 12.6031 0.887814 12.6832 1.04322 12.7986C1.35665 13.0145 1.72725 13.1322 2.10781 13.1368C2.49007 13.1439 2.86407 13.0251 3.17211 12.7986C3.39629 12.6265 3.67268 12.5362 3.95527 12.543C4.23796 12.5362 4.51446 12.6264 4.73872 12.7986C5.04704 13.0252 5.42135 13.144 5.80391 13.1368C6.18617 13.1439 6.56016 13.0251 6.8682 12.7986C7.0956 12.6326 7.36991 12.543 7.65151 12.543C7.9331 12.543 8.20741 12.6326 8.43481 12.7986C8.74607 13.0187 9.11787 13.1368 9.49903 13.1368C9.8802 13.1368 10.252 13.0187 10.5633 12.7986C10.7908 12.6325 11.0652 12.543 11.3469 12.543C11.6286 12.543 11.903 12.6325 12.1305 12.7986C12.4419 13.0186 12.8137 13.1367 13.195 13.1367C13.5762 13.1367 13.9481 13.0186 14.2595 12.7986C14.487 12.6325 14.7615 12.543 15.0433 12.543C15.325 12.543 15.5995 12.6325 15.827 12.7986C16.1353 13.025 16.5095 13.1437 16.8919 13.1366C17.2725 13.132 17.6432 13.0144 17.9568 12.7986C18.1124 12.6831 18.2914 12.6029 18.4812 12.5638V14.9329C18.1917 14.9775 17.9163 15.0879 17.6761 15.2554C17.4484 15.4216 17.1738 15.5112 16.8919 15.5112C16.61 15.5112 16.3354 15.4216 16.1077 15.2554C15.7963 15.0355 15.4244 14.9174 15.0431 14.9174C14.6618 14.9174 14.2899 15.0355 13.9785 15.2554C13.751 15.4215 13.4766 15.511 13.1949 15.511C12.9132 15.511 12.6388 15.4215 12.4113 15.2554C12.1 15.0354 11.7281 14.9173 11.3469 14.9173C10.9656 14.9173 10.5938 15.0354 10.2824 15.2554C10.0581 15.4276 9.78165 15.5179 9.49896 15.511C9.31279 15.5174 9.1278 15.4791 8.95954 15.3991C8.87552 15.3561 8.79413 15.3081 8.7158 15.2554C8.40455 15.0354 8.03275 14.9173 7.65158 14.9173C7.27042 14.9173 6.89862 15.0354 6.58736 15.2554C6.36317 15.4279 6.08668 15.5183 5.80391 15.5118C5.52122 15.5186 5.24473 15.4284 5.02045 15.2562C4.71234 15.0297 4.33831 14.9109 3.95601 14.918C3.5738 14.9109 3.19986 15.0297 2.89186 15.2562C2.66741 15.4285 2.3907 15.5187 2.10781 15.5118C1.82513 15.5186 1.54863 15.4284 1.32436 15.2562C1.0843 15.0883 0.80898 14.9777 0.519531 14.9329V12.564ZM0.519531 18.4805V15.4588C0.70805 15.501 0.886148 15.5807 1.04322 15.6932C1.35137 15.9196 1.72546 16.0385 2.10781 16.0313C2.49007 16.0385 2.86407 15.9196 3.17211 15.6932C3.39629 15.521 3.67268 15.4308 3.95527 15.4376C4.23796 15.4307 4.51446 15.5209 4.73872 15.6932C5.04704 15.9198 5.42135 16.0386 5.80391 16.0313C6.18617 16.0385 6.56016 15.9196 6.8682 15.6932C7.0956 15.5271 7.36991 15.4376 7.65151 15.4376C7.9331 15.4376 8.20741 15.5271 8.43481 15.6932C8.74261 15.9195 9.11626 16.0383 9.49822 16.0313C9.84238 16.0403 10.181 15.9432 10.4681 15.7533C10.5003 15.7335 10.5317 15.7135 10.5625 15.6932C10.79 15.527 11.0644 15.4375 11.3461 15.4375C11.6278 15.4375 11.9022 15.527 12.1297 15.6932C12.4411 15.9131 12.813 16.0312 13.1942 16.0312C13.5755 16.0312 13.9474 15.9131 14.2588 15.6932C14.4863 15.527 14.7608 15.4375 15.0425 15.4375C15.3243 15.4375 15.5987 15.527 15.8263 15.6932C16.1378 15.9131 16.5098 16.0312 16.8911 16.0312C17.2725 16.0312 17.6445 15.9131 17.956 15.6932C18.1134 15.5806 18.2917 15.5008 18.4805 15.4585V18.4805H0.519531Z" fill="black"/>
</g>
<defs>
<clipPath id="clip0_68_9">
<rect width="19" height="19" fill="white"/>
</clipPath>
</defs>
</svg>
