<svg width="24" height="24" viewBox="0 0 24 24" fill="none" xmlns="http://www.w3.org/2000/svg">
<path d="M12.7527 8.20888V6.58213C12.7526 6.49512 12.7181 6.41169 12.6565 6.35017C12.595 6.28864 12.5116 6.25406 12.4246 6.25401H11.5808V5.31651H12.4246C12.5109 5.31646 12.5936 5.2824 12.655 5.22171C12.7163 5.16102 12.7512 5.07859 12.7521 4.99232H14.7353L15.9728 6.22982C16.0343 6.29137 16.1178 6.32596 16.2048 6.32601H17.4644C17.5293 6.32607 17.5928 6.30686 17.6468 6.27081C17.7007 6.23477 17.7428 6.18352 17.7677 6.12355C17.7925 6.06357 17.799 5.99758 17.7863 5.93392C17.7736 5.87026 17.7423 5.8118 17.6963 5.76595L15.4722 3.54238C15.4106 3.48086 15.3271 3.44627 15.2401 3.4462H12.7323C12.6796 3.14155 12.5211 2.86524 12.2848 2.66591C12.0484 2.46658 11.7494 2.357 11.4402 2.35645H9.5652C9.21722 2.35684 8.88361 2.49525 8.63756 2.74131C8.3915 2.98736 8.2531 3.32097 8.2527 3.66895V4.98838C8.2527 5.07541 8.28727 5.15887 8.3488 5.2204C8.41034 5.28194 8.4938 5.31651 8.58082 5.31651H9.42457V6.25401H8.58082C8.4938 6.25401 8.41034 6.28858 8.3488 6.35011C8.28727 6.41165 8.2527 6.49511 8.2527 6.58213V8.20813C7.40871 8.29027 6.62518 8.68253 6.0537 9.30901C5.48222 9.93549 5.16341 10.7517 5.15895 11.5996C5.15895 11.6045 5.15764 11.609 5.15764 11.6139V11.8134C4.85436 11.8444 4.57337 11.9868 4.36906 12.213C4.16474 12.4393 4.05164 12.7333 4.05164 13.0381C4.05164 13.343 4.16474 13.637 4.36906 13.8632C4.57337 14.0895 4.85436 14.2319 5.15764 14.2629V20.1759C5.15803 20.5656 5.31304 20.9393 5.58863 21.2149C5.86422 21.4905 6.23789 21.6455 6.62764 21.6459H14.3776C14.7671 21.6452 15.1404 21.49 15.4156 21.2145C15.6908 20.9389 15.8455 20.5654 15.8457 20.1759V11.6143C15.8446 10.764 15.5275 9.94456 14.9558 9.31518C14.3842 8.6858 13.5989 8.29148 12.7527 8.20888ZM15.0168 18.6928C14.9451 18.4279 14.7882 18.194 14.5704 18.0272C14.3525 17.8604 14.0857 17.77 13.8113 17.77C13.5369 17.77 13.2702 17.8604 13.0523 18.0272C12.8344 18.194 12.6775 18.4279 12.6059 18.6928H5.81445V14.1446C6.02361 14.0456 6.20028 13.8891 6.32379 13.6935C6.44731 13.4978 6.51257 13.271 6.51195 13.0396C6.51034 12.8121 6.44612 12.5894 6.32633 12.3959C6.20654 12.2024 6.0358 12.0456 5.83282 11.9428H15.1891V18.6928H15.0168ZM14.4057 19.0209C14.4057 19.1384 14.3708 19.2534 14.3055 19.3511C14.2402 19.4488 14.1474 19.525 14.0388 19.57C13.9302 19.615 13.8107 19.6268 13.6954 19.6038C13.5801 19.5809 13.4742 19.5243 13.391 19.4412C13.3079 19.358 13.2513 19.2521 13.2284 19.1368C13.2054 19.0215 13.2172 18.902 13.2622 18.7934C13.3072 18.6848 13.3834 18.592 13.4811 18.5267C13.5789 18.4614 13.6938 18.4265 13.8113 18.4265C13.9689 18.4267 14.12 18.4894 14.2314 18.6008C14.3428 18.7122 14.4055 18.8633 14.4057 19.0209ZM16.6714 5.66976H16.3398L15.1032 4.43226C15.0416 4.3707 14.9581 4.33611 14.8711 4.33607H12.7523V4.1017H15.1043L16.6714 5.66976ZM8.90895 3.66895C8.90895 3.4949 8.97809 3.32798 9.10116 3.20491C9.22423 3.08184 9.39115 3.0127 9.5652 3.0127H11.4402C11.6142 3.0127 11.7812 3.08184 11.9042 3.20491C12.0273 3.32798 12.0964 3.4949 12.0964 3.66895V4.66101H8.90895V3.66895ZM10.0808 5.31726H10.9246V6.25476H10.0808V5.31726ZM12.0964 6.91101V8.19238H8.90895V6.91101H12.0964ZM8.58082 8.84863H12.4246C13.1008 8.84965 13.7532 9.09813 14.2588 9.54718C14.7643 9.99623 15.088 10.6148 15.1688 11.2861H5.83639C5.91718 10.6148 6.24093 9.99617 6.74652 9.54712C7.25212 9.09806 7.9046 8.84961 8.58082 8.84863ZM4.7082 13.0396C4.7081 12.8873 4.76846 12.7411 4.87602 12.6332C4.98359 12.5252 5.12958 12.4644 5.28195 12.464C5.32622 12.4635 5.37036 12.469 5.4132 12.4801C5.53994 12.5098 5.65282 12.5817 5.73331 12.684C5.8138 12.7863 5.8571 12.9129 5.85612 13.0431C5.85514 13.1733 5.80993 13.2992 5.72791 13.4003C5.64589 13.5014 5.53193 13.5716 5.40476 13.5993C5.36478 13.6092 5.3237 13.614 5.28251 13.6134C5.13029 13.6134 4.9843 13.553 4.87661 13.4454C4.76892 13.3378 4.70835 13.1919 4.7082 13.0396ZM14.3776 20.9896H6.6282C6.41245 20.9894 6.20562 20.9036 6.05306 20.751C5.90051 20.5985 5.8147 20.3916 5.81445 20.1759V19.349H12.6059C12.6775 19.6139 12.8344 19.8478 13.0523 20.0146C13.2702 20.1814 13.5369 20.2717 13.8113 20.2717C14.0857 20.2717 14.3525 20.1814 14.5704 20.0146C14.7882 19.8478 14.9451 19.6139 15.0168 19.349H15.1894V20.1759C15.1895 20.3914 15.104 20.5981 14.9518 20.7506C14.7996 20.9032 14.5931 20.9891 14.3776 20.9896Z" fill="black"/>
<path d="M10.5119 12.0234H10.5027C9.63354 12.0287 8.80172 12.3773 8.18857 12.9933C7.57541 13.6093 7.23065 14.4427 7.22943 15.3118C7.22822 16.181 7.57066 17.0154 8.18209 17.6331C8.79353 18.2508 9.62437 18.6017 10.4935 18.6094H10.503C11.3722 18.6041 12.204 18.2554 12.8171 17.6394C13.4302 17.0234 13.7749 16.1899 13.7761 15.3208C13.7772 14.4516 13.4347 13.6173 12.8233 12.9996C12.2118 12.3819 11.381 12.0311 10.5119 12.0234ZM12.3619 17.1861C12.1178 17.4301 11.828 17.6234 11.5089 17.7551C11.1899 17.8867 10.848 17.954 10.5029 17.9531H10.4954C9.79986 17.9464 9.1352 17.6651 8.64612 17.1706C8.15705 16.676 7.88317 16.0083 7.88413 15.3128C7.8851 14.6173 8.16083 13.9503 8.65127 13.4571C9.14172 12.9639 9.80716 12.6845 10.5027 12.6797H10.5102C11.0316 12.6812 11.5409 12.8373 11.9737 13.1283C12.4065 13.4192 12.7432 13.832 12.9414 14.3143C13.1396 14.7966 13.1904 15.3269 13.0872 15.8381C12.9841 16.3492 12.7317 16.8183 12.3619 17.1861Z" fill="black"/>
<path d="M10.5019 15.0532C10.2891 15.0531 10.0811 15.1162 9.9041 15.2344C9.72715 15.3526 9.58922 15.5206 9.50776 15.7172C9.4263 15.9138 9.40497 16.1301 9.44646 16.3388C9.48795 16.5475 9.59041 16.7392 9.74086 16.8897C9.89132 17.0402 10.083 17.1427 10.2917 17.1842C10.5004 17.2257 10.7168 17.2045 10.9134 17.123C11.11 17.0416 11.278 16.9037 11.3962 16.7268C11.5145 16.5498 11.5776 16.3418 11.5776 16.129C11.5772 15.8438 11.4638 15.5704 11.2621 15.3687C11.0605 15.167 10.7871 15.0536 10.5019 15.0532ZM10.5019 16.5487C10.4189 16.5487 10.3377 16.5241 10.2687 16.478C10.1997 16.4319 10.1458 16.3664 10.1141 16.2897C10.0823 16.2131 10.0739 16.1287 10.0901 16.0473C10.1063 15.9659 10.1462 15.8911 10.2049 15.8324C10.2636 15.7737 10.3383 15.7337 10.4198 15.7175C10.5012 15.7013 10.5855 15.7096 10.6622 15.7413C10.7389 15.7731 10.8045 15.8269 10.8506 15.8959C10.8967 15.9649 10.9213 16.046 10.9213 16.129C10.9212 16.2402 10.8769 16.3469 10.7983 16.4255C10.7197 16.5042 10.6131 16.5485 10.5019 16.5487ZM10.5017 14.3847C10.5666 14.3847 10.63 14.3655 10.684 14.3294C10.7379 14.2934 10.78 14.2421 10.8048 14.1822C10.8297 14.1222 10.8362 14.0562 10.8235 13.9926C10.8108 13.9289 10.7796 13.8705 10.7337 13.8246C10.6878 13.7787 10.6294 13.7474 10.5657 13.7348C10.5021 13.7221 10.4361 13.7286 10.3761 13.7534C10.3162 13.7783 10.2649 13.8203 10.2289 13.8743C10.1928 13.9283 10.1736 13.9917 10.1736 14.0566C10.1736 14.1436 10.2081 14.2271 10.2697 14.2886C10.3312 14.3501 10.4147 14.3847 10.5017 14.3847ZM9.02344 14.2658C8.95854 14.2658 8.8951 14.2851 8.84114 14.3211C8.78718 14.3572 8.74512 14.4084 8.72029 14.4684C8.69545 14.5284 8.68896 14.5943 8.70162 14.658C8.71428 14.7216 8.74553 14.7801 8.79142 14.826C8.83731 14.8719 8.89577 14.9031 8.95942 14.9158C9.02307 14.9284 9.08905 14.922 9.14901 14.8971C9.20896 14.8723 9.26021 14.8302 9.29626 14.7763C9.33232 14.7223 9.35156 14.6589 9.35156 14.594C9.35156 14.5069 9.31699 14.4235 9.25546 14.3619C9.19392 14.3004 9.11046 14.2658 9.02344 14.2658ZM11.9799 14.2658C11.915 14.2658 11.8516 14.2851 11.7976 14.3211C11.7437 14.3572 11.7016 14.4084 11.6768 14.4684C11.652 14.5284 11.6455 14.5943 11.6581 14.658C11.6708 14.7216 11.702 14.7801 11.7479 14.826C11.7938 14.8719 11.8523 14.9031 11.9159 14.9158C11.9796 14.9284 12.0455 14.922 12.1055 14.8971C12.1655 14.8723 12.2167 14.8302 12.2528 14.7763C12.2888 14.7223 12.3081 14.6589 12.3081 14.594C12.3081 14.5069 12.2735 14.4235 12.212 14.3619C12.1504 14.3004 12.067 14.2658 11.9799 14.2658ZM17.4484 14.9622C17.4484 15.2095 17.5217 15.4512 17.6591 15.6568C17.7965 15.8624 17.9917 16.0227 18.2202 16.1173C18.4486 16.2119 18.7 16.2367 18.9425 16.1884C19.1851 16.1402 19.4078 16.0211 19.5827 15.8463C19.7575 15.6714 19.8766 15.4487 19.9249 15.2061C19.9731 14.9636 19.9483 14.7122 19.8537 14.4838C19.7591 14.2553 19.5988 14.0601 19.3932 13.9227C19.1876 13.7853 18.9459 13.712 18.6986 13.712C18.3671 13.7123 18.0493 13.8441 17.8149 14.0785C17.5806 14.3129 17.4487 14.6307 17.4484 14.9622ZM18.6986 14.3682C18.8161 14.3682 18.931 14.4031 19.0286 14.4683C19.1263 14.5336 19.2025 14.6264 19.2474 14.7349C19.2924 14.8434 19.3041 14.9629 19.2812 15.0781C19.2583 15.1933 19.2017 15.2992 19.1186 15.3822C19.0356 15.4653 18.9297 15.5219 18.8145 15.5448C18.6993 15.5677 18.5799 15.556 18.4713 15.511C18.3628 15.466 18.27 15.3899 18.2047 15.2922C18.1395 15.1945 18.1046 15.0797 18.1046 14.9622C18.105 14.8048 18.1677 14.654 18.279 14.5428C18.3904 14.4315 18.5412 14.369 18.6986 14.3688V14.3682ZM18.183 8.95997C18.183 8.45953 17.5344 7.51172 17.3357 7.23309C17.3053 7.19059 17.2652 7.15596 17.2187 7.13206C17.1723 7.10817 17.1208 7.0957 17.0685 7.0957C17.0162 7.0957 16.9647 7.10817 16.9183 7.13206C16.8718 7.15596 16.8317 7.19059 16.8013 7.23309C16.6028 7.51172 15.954 8.45953 15.954 8.95997C15.954 9.25555 16.0714 9.53903 16.2804 9.74804C16.4894 9.95705 16.7729 10.0745 17.0685 10.0745C17.3641 10.0745 17.6476 9.95705 17.8566 9.74804C18.0656 9.53903 18.183 9.25555 18.183 8.95997ZM16.6102 8.95997C16.6102 8.81372 16.8178 8.41209 17.0685 8.01366C17.319 8.41209 17.5268 8.81391 17.5268 8.95997C17.5268 9.0815 17.4785 9.19806 17.3925 9.284C17.3066 9.36994 17.19 9.41822 17.0685 9.41822C16.947 9.41822 16.8304 9.36994 16.7445 9.284C16.6585 9.19806 16.6102 9.0815 16.6102 8.95997ZM18.1958 16.6763C17.849 16.6763 17.5101 16.7792 17.2218 16.9718C16.9335 17.1644 16.7088 17.4382 16.5761 17.7586C16.4434 18.0789 16.4087 18.4314 16.4763 18.7715C16.544 19.1116 16.7109 19.4239 16.9561 19.6691C17.2013 19.9143 17.5137 20.0813 17.8537 20.1489C18.1938 20.2166 18.5463 20.1818 18.8666 20.0491C19.187 19.9165 19.4608 19.6918 19.6534 19.4035C19.8461 19.1152 19.9489 18.7762 19.9489 18.4295C19.9483 17.9647 19.7635 17.5191 19.4348 17.1904C19.1061 16.8618 18.6605 16.6769 18.1958 16.6763ZM18.1958 19.5263C17.9788 19.5263 17.7667 19.462 17.5864 19.3415C17.406 19.221 17.2654 19.0497 17.1824 18.8492C17.0994 18.6488 17.0776 18.4283 17.12 18.2155C17.1623 18.0027 17.2667 17.8073 17.4201 17.6539C17.5735 17.5005 17.769 17.396 17.9818 17.3537C18.1945 17.3113 18.4151 17.3331 18.6155 17.4161C18.8159 17.4991 18.9872 17.6397 19.1078 17.8201C19.2283 18.0005 19.2926 18.2125 19.2926 18.4295C19.2923 18.7203 19.1767 18.9991 18.971 19.2047C18.7654 19.4104 18.4866 19.526 18.1958 19.5263Z" fill="black"/>
</svg>
