<svg width="24" height="24" viewBox="0 0 24 24" fill="none" xmlns="http://www.w3.org/2000/svg">
<g clipPath="url(#clip0_70_45)">
<path d="M18.9563 1.39273C19.0609 1.39273 19.1613 1.35115 19.2353 1.27714C19.3093 1.20313 19.3509 1.10275 19.3509 0.99809V0.394636C19.3509 0.289972 19.3093 0.189595 19.2353 0.115586C19.1613 0.0415777 19.0609 0 18.9563 0C18.8516 0 18.7512 0.0415777 18.6772 0.115586C18.6032 0.189595 18.5616 0.289972 18.5616 0.394636V0.997865C18.5616 1.04971 18.5718 1.10105 18.5916 1.14895C18.6114 1.19686 18.6405 1.24039 18.6771 1.27706C18.7138 1.31373 18.7573 1.34282 18.8052 1.36266C18.8531 1.38251 18.9044 1.39273 18.9563 1.39273ZM17.6179 2.1714H18.2213C18.326 2.1714 18.4264 2.12982 18.5004 2.05581C18.5744 1.9818 18.616 1.88143 18.616 1.77676C18.616 1.6721 18.5744 1.57172 18.5004 1.49771C18.4264 1.4237 18.326 1.38213 18.2213 1.38213H17.6179C17.5132 1.38213 17.4129 1.4237 17.3388 1.49771C17.2648 1.57172 17.2233 1.6721 17.2233 1.77676C17.2233 1.88143 17.2648 1.9818 17.3388 2.05581C17.4129 2.12982 17.5132 2.1714 17.6179 2.1714ZM19 3.50955C19.1047 3.50955 19.2051 3.46797 19.2791 3.39397C19.3531 3.31996 19.3947 3.21958 19.3947 3.11492V2.51169C19.3947 2.40702 19.3531 2.30665 19.2791 2.23264C19.2051 2.15863 19.1047 2.11705 19 2.11705C18.8954 2.11705 18.795 2.15863 18.721 2.23264C18.647 2.30665 18.6054 2.40702 18.6054 2.51169V3.11492C18.6054 3.21958 18.647 3.31996 18.721 3.39397C18.795 3.46797 18.8954 3.50955 19 3.50955ZM19.7349 2.12742H20.337C20.4417 2.12742 20.5421 2.08585 20.6161 2.01184C20.6901 1.93783 20.7317 1.83745 20.7317 1.73279C20.7317 1.62813 20.6901 1.52775 20.6161 1.45374C20.5421 1.37973 20.4417 1.33815 20.337 1.33815H19.7349C19.6303 1.33815 19.5299 1.37973 19.4559 1.45374C19.3819 1.52775 19.3403 1.62813 19.3403 1.73279C19.3403 1.83745 19.3819 1.93783 19.4559 2.01184C19.5299 2.08585 19.6303 2.12742 19.7349 2.12742ZM15.6887 6.91965C15.9228 6.91965 16.1517 6.85022 16.3464 6.72013C16.5411 6.59004 16.6929 6.40514 16.7825 6.18881C16.8721 5.97248 16.8955 5.73443 16.8498 5.50478C16.8042 5.27512 16.6914 5.06417 16.5258 4.8986C16.3603 4.73303 16.1493 4.62027 15.9197 4.57459C15.69 4.52891 15.452 4.55235 15.2356 4.64196C15.0193 4.73157 14.8344 4.88331 14.7043 5.078C14.5742 5.2727 14.5048 5.50159 14.5048 5.73575C14.5051 6.04963 14.63 6.35055 14.8519 6.5725C15.0739 6.79445 15.3748 6.9193 15.6887 6.91965ZM15.6887 5.34111C15.7667 5.34111 15.843 5.36426 15.9079 5.40762C15.9728 5.45098 16.0234 5.51262 16.0533 5.58473C16.0832 5.65684 16.091 5.73619 16.0757 5.81274C16.0605 5.88929 16.0229 5.95961 15.9677 6.0148C15.9125 6.06999 15.8422 6.10757 15.7657 6.1228C15.6891 6.13803 15.6098 6.13021 15.5377 6.10034C15.4656 6.07048 15.4039 6.01989 15.3606 5.955C15.3172 5.8901 15.2941 5.8138 15.2941 5.73575C15.2942 5.63112 15.3358 5.53081 15.4098 5.45683C15.4838 5.38285 15.5841 5.34123 15.6887 5.34111ZM13.0532 2.93857C13.2874 2.93857 13.5162 2.86914 13.7109 2.73905C13.9056 2.60896 14.0574 2.42406 14.147 2.20772C14.2366 1.99139 14.26 1.75335 14.2144 1.52369C14.1687 1.29404 14.0559 1.08309 13.8903 0.917514C13.7248 0.751942 13.5138 0.639186 13.2842 0.593505C13.0545 0.547823 12.8165 0.571269 12.6001 0.660876C12.3838 0.750483 12.1989 0.902227 12.0688 1.09692C11.9387 1.29161 11.8693 1.52051 11.8693 1.75466C11.8696 2.06854 11.9945 2.36947 12.2164 2.59142C12.4384 2.81336 12.7393 2.93821 13.0532 2.93857ZM13.0532 1.36003C13.1312 1.36003 13.2075 1.38317 13.2724 1.42654C13.3373 1.4699 13.3879 1.53153 13.4178 1.60364C13.4477 1.67575 13.4555 1.7551 13.4402 1.83165C13.425 1.9082 13.3874 1.97852 13.3322 2.03371C13.2771 2.0889 13.2067 2.12649 13.1302 2.14172C13.0536 2.15694 12.9743 2.14913 12.9022 2.11926C12.8301 2.08939 12.7684 2.03881 12.7251 1.97391C12.6817 1.90901 12.6586 1.83271 12.6586 1.75466C12.6587 1.65004 12.7003 1.54973 12.7743 1.47575C12.8483 1.40176 12.9486 1.36015 13.0532 1.36003ZM23.168 11.2539H21.2657C21.186 10.6546 20.9272 10.0935 20.523 9.64391C20.1189 9.19436 19.5884 8.87741 19.001 8.73464C18.4136 8.59187 17.7967 8.62993 17.2313 8.84383C16.6659 9.05773 16.1784 9.43749 15.8326 9.93332C15.6006 9.68951 15.3215 9.49545 15.0121 9.36294C14.7028 9.23043 14.3698 9.16225 14.0332 9.16254C13.793 9.16226 13.554 9.19736 13.324 9.26672C12.8216 8.43568 12.0691 7.78495 11.1742 7.40773C10.2794 7.0305 9.2881 6.94613 8.34237 7.1667C7.39664 7.38727 6.54496 7.90146 5.90932 8.63564C5.27368 9.36982 4.88667 10.2863 4.80373 11.2539H4.51689C4.09076 11.2539 3.68208 11.4232 3.38076 11.7245C3.07944 12.0258 2.91016 12.4345 2.91016 12.8606C2.91016 13.2867 3.07944 13.6954 3.38076 13.9967C3.68208 14.2981 4.09076 14.4673 4.51689 14.4673H4.87612L6.52615 20.5898C6.61787 20.9303 6.81739 21.2318 7.09484 21.4493C7.3723 21.6669 7.71275 21.7887 8.06523 21.7965H19.6197C19.974 21.7881 20.316 21.6647 20.5941 21.4451C20.8723 21.2255 21.0715 20.9215 21.1619 20.5788L22.8081 14.4676H23.1674C23.5935 14.4676 24.0022 14.2983 24.3035 13.997C24.6048 13.6956 24.7741 13.287 24.7741 12.8608C24.7741 12.4347 24.6048 12.026 24.3035 11.7247C24.0022 11.4234 23.5935 11.2541 23.1674 11.2541L23.168 11.2539ZM9.38782 7.83363C10.0947 7.83216 10.788 8.02807 11.3897 8.39931C11.9913 8.77055 12.4773 9.30238 12.793 9.9349C12.8391 10.0268 12.9193 10.0971 13.0165 10.1308C13.1138 10.1645 13.2203 10.159 13.3134 10.1153C13.7075 9.92881 14.1583 9.90169 14.5719 10.0396C14.9855 10.1775 15.3298 10.4698 15.5331 10.8554C15.5683 10.9217 15.6217 10.9766 15.687 11.0137C15.7523 11.0507 15.8268 11.0683 15.9018 11.0644C15.9767 11.0606 16.0491 11.0354 16.1102 10.9919C16.1714 10.9483 16.2188 10.8882 16.247 10.8187C16.4267 10.3747 16.7457 10.0011 17.156 9.75406C17.5663 9.50707 18.0458 9.40007 18.5222 9.44916C18.9987 9.49826 19.4462 9.7008 19.7976 10.0263C20.1489 10.3518 20.385 10.7826 20.4703 11.2539H15.2566C15.152 11.2539 15.0516 11.2955 14.9776 11.3695C14.9036 11.4435 14.862 11.5439 14.862 11.6485V17.5376C14.862 17.6205 14.8291 17.6999 14.7705 17.7585C14.7119 17.8171 14.6324 17.85 14.5495 17.85C14.4667 17.85 14.3872 17.8171 14.3286 17.7585C14.27 17.6999 14.2371 17.6205 14.2371 17.5376V11.6485C14.2371 11.5439 14.1955 11.4435 14.1215 11.3695C14.0475 11.2955 13.9471 11.2539 13.8425 11.2539H5.59323C5.69199 10.3159 6.13421 9.44767 6.83476 8.81623C7.53532 8.18478 8.44469 7.83479 9.38782 7.83363ZM3.69943 12.8606C3.69967 12.6439 3.78587 12.4361 3.93912 12.2828C4.09237 12.1296 4.30016 12.0434 4.51689 12.0432H13.4469V13.6781H4.51689C4.30016 13.6778 4.09237 13.5916 3.93912 13.4384C3.78587 13.2851 3.69967 13.0773 3.69943 12.8606ZM20.4031 20.3618C20.3594 20.5394 20.2596 20.6981 20.1184 20.8144C19.9773 20.9306 19.8024 20.9982 19.6197 21.007H8.06523C7.88444 20.9989 7.71105 20.9329 7.57061 20.8188C7.43017 20.7047 7.33012 20.5484 7.2852 20.3731L7.16749 19.9359H11.6257C11.7304 19.9359 11.8308 19.8943 11.9048 19.8203C11.9788 19.7463 12.0204 19.6459 12.0204 19.5412C12.0204 19.4366 11.9788 19.3362 11.9048 19.2622C11.8308 19.1882 11.7304 19.1466 11.6257 19.1466H6.95461L5.69358 14.4673H13.4478V17.5376C13.4478 17.8298 13.5639 18.11 13.7705 18.3166C13.9771 18.5232 14.2573 18.6393 14.5495 18.6393C14.8417 18.6393 15.122 18.5232 15.3286 18.3166C15.5352 18.11 15.6513 17.8298 15.6513 17.5376V14.4673H21.9916L20.4031 20.3618ZM23.168 13.6781H15.6513V12.0432H23.1683C23.3851 12.0432 23.593 12.1293 23.7463 12.2826C23.8996 12.4359 23.9857 12.6438 23.9857 12.8606C23.9857 13.0774 23.8996 13.2853 23.7463 13.4386C23.593 13.5919 23.3851 13.6781 23.1683 13.6781H23.168Z" fill="black"/>
</g>
<defs>
<clipPath id="clip0_70_45">
<rect width="24" height="24" fill="white"/>
</clipPath>
</defs>
</svg>
