<svg width="24" height="24" viewBox="0 0 24 24" fill="none" xmlns="http://www.w3.org/2000/svg">
<path d="M11.9775 7.875C8.26875 7.875 5.25 10.8937 5.25 14.6025C5.25 18.3112 8.26875 21.33 11.9775 21.33C15.6863 21.33 18.705 18.3112 18.705 14.6025C18.7013 10.8937 15.6863 7.875 11.9775 7.875ZM11.9775 19.8263C9.09375 19.8262 6.75 17.4825 6.75 14.6025C6.75 11.7225 9.09375 9.375 11.9775 9.375C14.8612 9.375 17.205 11.7187 17.205 14.6025C17.205 17.4862 14.8575 19.8263 11.9775 19.8263Z" fill="#231F20"/>
<path d="M2.25 0V24H21.75V0H2.25ZM20.25 1.5V5.25H3.75V1.5H20.25ZM3.75 22.5V6.75H20.25V22.5H3.75Z" fill="#231F20"/>
</svg>
