<svg xmlns="http://www.w3.org/2000/svg" viewBox="0 0 32 32" aria-hidden="true" role="presentation" focusable="false" style="display: block; height: 24px; width: 24px; fill: var(--linaria-theme_palette-hof);"><path d="M30 4H20c-1.64 0-3.09.8-4 2.03A4.99 4.99 0 0 0 12 4H2a2 2 0 0 0-2 2v19c0 1.1.9 2 2 2h10a3 3 0 0 1 3 3h2a3 3 0 0 1 3-3h10a2 2 0 0 0 2-2V6a2 2 0 0 0-2-2zm-4 2v8.61l-2-.66-2 .66V6h4zM15 26a4.98 4.98 0 0 0-3-1H2V6h10a3 3 0 0 1 3 3v17zm15-1H20a4.97 4.97 0 0 0-3 1V9a3 3 0 0 1 3-3v11.39l4-1.34 4 1.34V6h2v19z"></path></svg>