<svg xmlns="http://www.w3.org/2000/svg" viewBox="0 0 32 32" aria-hidden="true" role="presentation" focusable="false" style="display: block; height: 24px; width: 24px; fill: var(--linaria-theme_palette-hof);"><path d="M16 1a11 11 0 0 1 11 10.7v.3c0 3.7-2.03 7.14-6 10.3v7.03c0 .92-.75 1.67-1.67 1.67h-6.66c-.92 0-1.67-.75-1.67-1.67V22.3c-3.85-3.07-5.87-6.39-6-9.98V12A11 11 0 0 1 16 1zm3 26h-6v2h6v-2zm0-4h-6v2h6v-2zM16 3a9 9 0 0 0-9 8.98v.29c.1 2.9 1.8 5.7 5.17 8.4l.42.33h.4l.01-9.67a3 3 0 0 1 6 0V21h.41l.43-.34c3.36-2.7 5.05-5.48 5.15-8.36l.01-.28v-.27A9 9 0 0 0 16 3zm0 7.33-.12.01a1 1 0 0 0-.88 1V21h2v-9.67a1 1 0 0 0-1-1z"></path></svg>