<svg xmlns="http://www.w3.org/2000/svg" viewBox="0 0 32 32" aria-hidden="true" role="presentation" focusable="false" style="display: block; height: 24px; width: 24px; fill: var(--linaria-theme_palette-hof);"><path d="M16 0c5.9 0 11 5.28 11 11 0 4.85-3.23 9.27-9.55 13.28l2.2 2.92a1.13 1.13 0 0 1-.9 1.8H17v3h-2v-3h-1.75a1.13 1.13 0 0 1-.9-1.8l2.14-2.86C8.2 20.92 5 16.46 5 11A11 11 0 0 1 16 0zm0 25.67L15 27h2zM16 2a9 9 0 0 0-9 9c0 4.6 2.72 8.43 8.3 11.5l.38.21.28.14.3-.19c5.62-3.53 8.48-7.24 8.72-11.12l.02-.27V11c0-4.64-4.21-9-9-9z"></path></svg>