<svg xmlns="http://www.w3.org/2000/svg" viewBox="0 0 32 32" aria-hidden="true" role="presentation" focusable="false" style="display: block; height: 24px; width: 24px; fill: var(--linaria-theme_palette-hof);"><path d="M23.02 3a8.3 8.3 0 0 0-5.58 2.44L16 6.88l-1.44-1.44a8.31 8.31 0 0 0-11.79 0 8.3 8.3 0 0 0-2.44 5.9c0 4.92 2.49 8.84 8.04 13.43l.7.58.75.58.77.6.4.3.82.6.86.62.89.63.92.64L16 30.35l1.33-.9 1.06-.73.66-.46.7-.5.85-.62c7.4-5.45 11.07-10.12 11.07-15.8A8.3 8.3 0 0 0 23.33 3zm.31 2a6.31 6.31 0 0 1 6.34 6.33c0 4.3-2.62 8.12-8.01 12.48l-.72.57-.75.58-.79.58-.81.6-.7.49-.65.45-1.24.85-.36-.24-.9-.63-.87-.6-.42-.31-.81-.6-.4-.29-.76-.58-.74-.57c-5.84-4.6-8.4-8.31-8.4-12.78A6.3 6.3 0 0 1 8.66 5c1.67 0 3.27.65 4.48 1.85L16 9.71l2.86-2.86A6.31 6.31 0 0 1 23.33 5z"></path></svg>