<svg xmlns="http://www.w3.org/2000/svg" viewBox="0 0 32 32" aria-hidden="true" role="presentation" focusable="false" style="display: block; height: 24px; width: 24px; fill: var(--linaria-theme_palette-hof);"><path d="m31.47 10.12-15-8a1 1 0 0 0-.94 0l-15 8a1 1 0 0 0 0 1.76L4 13.73V23a1 1 0 0 0 .52.88l11 6a1 1 0 0 0 .96 0l11-6A1 1 0 0 0 28 23v-9.27l2-1.06V23h2V11a1 1 0 0 0-.53-.88zM26 22.4l-10 5.45-10-5.45V14.8l9.53 5.08a1 1 0 0 0 .94 0L26 14.8v7.6zm-10-4.54L3.12 11 16 4.13 28.88 11 16 17.87z"></path></svg>