<svg xmlns="http://www.w3.org/2000/svg" viewBox="0 0 32 32" aria-hidden="true" role="presentation" focusable="false" style="display: block; height: 24px; width: 24px; fill: var(--linaria-theme_palette-hof);"><path d="M20 2a2 2 0 0 1 2 1.85V6h6a3 3 0 0 1 3 2.82V27a3 3 0 0 1-2.82 3H4a3 3 0 0 1-3-2.82V9a3 3 0 0 1 2.82-3H10V4a2 2 0 0 1 1.85-2H12zm8 6H4a1 1 0 0 0-1 .88V12a3 3 0 0 0 2.82 3H13v2H6a4.98 4.98 0 0 1-3-1v11a1 1 0 0 0 .88 1H28a1 1 0 0 0 1-.88V16c-.78.59-1.74.95-2.78 1h-7.17v-2H26a3 3 0 0 0 3-2.82V9a1 1 0 0 0-.88-1zm-10 4a1 1 0 0 1 1 .88V19a1 1 0 0 1-.88 1H14a1 1 0 0 1-1-.88V13a1 1 0 0 1 .88-1H14zm-1 2h-2v4h2zm3-10h-8v2h8z"></path></svg>