<svg xmlns="http://www.w3.org/2000/svg" viewBox="0 0 32 32" aria-hidden="true" role="presentation" focusable="false" style="display: block; fill: none; height: 24px; width: 24px; stroke: currentcolor; stroke-width: 2.66667; overflow: visible;"><path fill="none" d="M19.38 27a4.14 4.14 0 0 1 3.05-2.54 4.06 4.06 0 0 1 3.17.71 1 1 0 0 0 1.47-.33l2.11-3.64a1 1 0 0 0-.46-1.44 4.1 4.1 0 0 1 0-7.48 1 1 0 0 0 .46-1.44l-2.11-3.66a1 1 0 0 0-1.47-.33 4.07 4.07 0 0 1-3.17.71A4.14 4.14 0 0 1 19.38 5a4 4 0 0 1-.27-1.87 1 1 0 0 0-1-1.15h-4.2a1 1 0 0 0-1 1.15 4.11 4.11 0 0 1-3.34 4.43 4.06 4.06 0 0 1-3.17-.71 1 1 0 0 0-1.47.33l-2.11 3.64a1 1 0 0 0 .46 1.44 4.1 4.1 0 0 1 0 7.48 1 1 0 0 0-.46 1.44l2.11 3.64a1 1 0 0 0 1.47.33 4.06 4.06 0 0 1 3.17-.71 4.1 4.1 0 0 1 3 2.53 4 4 0 0 1 .28 1.88 1 1 0 0 0 1 1.15h4.18a1 1 0 0 0 1-1.15 4 4 0 0 1 .35-1.85zM12 16a4 4 0 1 1 4 4 4 4 0 0 1-4-4z"></path></svg>