<svg width="38" height="39" viewBox="0 0 38 39" fill="none" xmlns="http://www.w3.org/2000/svg">
<path d="M31.8333 21.5993H31.3687V21.5542C31.3672 20.6468 31.0658 19.7668 30.5137 19.058C29.9616 18.3493 29.1914 17.8538 28.3293 17.6527V9.99923C28.3287 9.49333 28.1326 9.00833 27.784 8.6506C27.4355 8.29287 26.9629 8.09162 26.47 8.09097H11.53C11.0371 8.09162 10.5645 8.29287 10.216 8.6506C9.86743 9.00833 9.67133 9.49333 9.6707 9.99923V17.6527C8.80856 17.8538 8.03844 18.3493 7.48632 19.058C6.9342 19.7668 6.63276 20.6468 6.6313 21.5542V21.5993H6.16669C6.02892 21.5994 5.89682 21.6556 5.79941 21.7556C5.702 21.8555 5.64723 21.9911 5.64716 22.1325V26.2586C5.64723 26.4 5.702 26.5355 5.79941 26.6355C5.89682 26.7355 6.02892 26.7917 6.16669 26.7918H7.05464V29.9301C7.0546 30.0001 7.06801 30.0694 7.09411 30.1342C7.1202 30.1989 7.15847 30.2577 7.20672 30.3072C7.25497 30.3567 7.31226 30.396 7.37531 30.4228C7.43836 30.4495 7.50593 30.4633 7.57417 30.4633H9.72206C9.85985 30.4633 9.99199 30.4071 10.0894 30.3071C10.1869 30.2071 10.2416 30.0715 10.2416 29.9301V26.7918H27.4529V29.9301C27.4529 30.0715 27.5077 30.2071 27.6051 30.3071C27.7025 30.4071 27.8347 30.4633 27.9725 30.4633H30.4258C30.4941 30.4633 30.5616 30.4495 30.6247 30.4228C30.6877 30.396 30.745 30.3567 30.7933 30.3072C30.8415 30.2577 30.8798 30.1989 30.9059 30.1342C30.932 30.0694 30.9454 30.0001 30.9454 29.9301V26.7918H31.8333C31.9711 26.7917 32.1032 26.7355 32.2006 26.6355C32.298 26.5355 32.3528 26.4 32.3528 26.2586V22.1325C32.3528 21.9911 32.298 21.8555 32.2006 21.7556C32.1032 21.6556 31.9711 21.5994 31.8333 21.5993ZM10.7098 9.99923C10.7101 9.77606 10.7966 9.56212 10.9504 9.40431C11.1041 9.2465 11.3126 9.1577 11.53 9.15738H26.47C26.6874 9.1577 26.8959 9.2465 27.0496 9.40431C27.2034 9.56212 27.2899 9.77606 27.2902 9.99923V17.55H23.6853V12.8194C23.6853 12.7494 23.6719 12.68 23.6458 12.6153C23.6197 12.5506 23.5815 12.4918 23.5332 12.4423C23.4849 12.3928 23.4277 12.3535 23.3646 12.3267C23.3016 12.2999 23.234 12.2862 23.1657 12.2862H14.8342C14.766 12.2862 14.6984 12.2999 14.6354 12.3267C14.5723 12.3535 14.515 12.3928 14.4668 12.4423C14.4185 12.4918 14.3803 12.5506 14.3542 12.6153C14.3281 12.68 14.3147 12.7494 14.3147 12.8194V17.55H10.7098V9.99923ZM22.6462 17.55H15.3538V13.3526H22.6462V17.55ZM7.67036 21.5542C7.67091 20.7754 7.97254 20.0286 8.50905 19.4778C9.04555 18.927 9.77309 18.6172 10.5319 18.6164H27.4681C28.2267 18.6172 28.9541 18.9268 29.4905 19.4774C30.027 20.0279 30.3288 20.7744 30.3296 21.553V21.5981H7.67036V21.5542ZM9.20312 29.3966H8.0937V26.7918H9.20312V29.3966ZM29.9069 29.3966H28.492V26.7918H29.9063L29.9069 29.3966ZM31.3144 25.7254H6.68622V22.6657H31.3138L31.3144 25.7254Z" fill="black"/>
</svg>
