<svg width="30" height="30" viewBox="0 0 30 30" fill="none" xmlns="http://www.w3.org/2000/svg">
<path d="M5.31354 4.11129L25.8912 24.689L25.8913 24.6889C26.0573 24.8549 26.0573 25.1241 25.8913 25.2901L25.8889 25.2925L25.2901 25.8912L25.2901 25.8912C25.1241 26.0572 24.855 26.0572 24.689 25.8912L24.6866 25.8888L4.10893 5.31115L4.10888 5.31118C3.94287 5.14517 3.94287 4.87602 4.10888 4.71001L4.11129 4.70767L4.71005 4.10891L4.71003 4.10888C4.87602 3.94287 5.1452 3.94287 5.3112 4.10888L5.31354 4.11129Z" fill="#7D7D7D"/>
<path d="M24.6866 4.11129L4.10891 24.689L4.10888 24.6889C3.94287 24.8549 3.94287 25.1241 4.10888 25.2901L4.11129 25.2925L4.71004 25.8912L4.71001 25.8912C4.87602 26.0572 5.14517 26.0572 5.31118 25.8912L5.31353 25.8888L25.8912 5.31115L25.8913 5.31118C26.0573 5.14517 26.0573 4.87602 25.8913 4.71001L25.8889 4.70767L25.2901 4.10891L25.2901 4.10888C25.1241 3.94287 24.8549 3.94287 24.6889 4.10888L24.6866 4.11129Z" fill="#8E8E8F"/>
</svg>
