<svg xmlns="http://www.w3.org/2000/svg" viewBox="0 0 32 32" aria-hidden="true" role="presentation" focusable="false" style="display: block; height: 32px; width: 32px; fill: currentcolor;"><path d="M16 1a11 11 0 0 1 10.6 8.03 6 6 0 0 1-.34 11.96 11.01 11.01 0 0 1-7.53 6.7l.2-.05a3 3 0 1 1-.26-2.01 9 9 0 0 0 6.33-8.6V12a9 9 0 0 0-18-.27V21H6a6 6 0 0 1-.6-11.97A11 11 0 0 1 16 1zm0 25a1 1 0 1 0 0 2 1 1 0 0 0 0-2zm.75-20.4c.69 0 1.25.55 1.25 1.24V11h2.04c.2 0 .38.04.56.13l.12.07a1.25 1.25 0 0 1 .37 1.73l-5.8 8.9a1.25 1.25 0 0 1-2.29-.67V17h-2.04a1.25 1.25 0 0 1-.56-.13l-.12-.07a1.25 1.25 0 0 1-.37-1.73l5.8-8.9a1.25 1.25 0 0 1 1.04-.58zM5 11.12l-.15.04a4 4 0 0 0 0 7.66l.15.04v-7.74zm22 0v7.74l.15-.04a4 4 0 0 0 0-7.66l-.15-.04zM16 9.37 12.34 15H15v3.63L18.66 13H16V9.37z"></path></svg>