<svg width="18" height="18" viewBox="0 0 18 18" fill="none" xmlns="http://www.w3.org/2000/svg">
<g clipPath="url(#clip0_62_103)">
<path fillRule="evenodd" clipRule="evenodd" d="M15.75 18H12.6563C11.8795 18 11.2501 17.3699 11.2501 16.5938V12.6563C11.2501 11.8795 11.8795 11.2501 12.6563 11.2501H13.1106C13.4031 11.2501 13.7027 11.0161 13.7807 10.7216L14.079 9.59829C14.1663 9.27091 13.9801 8.99982 13.6623 8.99982H12.6562C11.8795 8.99982 11.25 8.37046 11.25 7.594V7.0315C11.25 6.25447 11.8795 5.625 12.6562 5.625H13.5003C13.8104 5.625 14.0628 5.37342 14.0628 5.0625V3.93736C14.0628 3.627 13.8104 3.37472 13.5003 3.37472H11.8125C10.2591 3.37472 9.00032 4.6343 9.00032 6.18761V7.594C9.00032 8.37042 8.37025 8.99982 7.59396 8.99982H7.32589C7.00812 8.99982 6.75007 9.27091 6.75007 9.59829V10.7216C6.75007 11.0161 6.98723 11.2501 7.27988 11.2501H7.59396C8.37028 11.2501 9.00032 11.8795 9.00032 12.6563V16.5938C9.00032 17.3699 8.37025 18 7.59396 18H7.31271C7.00179 18 6.75007 17.7479 6.75007 17.4375C6.75007 17.1266 7.00179 16.875 7.31271 16.875C7.62293 16.875 7.87521 16.6229 7.87521 16.3125V12.9375C7.87521 12.6266 7.62296 12.375 7.31271 12.375H6.94371C6.21531 12.375 5.62496 11.7922 5.62496 11.054V9.36921C5.62496 8.55513 6.27082 7.87465 7.06732 7.87465H7.31271C7.62293 7.87465 7.87521 7.62293 7.87521 7.31271V5.90632C7.87521 3.88691 9.51205 2.25025 11.5313 2.25025H13.7816C14.558 2.25025 15.1873 2.87961 15.1873 3.65607V5.34371C15.1873 6.12014 14.558 6.75007 13.7816 6.75007H12.375V7.31271C12.375 7.62293 12.6266 7.87465 12.9375 7.87465H13.9911C14.7882 7.87465 15.3059 8.5551 15.1535 9.36921L14.8373 11.054C14.6992 11.7922 13.9999 12.375 13.2715 12.375H12.9375C12.6266 12.375 12.375 12.6266 12.375 12.9375V16.3125C12.375 16.6229 12.6266 16.875 12.9375 16.875H15.75C16.3713 16.875 16.875 16.3713 16.875 15.75V2.25025C16.875 1.6284 16.3713 1.12514 15.75 1.12514H2.25025C1.62896 1.12514 1.12514 1.62844 1.12514 2.25025V15.75C1.12514 16.3713 1.629 16.875 2.25025 16.875H2.81275C3.12311 16.875 3.37535 17.1266 3.37535 17.4375C3.37535 17.7479 3.12311 18 2.81275 18H2.25025C1.00786 18 0 16.9926 0 15.75V2.25025C0 1.00716 1.00786 0 2.25025 0H15.75C16.9931 0 18 1.00716 18 2.25025V15.75C18 16.9926 16.9931 18 15.75 18ZM5.06246 16.875C5.37339 16.875 5.62496 17.1266 5.62496 17.4375C5.62496 17.7479 5.37339 18 5.06246 18C4.75211 18 4.49982 17.7479 4.49982 17.4375C4.49982 17.1266 4.75211 16.875 5.06246 16.875Z" fill="#3B5998"/>
</g>
<defs>
<clipPath id="clip0_62_103">
<rect width="18" height="18" fill="white"/>
</clipPath>
</defs>
</svg>
