<svg width="36" height="36" viewBox="0 0 36 36" fill="none" xmlns="http://www.w3.org/2000/svg">
<path d="M35.1216 25.776C35.0853 24.9838 34.7936 24.2247 34.2901 23.6121C33.7865 22.9996 33.0982 22.5665 32.328 22.3776L32.0256 20.3472C31.8396 19.0966 31.2113 17.9541 30.2549 17.1271C29.2984 16.3001 28.0772 15.8435 26.8128 15.84H23.5872C22.3215 15.8469 21.1001 16.3067 20.144 17.136C19.1878 17.9654 18.5601 19.1096 18.3744 20.3616L18.0864 22.3776C17.3276 22.5529 16.6458 22.9687 16.1424 23.5629C15.6391 24.1571 15.3411 24.8979 15.2928 25.6752C15.0792 26.5717 15.0533 27.5028 15.2169 28.4098C15.3804 29.3168 15.7299 30.1802 16.2432 30.9456C16.673 31.5474 17.2246 32.052 17.8622 32.4266C18.4998 32.8012 19.2091 33.0375 19.944 33.12H20.16V33.84C20.16 34.031 20.2359 34.2141 20.3709 34.3491C20.5059 34.4841 20.689 34.56 20.88 34.56C21.071 34.56 21.2541 34.4841 21.3891 34.3491C21.5241 34.2141 21.6 34.031 21.6 33.84V33.12H28.8V33.84C28.8 34.031 28.8759 34.2141 29.0109 34.3491C29.1459 34.4841 29.329 34.56 29.52 34.56C29.711 34.56 29.8941 34.4841 30.0291 34.3491C30.1641 34.2141 30.24 34.031 30.24 33.84V33.12H30.5424C31.2588 33.0216 31.9477 32.778 32.5667 32.4041C33.1857 32.0302 33.7219 31.5339 34.1424 30.9456C34.6524 30.1976 35.0026 29.3524 35.1711 28.4629C35.3396 27.5734 35.3228 26.6587 35.1216 25.776ZM23.6016 17.28H26.8272C27.7455 17.2804 28.633 17.6107 29.3282 18.2107C30.0233 18.8107 30.4798 19.6405 30.6144 20.5488L30.9024 22.4784C30.3402 22.6903 29.8414 23.0422 29.4533 23.5009C29.0652 23.9595 28.8007 24.5097 28.6848 25.0992C28.5551 25.9052 28.5551 26.7268 28.6848 27.5328C28.7675 27.9899 28.8929 28.4383 29.0592 28.872H21.3552C21.5215 28.4383 21.6469 27.9899 21.7296 27.5328C21.8593 26.7268 21.8593 25.9052 21.7296 25.0992C21.6091 24.5154 21.3443 23.971 20.9595 23.5158C20.5747 23.0605 20.082 22.7088 19.5264 22.4928L19.8 20.5632C19.9371 19.6547 20.3938 18.8249 21.0881 18.2231C21.7823 17.6213 22.6684 17.2869 23.5872 17.28H23.6016ZM33.0048 30.1104C32.7016 30.534 32.3155 30.8915 31.87 31.1613C31.4244 31.4311 30.9286 31.6076 30.4128 31.68H20.0304C19.5095 31.6113 19.0082 31.4366 18.5574 31.1667C18.1067 30.8967 17.716 30.5372 17.4096 30.1104C17.0147 29.4959 16.7486 28.8078 16.6273 28.0875C16.506 27.3673 16.5321 26.6299 16.704 25.92C16.7088 25.4053 16.8924 24.9084 17.2235 24.5143C17.5545 24.1202 18.0123 23.8535 18.5184 23.76C18.9382 23.8081 19.3323 23.9869 19.6449 24.2712C19.9576 24.5554 20.173 24.9307 20.2608 25.344C20.3759 25.9869 20.3759 26.6451 20.2608 27.288C20.1568 27.9651 19.9115 28.6127 19.5408 29.1888C19.4679 29.2967 19.4256 29.4223 19.4184 29.5523C19.4112 29.6823 19.4394 29.8118 19.5 29.927C19.5606 30.0423 19.6512 30.1389 19.7624 30.2067C19.8736 30.2745 20.001 30.3109 20.1312 30.312H30.2112C30.3414 30.3109 30.4688 30.2745 30.58 30.2067C30.6912 30.1389 30.7818 30.0423 30.8424 29.927C30.903 29.8118 30.9312 29.6823 30.924 29.5523C30.9168 29.4223 30.8745 29.2967 30.8016 29.1888C30.4452 28.6332 30.2051 28.011 30.096 27.36C29.9809 26.7171 29.9809 26.0589 30.096 25.416C30.2112 24.7536 30.9456 23.7456 31.8816 23.832C32.8176 23.9184 33.5664 24.7968 33.7104 26.0928C33.8627 26.7768 33.8775 27.4842 33.7539 28.1739C33.6303 28.8636 33.3708 29.5219 32.9904 30.1104H33.0048ZM10.8 23.04H2.16C1.96905 23.04 1.78591 23.1159 1.65089 23.2509C1.51586 23.3859 1.44 23.569 1.44 23.76V33.84C1.44 34.031 1.51586 34.2141 1.65089 34.3491C1.78591 34.4841 1.96905 34.56 2.16 34.56C2.35096 34.56 2.53409 34.4841 2.66912 34.3491C2.80415 34.2141 2.88 34.031 2.88 33.84V30.24H10.08V33.84C10.08 34.031 10.1559 34.2141 10.2909 34.3491C10.4259 34.4841 10.609 34.56 10.8 34.56C10.991 34.56 11.1741 34.4841 11.3091 34.3491C11.4441 34.2141 11.52 34.031 11.52 33.84V23.76C11.52 23.569 11.4441 23.3859 11.3091 23.2509C11.1741 23.1159 10.991 23.04 10.8 23.04ZM2.88 28.8V24.48H10.08V28.8H2.88Z" fill="#231F20"/>
<path d="M7.19996 26.3664C7.16925 26.2765 7.11446 26.1968 7.04156 26.136C6.90697 26.0041 6.72602 25.9302 6.53756 25.9302C6.34909 25.9302 6.16814 26.0041 6.03356 26.136C5.96468 26.2006 5.90978 26.2787 5.87226 26.3654C5.83473 26.4521 5.81537 26.5455 5.81537 26.64C5.81537 26.7345 5.83473 26.8279 5.87226 26.9146C5.90978 27.0013 5.96468 27.0794 6.03356 27.144C6.0944 27.2169 6.1741 27.2717 6.26396 27.3024C6.35401 27.3228 6.4475 27.3228 6.53756 27.3024C6.72736 27.2987 6.90836 27.2217 7.04259 27.0874C7.17683 26.9532 7.25387 26.7722 7.25756 26.5824C7.25162 26.5075 7.2321 26.4343 7.19996 26.3664ZM19.44 11.52C19.5452 11.5234 19.6497 11.5017 19.7449 11.4566C19.8401 11.4115 19.9231 11.3444 19.9872 11.2608C20.0568 11.1839 20.1075 11.0917 20.135 10.9917C20.1625 10.8916 20.1661 10.7865 20.1456 10.6848L18.7056 2.0448C18.6783 1.87688 18.5926 1.72402 18.4634 1.61332C18.3342 1.50261 18.1701 1.44121 18 1.44H9.35996C9.18738 1.43778 9.01975 1.49762 8.88759 1.60863C8.75544 1.71964 8.66756 1.87443 8.63996 2.0448L7.19996 10.6848C7.1794 10.7865 7.18302 10.8916 7.21054 10.9917C7.23805 11.0917 7.28868 11.1839 7.35836 11.2608C7.42381 11.3464 7.50918 11.4148 7.60704 11.46C7.70491 11.5051 7.81232 11.5257 7.91996 11.52H12.96V33.84C12.96 34.031 13.0358 34.2141 13.1708 34.3491C13.3059 34.4841 13.489 34.56 13.68 34.56C13.8709 34.56 14.054 34.4841 14.1891 34.3491C14.3241 34.2141 14.4 34.031 14.4 33.84V11.52H19.44ZM9.96476 2.88H17.3952L18.5904 10.08H8.76956L9.96476 2.88Z" fill="#231F20"/>
</svg>
