<svg width="18" height="18" viewBox="0 0 18 18" fill="none" xmlns="http://www.w3.org/2000/svg">
<g clipPath="url(#clip0_62_101)">
<path fillRule="evenodd" clipRule="evenodd" d="M6.18356 11.2517C6.25821 11.25 6.33244 11.2633 6.40189 11.2907C6.47135 11.3181 6.53462 11.3591 6.58801 11.4113C6.64139 11.4635 6.68381 11.5259 6.71277 11.5947C6.74173 11.6635 6.75665 11.7374 6.75665 11.8121C6.75665 11.8867 6.74173 11.9607 6.71277 12.0295C6.68381 12.0983 6.64139 12.1606 6.58801 12.2128C6.53462 12.265 6.47135 12.3061 6.40189 12.3335C6.33244 12.3609 6.25821 12.3741 6.18356 12.3725C6.03711 12.3692 5.89776 12.3087 5.79535 12.204C5.69293 12.0992 5.63559 11.9586 5.63559 11.8121C5.63559 11.6656 5.69293 11.5249 5.79535 11.4202C5.89776 11.3155 6.03711 11.255 6.18356 11.2517ZM4.54078 9.64659C4.18613 7.18594 5.89359 4.90416 8.35425 4.5495C10.8149 4.19484 13.097 5.90231 13.4516 8.36297C13.8063 10.8236 12.0988 13.1057 9.63816 13.4603C9.61059 13.4646 9.58416 13.4646 9.55688 13.4677L9.64013 13.4561C9.49421 13.4735 9.3473 13.4331 9.23075 13.3436C9.11421 13.2541 9.03726 13.1226 9.01633 12.9772C8.99541 12.8317 9.03217 12.6839 9.11876 12.5652C9.20536 12.4465 9.33493 12.3663 9.47981 12.3418L9.47897 12.3398H9.48122C11.3262 12.0741 12.6056 10.3632 12.3398 8.51822C12.0741 6.67294 10.3635 5.39353 8.51822 5.65931C6.67406 5.92509 5.39353 7.63594 5.65959 9.48094C5.65959 9.48178 5.65959 9.48234 5.66016 9.48234L5.65819 9.48319C5.67945 9.63095 5.64113 9.78111 5.55168 9.90063C5.46222 10.0202 5.32895 10.0992 5.18119 10.1205C5.03342 10.1418 4.88326 10.1034 4.76374 10.014C4.64422 9.92454 4.56513 9.79127 4.54388 9.6435L4.55625 9.72731C4.55231 9.69975 4.54472 9.67387 4.54078 9.64659ZM13.4969 3.65766C13.4971 3.43353 13.5862 3.21863 13.7447 3.06021C13.9033 2.90178 14.1182 2.81278 14.3423 2.81278C14.564 2.81283 14.7768 2.90014 14.9346 3.05582C15.0925 3.2115 15.1827 3.42304 15.1858 3.64472V3.67116C15.1827 3.89283 15.0925 4.10438 14.9346 4.26006C14.7768 4.41574 14.564 4.50304 14.3423 4.50309C14.1181 4.50309 13.9031 4.41402 13.7445 4.25547C13.586 4.09692 13.4969 3.88188 13.4969 3.65766ZM16.4984 16.4587C15.5202 17.4471 14.1629 18 11.8159 18H6.18356C3.83653 18 2.4795 17.4471 1.50188 16.4587C0.536625 15.4839 0 14.1233 0 11.8164V6.18413C0 3.87647 0.536625 2.51662 1.50188 1.54181C2.4795 0.553219 3.83653 0 6.18356 0H11.8156C14.1629 0 15.5199 0.553219 16.4981 1.54181C16.5608 1.60453 16.6182 1.67344 16.6762 1.7415C16.7948 1.84444 16.8716 1.99519 16.8716 2.16478C16.8716 2.31397 16.8124 2.45704 16.7069 2.56253C16.6014 2.66802 16.4583 2.72728 16.3091 2.72728C16.1392 2.72728 15.9885 2.65022 15.8856 2.53097L15.8783 2.53688C15.8203 2.46797 15.766 2.39653 15.7019 2.33212C14.8463 1.467 13.5833 1.12753 11.529 1.12753H6.46791C4.41422 1.12753 3.15366 1.467 2.29809 2.33212C1.4535 3.18516 1.125 4.45162 1.125 6.47016V11.5318C1.125 13.5512 1.4535 14.8143 2.29809 15.667C3.15366 16.5319 4.41422 16.875 6.46791 16.875H11.5296C13.5838 16.875 14.8469 16.5319 15.7025 15.667C16.5471 14.8143 16.8722 13.5512 16.8722 11.5318V6.47044C16.8742 6.02157 16.8538 5.57288 16.8109 5.12606L16.8134 5.1255C16.803 4.97857 16.8502 4.83336 16.9449 4.7206C17.0397 4.60784 17.1746 4.53639 17.3212 4.52137C17.4677 4.50634 17.6143 4.54893 17.73 4.64012C17.8457 4.7313 17.9213 4.86392 17.9409 5.00991C17.9418 5.01806 17.9409 5.02566 17.9409 5.03381H17.9423C17.98 5.4161 17.9992 5.79998 18 6.18413V11.8162C18 14.1233 17.4628 15.4839 16.4984 16.4587Z" fill="black"/>
</g>
<defs>
<clipPath id="clip0_62_101">
<rect width="18" height="18" fill="white"/>
</clipPath>
</defs>
</svg>
