<svg width="48" height="48" viewBox="0 0 48 48" fill="none" xmlns="http://www.w3.org/2000/svg">
<g clipPath="url(#clip0_64_260)">
<path d="M39 2H35V1C35 0.734784 34.8946 0.48043 34.7071 0.292893C34.5196 0.105357 34.2652 0 34 0C33.7348 0 33.4804 0.105357 33.2929 0.292893C33.1054 0.48043 33 0.734784 33 1V2H31V1C31 0.734784 30.8946 0.48043 30.7071 0.292893C30.5196 0.105357 30.2652 0 30 0C29.7348 0 29.4804 0.105357 29.2929 0.292893C29.1054 0.48043 29 0.734784 29 1V2H27V1C27 0.734784 26.8946 0.48043 26.7071 0.292893C26.5196 0.105357 26.2652 0 26 0C25.7348 0 25.4804 0.105357 25.2929 0.292893C25.1054 0.48043 25 0.734784 25 1V2H23V1C23 0.734784 22.8946 0.48043 22.7071 0.292893C22.5196 0.105357 22.2652 0 22 0C21.7348 0 21.4804 0.105357 21.2929 0.292893C21.1054 0.48043 21 0.734784 21 1V2H19V1C19 0.734784 18.8946 0.48043 18.7071 0.292893C18.5196 0.105357 18.2652 0 18 0C17.7348 0 17.4804 0.105357 17.2929 0.292893C17.1054 0.48043 17 0.734784 17 1V2H15V1C15 0.734784 14.8946 0.48043 14.7071 0.292893C14.5196 0.105357 14.2652 0 14 0C13.7348 0 13.4804 0.105357 13.2929 0.292893C13.1054 0.48043 13 0.734784 13 1V2H9C8.73478 2 8.48043 2.10536 8.29289 2.29289C8.10536 2.48043 8 2.73478 8 3V47C8 47.2652 8.10536 47.5196 8.29289 47.7071C8.48043 47.8946 8.73478 48 9 48H39C39.2652 48 39.5196 47.8946 39.7071 47.7071C39.8946 47.5196 40 47.2652 40 47V3C40 2.73478 39.8946 2.48043 39.7071 2.29289C39.5196 2.10536 39.2652 2 39 2ZM13 4V5C13 5.26522 13.1054 5.51957 13.2929 5.70711C13.4804 5.89464 13.7348 6 14 6C14.2652 6 14.5196 5.89464 14.7071 5.70711C14.8946 5.51957 15 5.26522 15 5V4H17V5C17 5.26522 17.1054 5.51957 17.2929 5.70711C17.4804 5.89464 17.7348 6 18 6C18.2652 6 18.5196 5.89464 18.7071 5.70711C18.8946 5.51957 19 5.26522 19 5V4H21V5C21 5.26522 21.1054 5.51957 21.2929 5.70711C21.4804 5.89464 21.7348 6 22 6C22.2652 6 22.5196 5.89464 22.7071 5.70711C22.8946 5.51957 23 5.26522 23 5V4H25V5C25 5.26522 25.1054 5.51957 25.2929 5.70711C25.4804 5.89464 25.7348 6 26 6C26.2652 6 26.5196 5.89464 26.7071 5.70711C26.8946 5.51957 27 5.26522 27 5V4H29V5C29 5.26522 29.1054 5.51957 29.2929 5.70711C29.4804 5.89464 29.7348 6 30 6C30.2652 6 30.5196 5.89464 30.7071 5.70711C30.8946 5.51957 31 5.26522 31 5V4H33V5C33 5.26522 33.1054 5.51957 33.2929 5.70711C33.4804 5.89464 33.7348 6 34 6C34.2652 6 34.5196 5.89464 34.7071 5.70711C34.8946 5.51957 35 5.26522 35 5V4H38V8H10V4H13ZM10 46V10H38V46H10Z" fill="black"/>
<path d="M34 14H14C13.7348 14 13.4804 14.1054 13.2929 14.2929C13.1054 14.4804 13 14.7348 13 15C13 15.2652 13.1054 15.5196 13.2929 15.7071C13.4804 15.8946 13.7348 16 14 16H34C34.2652 16 34.5196 15.8946 34.7071 15.7071C34.8946 15.5196 35 15.2652 35 15C35 14.7348 34.8946 14.4804 34.7071 14.2929C34.5196 14.1054 34.2652 14 34 14ZM34 19H14C13.7348 19 13.4804 19.1054 13.2929 19.2929C13.1054 19.4804 13 19.7348 13 20C13 20.2652 13.1054 20.5196 13.2929 20.7071C13.4804 20.8946 13.7348 21 14 21H34C34.2652 21 34.5196 20.8946 34.7071 20.7071C34.8946 20.5196 35 20.2652 35 20C35 19.7348 34.8946 19.4804 34.7071 19.2929C34.5196 19.1054 34.2652 19 34 19ZM34 24H14C13.7348 24 13.4804 24.1054 13.2929 24.2929C13.1054 24.4804 13 24.7348 13 25C13 25.2652 13.1054 25.5196 13.2929 25.7071C13.4804 25.8946 13.7348 26 14 26H34C34.2652 26 34.5196 25.8946 34.7071 25.7071C34.8946 25.5196 35 25.2652 35 25C35 24.7348 34.8946 24.4804 34.7071 24.2929C34.5196 24.1054 34.2652 24 34 24ZM34 29H14C13.7348 29 13.4804 29.1054 13.2929 29.2929C13.1054 29.4804 13 29.7348 13 30C13 30.2652 13.1054 30.5196 13.2929 30.7071C13.4804 30.8946 13.7348 31 14 31H34C34.2652 31 34.5196 30.8946 34.7071 30.7071C34.8946 30.5196 35 30.2652 35 30C35 29.7348 34.8946 29.4804 34.7071 29.2929C34.5196 29.1054 34.2652 29 34 29ZM34 34H14C13.7348 34 13.4804 34.1054 13.2929 34.2929C13.1054 34.4804 13 34.7348 13 35C13 35.2652 13.1054 35.5196 13.2929 35.7071C13.4804 35.8946 13.7348 36 14 36H34C34.2652 36 34.5196 35.8946 34.7071 35.7071C34.8946 35.5196 35 35.2652 35 35C35 34.7348 34.8946 34.4804 34.7071 34.2929C34.5196 34.1054 34.2652 34 34 34ZM34 39H14C13.7348 39 13.4804 39.1054 13.2929 39.2929C13.1054 39.4804 13 39.7348 13 40C13 40.2652 13.1054 40.5196 13.2929 40.7071C13.4804 40.8946 13.7348 41 14 41H34C34.2652 41 34.5196 40.8946 34.7071 40.7071C34.8946 40.5196 35 40.2652 35 40C35 39.7348 34.8946 39.4804 34.7071 39.2929C34.5196 39.1054 34.2652 39 34 39Z" fill="black"/>
</g>
<defs>
<clipPath id="clip0_64_260">
<rect width="48" height="48" fill="white"/>
</clipPath>
</defs>
</svg>
