<svg xmlns="http://www.w3.org/2000/svg" viewBox="0 0 32 32" aria-hidden="true" role="presentation" focusable="false" style="display: block; height: 32px; width: 32px; fill: currentcolor;"><path d="M22 5a6 6 0 0 1 3.64 10.77A9 9 0 0 1 31 23.74V24h-2a7 7 0 0 0-6-6.93v-2.2A4 4 0 0 0 22 7a4 4 0 0 0-3.68 5.57A5 5 0 0 1 21 17a4.99 4.99 0 0 1-1.6 3.67 9 9 0 0 1 5.6 8.06V29h-2a7 7 0 0 0-6-6.93v-2.24a3 3 0 1 0-2 0v2.24a7 7 0 0 0-6 6.69V29H7a9 9 0 0 1 5.6-8.34 5 5 0 0 1 1.08-8.09A4 4 0 1 0 9 14.87v2.2a7 7 0 0 0-6 6.69V24H1a9 9 0 0 1 5.36-8.23A6 6 0 1 1 15.92 10h.16A6 6 0 0 1 22 5z"></path></svg>