<svg xmlns="http://www.w3.org/2000/svg" viewBox="0 0 32 32" aria-label="Notifications" role="img" focusable="false" style="display: block; height: 24px; width: 24px; fill: currentcolor;"><path d="M28.98 24.75a2.01 2.01 0 0 0-.36-.92L26 20.2V13a10.01 10.01 0 0 0-9-9.95V1h-2v2.05a9.95 9.95 0 0 0-9 9.67v7.47l-2.62 3.64a2 2 0 0 0 .45 2.8A1.98 1.98 0 0 0 5 27h7.33v.33a3.67 3.67 0 1 0 7.34 0V27H27a2.01 2.01 0 0 0 2-2.06Zm-11.31 2.58a1.67 1.67 0 1 1-3.34 0V27h3.34Zm2-2.33H5l3-4.17v-8.07A8 8 0 0 1 24 13v7.83l3 4.1V25Z"></path></svg>