<svg width="50" height="50" viewBox="0 0 50 50" fill="none" xmlns="http://www.w3.org/2000/svg">
<g clipPath="url(#clip0_71_1218)">
<path fillRule="evenodd" clipRule="evenodd" d="M25 0C38.8072 0 50 11.1929 50 25C50 38.8071 38.8071 50 25 50C11.1928 50 0 38.8071 0 25C0 11.1928 11.1929 0 25 0Z" fill="#EF5350"/>
<mask id="mask0_71_1218" style="mask-type:luminance" maskUnits="userSpaceOnUse" x="0" y="0" width="50" height="50">
<path d="M25 0C38.8072 0 50 11.1929 50 25C50 38.8071 38.8071 50 25 50C11.1928 50 0 38.8071 0 25C0 11.1928 11.1929 0 25 0Z" fill="white"/>
</mask>
<g mask="url(#mask0_71_1218)">
<path fillRule="evenodd" clipRule="evenodd" d="M31.8328 14.4707L59.5642 42.2021L59.7078 42.3725L59.8467 42.5461L59.9812 42.7226L60.1111 42.9021L60.2363 43.0844L60.3572 43.2692L60.4729 43.457L60.5842 43.6472L60.6907 43.84L60.7925 44.0351L60.8892 44.2324L60.981 44.4321L61.0681 44.634L61.1501 44.8378L61.227 45.0437L61.2991 45.2514L61.366 45.4611L61.4277 45.6723L61.4844 45.8855L61.5356 46.0998L61.5818 46.3159L61.6226 46.5332L61.6582 46.7517L61.6885 46.9716L61.7131 47.1926L61.7324 47.4145L61.7463 47.6374L61.7546 47.8613L61.7576 48.0859V48.3361L34.0261 20.6047V20.3544L34.0232 20.1298L34.0149 19.9059L34.001 19.683L33.9817 19.461L33.957 19.24L33.9268 19.0202L33.8911 18.8016L33.8503 18.5843L33.8042 18.3683L33.7527 18.1538L33.6963 17.9409L33.6345 17.7296L33.5676 17.52L33.4956 17.3123L33.4187 17.1064L33.3367 16.9025L33.2495 16.7007L33.1577 16.501L33.0608 16.3035L32.9592 16.1084L32.8528 15.9157L32.7415 15.7254L32.6255 15.5378L32.5049 15.3528L32.3796 15.1705L32.2498 14.9911L32.1152 14.8146L31.9761 14.6411L31.8328 14.4707Z" fill="#E53935"/>
<path fillRule="evenodd" clipRule="evenodd" d="M34.0261 20.6045L61.7576 48.3359V48.351L34.0261 20.6195V20.6045Z" fill="#E53935"/>
<path fillRule="evenodd" clipRule="evenodd" d="M35.9062 21.0938L63.6377 48.8252L63.6606 48.8513L63.6831 48.8777L63.7048 48.9048L63.7261 48.9324L63.7466 48.9605L63.7664 48.989L63.7856 49.0181L63.8042 49.0476L63.822 49.0776L63.8391 49.1082L63.8555 49.1392L63.8711 49.1707L63.886 49.2024L63.8999 49.2346L63.9133 49.2671L63.926 49.3003L63.9377 49.3335L63.9487 49.3672L63.959 49.4014L63.9683 49.4358L63.9768 49.4707L63.9844 49.5056L63.9912 49.541L63.9973 49.5767L64.0022 49.6128L64.0063 49.6489L64.0098 49.6855L64.012 49.7222L64.0134 49.7593L64.0139 49.7964L36.2825 22.0649L36.282 22.0277L36.2805 21.9907L36.2783 21.954L36.2749 21.9174L36.2708 21.8812L36.2659 21.8452L36.2598 21.8096L36.2529 21.7742L36.2454 21.7391L36.2368 21.7043L36.2275 21.6699L36.2173 21.6358L36.2063 21.6021L36.1946 21.5687L36.1819 21.5357L36.1685 21.5031L36.1543 21.4709L36.1394 21.4391L36.1238 21.4077L36.1074 21.3767L36.0903 21.3462L36.0728 21.3162L36.0542 21.2866L36.0349 21.2575L36.0151 21.229L35.9946 21.2009L35.9734 21.1733L35.9517 21.1462L35.9292 21.1197L35.9062 21.0938Z" fill="#E53935"/>
<path fillRule="evenodd" clipRule="evenodd" d="M36.2825 22.0654L64.0139 49.7969V64.9581L36.2825 37.2266V22.0654Z" fill="#E53935"/>
<path fillRule="evenodd" clipRule="evenodd" d="M36.2825 37.2266L64.0139 64.958L64.0134 64.9954L64.012 65.0322L64.0098 65.0691L64.0063 65.1055L64.0022 65.1416L63.9973 65.1777L63.9912 65.2134L63.9844 65.2488L63.9768 65.2839L63.9683 65.3186L63.959 65.353L63.9487 65.3872L63.9377 65.4209L63.926 65.4543L63.9133 65.4873L63.8999 65.5198L63.886 65.552L63.8711 65.584L63.8555 65.6152L63.8391 65.6462L63.822 65.6768L63.8042 65.7068L63.7856 65.7363L63.7664 65.7654L63.7466 65.7939L63.7261 65.822L63.7048 65.8496L63.6831 65.8767L63.6606 65.9033L63.6377 65.9292L63.614 65.9546L63.5898 65.9795L35.8584 38.2478L35.8826 38.2231L35.9062 38.1978L35.9292 38.1716L35.9517 38.1453L35.9734 38.1182L35.9946 38.0906L36.0151 38.0625L36.0349 38.0339L36.0542 38.0049L36.0728 37.9753L36.0903 37.9453L36.1074 37.9148L36.1238 37.8838L36.1394 37.8523L36.1543 37.8206L36.1685 37.7883L36.1819 37.7559L36.1946 37.7227L36.2063 37.6895L36.2173 37.6555L36.2275 37.6216L36.2368 37.5872L36.2454 37.5522L36.2529 37.5173L36.2598 37.4819L36.2659 37.4463L36.2708 37.4102L36.2749 37.374L36.2783 37.3374L36.2805 37.3008L36.282 37.2637L36.2825 37.2266Z" fill="#E53935"/>
<path fillRule="evenodd" clipRule="evenodd" d="M35.8584 38.248L63.5898 65.9797L63.5649 66.0039L63.5395 66.0276L63.5137 66.0505L63.4871 66.073L63.46 66.0947L63.4324 66.116L63.4043 66.1365L63.3757 66.1563L63.3467 66.1755L63.3171 66.1941L63.2871 66.2119L63.2566 66.229L63.2256 66.2454L63.1943 66.261L63.1623 66.2759L63.1301 66.2898L63.0976 66.3032L63.0647 66.3159L63.0312 66.3276L62.9975 66.3386L62.9634 66.3489L62.9289 66.3582L62.8943 66.3667L62.8591 66.3745L62.8237 66.3811L62.7881 66.3872L62.7522 66.3923L62.7158 66.3965L62.6794 66.3997L62.6426 66.4021L62.6057 66.4033L62.5684 66.4038L34.8369 38.6724L34.874 38.6719L34.9111 38.6704L34.9478 38.6682L34.9844 38.6648L35.0205 38.6606L35.0566 38.6555L35.0923 38.6497L35.1277 38.6428L35.1628 38.6353L35.1975 38.6267L35.2319 38.6174L35.2661 38.6072L35.2998 38.5962L35.333 38.5845L35.3662 38.5718L35.3987 38.5583L35.4309 38.5442L35.4626 38.5293L35.4941 38.5137L35.5251 38.4973L35.5557 38.4802L35.5857 38.4626L35.6152 38.4441L35.6443 38.4248L35.6729 38.405L35.7009 38.3845L35.7285 38.3633L35.7556 38.3416L35.782 38.3191L35.8081 38.2961L35.8335 38.2725L35.8584 38.248Z" fill="#E53935"/>
<path fillRule="evenodd" clipRule="evenodd" d="M34.8369 38.6719L62.5684 66.4033H62.542L34.8105 38.6719H34.8369Z" fill="#E53935"/>
<path fillRule="evenodd" clipRule="evenodd" d="M34.8105 38.6719L62.542 66.4033H52.7314L25 38.6719H34.8105Z" fill="#E53935"/>
<path fillRule="evenodd" clipRule="evenodd" d="M25 38.6719L52.7314 66.4033H42.9209L15.1893 38.6719H25Z" fill="#E53935"/>
<path fillRule="evenodd" clipRule="evenodd" d="M15.1894 38.6719L42.9209 66.4033H42.8945L15.1631 38.6719H15.1894Z" fill="#E53935"/>
<path fillRule="evenodd" clipRule="evenodd" d="M15.1631 38.6716L42.8945 66.4031L42.8574 66.4026L42.8203 66.4014L42.7837 66.3989L42.747 66.3958L42.7109 66.3916L42.6748 66.3865L42.6391 66.3804L42.6037 66.3738L42.5688 66.366L42.5339 66.3574L42.4995 66.3481L42.4653 66.3379L42.4316 66.3269L42.3984 66.3152L42.3652 66.3025L42.3327 66.2891L42.3005 66.2751L42.2688 66.2603L42.2373 66.2446L42.2063 66.2283L42.1758 66.2112L42.1457 66.1934L42.1162 66.1748L42.0871 66.1555L42.0586 66.1357L42.0305 66.1152L42.0029 66.094L41.9758 66.0723L14.2444 38.3408L14.2714 38.3625L14.299 38.3838L14.3271 38.4043L14.3557 38.4241L14.3848 38.4434L14.4144 38.4619L14.4444 38.4795L14.4749 38.4966L14.5058 38.5129L14.5372 38.5286L14.569 38.5435L14.6012 38.5576L14.6338 38.571L14.6668 38.5837L14.7002 38.5955L14.734 38.6064L14.768 38.6167L14.8025 38.626L14.8372 38.6345L14.8723 38.6421L14.9077 38.6489L14.9434 38.6548L14.9794 38.6599L15.0156 38.6641L15.0521 38.6675L15.0889 38.6697L15.1259 38.6711L15.1631 38.6716Z" fill="#E53935"/>
<path fillRule="evenodd" clipRule="evenodd" d="M25 11.3281C27.3996 11.3281 29.6802 12.2833 31.3755 13.9787C33.0709 15.674 34.0261 17.9546 34.0261 20.3542V20.6196H34.8369C35.235 20.6196 35.5966 20.7821 35.8583 21.0438C36.12 21.3055 36.2825 21.6671 36.2825 22.0652V37.2263C36.2825 37.6244 36.12 37.986 35.8583 38.2477C35.5966 38.5094 35.235 38.6719 34.8369 38.6719H15.1631C14.765 38.6719 14.4034 38.5094 14.1417 38.2477C13.88 37.986 13.7175 37.6244 13.7175 37.2263V22.0652C13.7175 21.6671 13.88 21.3055 14.1417 21.0438C14.3991 20.7864 14.7531 20.625 15.1434 20.6197C15.15 20.6197 15.1565 20.6196 15.1631 20.6196H15.1894L15.974 20.6197V20.3542C15.974 17.9545 16.9291 15.674 18.6245 13.9787C20.3199 12.2833 22.6003 11.3281 25 11.3281Z" fill="#E53935"/>
</g>
<path fillRule="evenodd" clipRule="evenodd" d="M15.9739 20.9792V20.3542C15.9739 17.9545 16.929 15.674 18.6244 13.9787C20.3198 12.2833 22.6003 11.3281 24.9999 11.3281C27.3996 11.3281 29.6801 12.2833 31.3755 13.9787C33.0709 15.674 34.026 17.9546 34.026 20.3542V20.9792H31.9022V20.3542C31.9022 18.5186 31.1704 16.7769 29.8738 15.4804C28.5772 14.1837 26.8355 13.452 24.9999 13.452C23.1643 13.452 21.4227 14.1837 20.1261 15.4804C18.8295 16.7769 18.0977 18.5187 18.0977 20.3542V20.9792H15.9739H15.9739Z" fill="#BDBDBD"/>
<path fillRule="evenodd" clipRule="evenodd" d="M32.7276 20.9789H31.9023V20.3539C31.9023 18.5183 31.1705 16.7766 29.8739 15.4801C28.5773 14.1834 26.8356 13.4516 25 13.4516C23.1645 13.4516 21.4228 14.1834 20.1262 15.4801C18.8296 16.7766 18.0978 18.5183 18.0978 20.3539V20.9789H17.2726V20.6584C17.2726 18.5587 18.0903 16.5633 19.5418 15.0799C20.9933 13.5965 22.9457 12.7607 25 12.7607C27.0545 12.7607 29.0069 13.5965 30.4583 15.0799C31.9098 16.5633 32.7276 18.5588 32.7276 20.6584V20.9789Z" fill="#B6B6B6"/>
<path fillRule="evenodd" clipRule="evenodd" d="M15.1631 20.6195H15.9739V20.6045H18.0978V20.6195H31.9023V20.6045H34.0261V20.6195H34.8369C35.235 20.6195 35.5966 20.782 35.8583 21.0437C36.12 21.3054 36.2825 21.667 36.2825 22.0651V37.2262C36.2825 37.6243 36.12 37.9859 35.8583 38.2476C35.5966 38.5093 35.235 38.6718 34.8369 38.6718H15.1631C14.765 38.6718 14.4034 38.5093 14.1417 38.2476C13.88 37.9859 13.7175 37.6243 13.7175 37.2262V22.0651C13.7175 21.667 13.88 21.3054 14.1417 21.0437C14.4034 20.782 14.765 20.6195 15.1631 20.6195Z" fill="#DAC27C"/>
<path fillRule="evenodd" clipRule="evenodd" d="M25 25.1973C25.5639 25.1973 26.0745 25.4259 26.4441 25.7955C26.8138 26.1651 27.0424 26.6758 27.0424 27.2397C27.0424 27.5333 26.9786 27.815 26.8638 28.0717C26.7798 28.2593 26.6679 28.4332 26.5319 28.5873V32.6014H26.5126C26.4893 33.4219 25.8169 34.0799 24.9907 34.0799C24.1645 34.0799 23.4921 33.4219 23.4688 32.6014H23.4681V28.5874C23.3321 28.4332 23.2202 28.2593 23.1362 28.0717C23.0214 27.815 22.9575 27.5333 22.9575 27.2397C22.9575 26.6758 23.1862 26.1652 23.5558 25.7955C23.9254 25.4259 24.436 25.1973 25 25.1973Z" fill="#414141"/>
<path fillRule="evenodd" clipRule="evenodd" d="M15.1631 20.6192H15.1894V38.6715H15.1631C14.765 38.6715 14.4034 38.509 14.1417 38.2473C13.88 37.9856 13.7175 37.624 13.7175 37.2259V22.0648C13.7175 21.6667 13.88 21.3051 14.1417 21.0434C14.4034 20.7817 14.765 20.6192 15.1631 20.6192ZM34.8105 20.6192H34.8368C35.2349 20.6192 35.5965 20.7816 35.8582 21.0434C36.1199 21.3051 36.2824 21.6667 36.2824 22.0647V37.2259C36.2824 37.624 36.1199 37.9855 35.8582 38.2473C35.5965 38.509 35.2349 38.6715 34.8368 38.6715H34.8105V20.6191V20.6192Z" fill="#CFB76E"/>
<path fillRule="evenodd" clipRule="evenodd" d="M15.9739 20.9796V20.6201H18.0977V20.9796H15.9739Z" fill="#C7AD95"/>
<path fillRule="evenodd" clipRule="evenodd" d="M18.0977 20.6201V20.9795H17.2725V20.6591C17.2725 20.6461 17.2726 20.6331 17.2727 20.6201H18.0977Z" fill="#C2A88F"/>
<path fillRule="evenodd" clipRule="evenodd" d="M25 38.6723H15.1631C14.765 38.6723 14.4034 38.5098 14.1417 38.2481C13.88 37.9864 13.7175 37.6248 13.7175 37.2267V22.0656C13.7175 21.6675 13.88 21.3059 14.1417 21.0442C14.3991 20.7868 14.7531 20.6254 15.1434 20.6201H25V38.6723Z" fill="#DCB165"/>
<path fillRule="evenodd" clipRule="evenodd" d="M25 25.1963L25 34.0789L24.9907 34.079C24.1645 34.079 23.4921 33.421 23.4688 32.6004H23.4681V28.5864C23.3321 28.4322 23.2202 28.2584 23.1362 28.0708C23.0214 27.8141 22.9575 27.5324 22.9575 27.2387C22.9575 26.6748 23.1862 26.1642 23.5558 25.7946C23.9254 25.4249 24.436 25.1963 25 25.1963V25.1963Z" fill="#212121"/>
<path fillRule="evenodd" clipRule="evenodd" d="M15.1894 20.6201V38.6723H15.1631C14.765 38.6723 14.4034 38.5098 14.1417 38.2481C13.88 37.9864 13.7175 37.6248 13.7175 37.2267V22.0656C13.7175 21.6675 13.88 21.3059 14.1417 21.0442C14.3991 20.7868 14.7531 20.6254 15.1434 20.6201H15.1894Z" fill="#D4A95B"/>
</g>
<defs>
<clipPath id="clip0_71_1218">
<rect width="50" height="50" fill="white"/>
</clipPath>
</defs>
</svg>
