<svg xmlns="http://www.w3.org/2000/svg" viewBox="0 0 32 32" aria-hidden="true" role="presentation" focusable="false" style="display: block; height: 16px; width: 16px; fill: var(--linaria-theme_palette-white);"><path d="M17 24.5a3.5 3.5 0 0 0 7 .2v-8.58L20.77 20l-1.54-1.28 5-6 .09-.09a1 1 0 0 1 1.36 0l.09.09 5 6L29.23 20 26 16.12v8.38a5.5 5.5 0 0 1-11 .22V7.5a3.5 3.5 0 0 0-7-.2v8.93l3.23-3.87 1.54 1.28-5 6a1 1 0 0 1-1.45.09l-.09-.09-5-6 1.54-1.28L6 16.24V7.5a5.5 5.5 0 0 1 11-.22v.22z"></path></svg>