<svg xmlns="http://www.w3.org/2000/svg" xml:space="preserve" width="655.359" height="655.359" style="shape-rendering:geometricPrecision;text-rendering:geometricPrecision;image-rendering:optimizeQuality;fill-rule:evenodd;clip-rule:evenodd" viewBox="0 0 6.827 6.827"><defs><style>.fil0{fill:none}</style></defs><g id="Layer_x0020_1"><g id="_486851536"><path id="_486851488" class="fil0" d="M0 0h6.827v6.827H0z"/><path id="_486851320" class="fil0" d="M.853.853h5.12v5.12H.853z"/></g><g id="_486850480"><path id="_486851416" d="m2.1 5.058.001-.002L5.6 1.25a.216.216 0 0 1 .317.291L2.256 5.525l-.01.012A.215.215 0 0 1 2.1 5.6H2.1v-.542z" style="fill:black"/><path id="_486850672" d="m2.086 5.073.014-.015V5.6a.215.215 0 0 1-.16-.063l-.97-.97a.216.216 0 0 1 .305-.305l.811.81z" style="fill:black"/></g></g></svg>