<svg width="31" height="31" viewBox="0 0 31 31" fill="none" xmlns="http://www.w3.org/2000/svg">
<path d="M25.6644 5.36694H5.6992C5.22093 5.36746 4.7624 5.55766 4.42419 5.89582C4.08598 6.23398 3.89572 6.69249 3.89514 7.17076V7.50231C3.89593 7.93953 4.05535 8.36161 4.34379 8.69019C4.63224 9.01877 5.03011 9.23151 5.46355 9.28893V25.531C5.46352 25.5867 5.47446 25.6418 5.49574 25.6932C5.51703 25.7447 5.54825 25.7914 5.58761 25.8308C5.62698 25.8701 5.67371 25.9013 5.72515 25.9226C5.77658 25.9439 5.83171 25.9548 5.88738 25.9548H25.476C25.5317 25.9548 25.5868 25.9439 25.6382 25.9226C25.6897 25.9013 25.7364 25.8701 25.7757 25.8308C25.8151 25.7914 25.8463 25.7447 25.8676 25.6932C25.8889 25.6418 25.8998 25.5867 25.8998 25.531V9.28893C26.3333 9.23161 26.7312 9.01889 27.0197 8.69029C27.3082 8.3617 27.4675 7.93956 27.4682 7.50231V7.17076C27.4677 6.69251 27.2775 6.234 26.9393 5.89583C26.6012 5.55766 26.1427 5.36746 25.6644 5.36694ZM25.0522 25.1072H6.3112V9.30612H6.96293V24.1522C6.96293 24.2646 7.00758 24.3724 7.08707 24.4519C7.16655 24.5314 7.27435 24.576 7.38676 24.576H23.9766C24.0323 24.5761 24.0874 24.5651 24.1388 24.5438C24.1903 24.5226 24.237 24.4913 24.2764 24.452C24.3157 24.4126 24.3469 24.3659 24.3682 24.3144C24.3895 24.263 24.4005 24.2079 24.4004 24.1522V9.30612H25.0522V25.1072ZM15.0685 9.30612C14.8946 13.983 11.8672 16.0929 9.69868 16.0929H9.62336C9.68802 16.0355 9.75293 15.9784 9.81517 15.9152C11.5664 14.1407 11.8253 10.5488 11.8617 9.30612H15.0685ZM19.0568 23.7272V22.7391C19.0578 21.809 19.4277 20.9174 20.0854 20.2598C20.743 19.6021 21.6346 19.2322 22.5646 19.2312H22.6535C21.8785 19.989 20.9858 21.3649 20.8897 23.7272H19.0568ZM13.1542 23.7272V22.7391C13.1529 21.9163 12.9187 21.1107 12.4786 20.4155C12.0385 19.7203 11.4106 19.1639 10.6674 18.8108C10.9443 18.5557 11.1198 18.2092 11.1616 17.8351C11.2033 17.461 11.1086 17.0843 10.8948 16.7745C12.8471 16.2508 14.9764 14.4683 15.6817 11.233C16.3869 14.4683 18.5162 16.2508 20.4685 16.7745C20.2547 17.0843 20.16 17.461 20.2018 17.8351C20.2436 18.2092 20.4191 18.5557 20.6959 18.8108C19.9528 19.1639 19.3248 19.7203 18.8847 20.4155C18.4447 21.1107 18.2104 21.9163 18.2091 22.7391V23.7272H13.1542ZM9.60205 18.3836H7.80986V16.9406H9.60205C9.7934 16.9406 9.97691 17.0166 10.1122 17.1519C10.2475 17.2872 10.3235 17.4707 10.3235 17.6621C10.3235 17.8534 10.2475 18.0369 10.1122 18.1722C9.97691 18.3075 9.7934 18.3836 9.60205 18.3836ZM7.81059 19.5688C8.48387 20.1053 9.51486 21.3147 9.62433 23.7272H7.81059V19.5688ZM10.4746 23.7272C10.3778 21.3649 9.48628 19.989 8.71056 19.2312H8.79992C9.72974 19.2326 10.6211 19.6026 11.2784 20.2602C11.9358 20.9178 12.3055 21.8092 12.3066 22.7391V23.7272H10.4746ZM21.7613 18.3836C21.57 18.3836 21.3865 18.3075 21.2512 18.1722C21.1158 18.0369 21.0398 17.8534 21.0398 17.6621C21.0398 17.4707 21.1158 17.2872 21.2512 17.1519C21.3865 17.0166 21.57 16.9406 21.7613 16.9406H23.5535V18.3836H21.7613ZM23.5535 19.564V23.7272H21.7388C21.8478 21.3 22.8776 20.0963 23.5528 19.564H23.5535ZM23.5535 16.0581C23.018 15.9737 22.5255 15.7144 22.1529 15.3206C20.6402 13.7888 20.392 10.474 20.352 9.30612H23.5528L23.5535 16.0581ZM19.5017 9.30612C19.538 10.5488 19.7969 14.1407 21.5482 15.9152C21.6104 15.9784 21.6753 16.0363 21.74 16.0929H21.6647C19.4961 16.0929 16.4688 13.983 16.2949 9.30612H19.5017ZM9.21188 15.3196C8.83908 15.7135 8.34633 15.9728 7.81059 16.0571V9.30612H11.0123C10.9728 10.473 10.7263 13.7851 9.21188 15.3196ZM26.6206 7.50231C26.6203 7.75582 26.5195 7.99887 26.3402 8.17813C26.161 8.35739 25.9179 8.45821 25.6644 8.45847H5.6992C5.44566 8.45821 5.20259 8.3574 5.02329 8.17815C4.84399 7.99889 4.74312 7.75584 4.7428 7.50231V7.17076C4.74312 6.91722 4.84399 6.67417 5.02329 6.49492C5.20259 6.31567 5.44566 6.21486 5.6992 6.2146H25.6644C25.9179 6.21486 26.161 6.31568 26.3402 6.49493C26.5195 6.67419 26.6203 6.91725 26.6206 7.17076V7.50231Z" fill="black" fillOpacity="0.5"/>
</svg>
