<svg width="27" height="27" viewBox="0 0 27 27" fill="none" xmlns="http://www.w3.org/2000/svg">
<path d="M22.0829 18.9016C20.558 18.9016 19.3175 17.6746 19.3175 16.1662C19.3175 14.6578 20.558 13.4305 22.0829 13.4305C23.6078 13.4305 24.8485 14.6576 24.8485 16.1662C24.8487 17.6746 23.608 18.9016 22.0829 18.9016ZM22.0829 14.277C21.0246 14.277 20.1638 15.1248 20.1638 16.1664C20.1638 17.208 21.0246 18.0556 22.0829 18.0556C23.1414 18.0556 24.0024 17.2078 24.0024 16.1664C24.0024 15.1246 23.1414 14.277 22.0829 14.277Z" fill="#282D33" fillOpacity="0.5"/>
<path d="M6.64243 13.8687C4.61617 9.118 6.56502 3.151 9.52236 1.77969C9.65863 1.71641 9.81852 1.73012 9.94192 1.81619C10.0651 1.90183 10.1339 2.04674 10.1223 2.19672C9.86746 5.45085 10.252 9.05514 11.2341 12.6194L10.4182 12.8442C9.49304 9.48651 9.08509 6.08978 9.22726 2.96284C7.17568 4.63705 5.66664 9.42301 7.421 13.5367L6.64243 13.8687Z" fill="#282D33" fillOpacity="0.5"/>
<path d="M14.2031 11.6857C13.3439 8.25084 11.9581 5.07771 10.0839 2.25452C9.99868 2.12627 9.99004 1.96174 10.0611 1.82527C10.1322 1.68879 10.2721 1.60125 10.4258 1.59745C13.5988 1.51983 18.3271 6.50428 18.869 10.4895L18.0303 10.6036C17.5903 7.3668 14.0094 3.25057 11.2774 2.5473C12.9588 5.25595 14.2179 8.25675 15.0243 11.4805L14.2031 11.6857Z" fill="#282D33" fillOpacity="0.5"/>
<path d="M15.0647 19.8738L13.2711 13.0696L12.4526 13.2854L14.2462 20.0896L15.0647 19.8738Z" fill="#282D33" fillOpacity="0.5"/>
<path d="M5.73586 26.9999L5.03027 26.5325L7.26558 23.1583L5.05495 18.3684L5.8234 18.0138L8.13295 23.0181C8.19455 23.1512 8.18252 23.3068 8.10152 23.429L5.73586 26.9999Z" fill="#282D33" fillOpacity="0.5"/>
<path d="M20.4017 26.8737L19.6259 23.9269H7.66614V23.0804H19.9522C20.1441 23.0804 20.3125 23.21 20.3614 23.396L21.2201 26.6584L20.4017 26.8737Z" fill="#282D33" fillOpacity="0.5"/>
<path d="M10.2549 1.61227L9.83057 0.000488281L9.01213 0.215951L9.43645 1.82774L10.2549 1.61227Z" fill="#282D33" fillOpacity="0.5"/>
<path d="M20.4804 23.5153H19.6341V21.9959H9.28846C9.11823 21.9959 8.96467 21.8942 8.89865 21.7375C8.89401 21.7263 8.88852 21.7109 8.88367 21.6959L6.58508 16.7168L7.35353 16.3622L9.56352 21.1496H20.0572C20.2907 21.1496 20.4804 21.339 20.4804 21.5728V23.5153Z" fill="#282D33" fillOpacity="0.5"/>
<path d="M4.97329 15.7722C4.04769 15.7722 3.20584 15.2687 2.77595 14.4583L2.77912 14.4564L2.77363 14.4459L2.73187 14.368L2.72828 14.3606L2.7287 14.3594C2.49709 13.6897 2.33826 13.0109 2.25705 12.3418C1.50126 7.37735 4.88069 2.30051 9.79152 1.03762L9.86809 1.02159L9.86767 1.0199C10.6165 0.834068 11.3942 0.73999 12.1793 0.73999C16.4647 0.73999 20.4998 3.48935 21.9915 7.42565C22.2067 7.9454 22.3841 8.52485 22.5155 9.13847L22.5227 9.1526L22.5591 9.33042L22.5579 9.41733C22.5745 10.5401 21.8126 11.5311 20.7052 11.8155C19.992 11.9971 19.2244 11.8456 18.6393 11.4297C18.3126 12.0848 17.7112 12.5837 16.9786 12.7714C16.2418 12.9615 15.4316 12.8043 14.8192 12.3641C14.5015 13.0455 13.8892 13.5639 13.126 13.7601C12.3852 13.9493 11.5969 13.7998 10.9926 13.3751C10.6686 14.0398 10.0611 14.5465 9.31544 14.7378C8.58306 14.9253 7.80639 14.7791 7.20564 14.3661C6.8983 15.015 6.31337 15.5084 5.58712 15.6946C5.38715 15.7463 5.18043 15.7722 4.97329 15.7722ZM3.52098 14.0609L3.5233 14.0617C3.80174 14.5868 4.37106 14.9262 4.97329 14.9262C5.10955 14.9262 5.2454 14.9091 5.37723 14.8751C6.01448 14.7119 6.48613 14.1902 6.57873 13.5462L7.32398 13.3374C7.75091 13.8548 8.44785 14.0864 9.10577 13.9183C9.7679 13.7483 10.2676 13.2104 10.3784 12.5476L11.1244 12.3506C11.5514 12.8773 12.2546 13.11 12.9161 12.9406C13.5973 12.7657 14.0993 12.2097 14.1948 11.5246L14.9496 11.3253C15.2776 11.7528 15.7931 12.0078 16.3285 12.0078C16.4766 12.0078 16.6242 11.9891 16.7679 11.952C17.4201 11.7847 17.9168 11.2519 18.0341 10.5939L18.7857 10.4098C19.178 10.9179 19.8663 11.1561 20.4958 10.9958C21.211 10.8123 21.7226 10.1484 21.712 9.41775L21.7122 9.40615L21.7004 9.37303C21.5785 8.7881 21.4121 8.23755 21.2051 7.73742C19.8305 4.11077 16.1209 1.58627 12.1795 1.58627C11.463 1.58627 10.754 1.67212 10.0721 1.8413L10.0204 1.85311L10.0109 1.85522C5.50021 3.01537 2.40154 7.66739 3.09531 12.2276C3.17019 12.8425 3.313 13.4551 3.52098 14.0609Z" fill="#282D33" fillOpacity="0.5"/>
</svg>
