<svg width="29" height="29" viewBox="0 0 29 29" fill="none" xmlns="http://www.w3.org/2000/svg">
<g clip-path="url(#clip0_203_37)">
<path d="M20.7294 12.0681L23.4693 10.1778H6.15931V13.746H14.8929L15.9846 13.7588C18.083 13.7885 18.2402 13.7885 20.7294 12.0681ZM25.1769 10.0971L21.2391 12.8157C18.512 14.6933 18.3379 14.6933 15.9718 14.6636C15.7212 14.6636 15.4408 14.6551 14.8929 14.6551H5.25452V9.2688H26.3705L25.1769 10.0971Z" fill="#212121"/>
<path d="M16.3669 9.89757L15.0075 6.66072C14.9727 6.5618 14.9256 6.46762 14.8674 6.38036L14.8589 6.37186H10.0248C10.0163 6.37186 10.0078 6.37186 10.0036 6.38036C9.96112 6.42708 9.91864 6.50779 9.89315 6.60549L8.98836 9.8466L8.11755 9.60022L9.02234 6.36337C9.08044 6.12962 9.19743 5.91464 9.36217 5.73893C9.4481 5.65034 9.55116 5.58016 9.66509 5.53269C9.77902 5.48522 9.90142 5.46145 10.0248 5.46282H14.8589C15.1732 5.46282 15.3941 5.59876 15.564 5.80265C15.6915 5.95557 15.7679 6.13398 15.8444 6.31239L17.2037 9.54925L16.3669 9.89757Z" fill="#212121"/>
<path d="M15.7169 8.27488H9.3324V7.36584H15.7169V8.27488Z" fill="#212121"/>
<path d="M5.70479 12.4165C5.81721 12.4056 5.92154 12.3532 5.99745 12.2696C6.07337 12.186 6.11542 12.0771 6.11542 11.9641C6.11542 11.8512 6.07337 11.7423 5.99745 11.6586C5.92154 11.575 5.81721 11.5226 5.70479 11.5117H4.07787C3.96545 11.5226 3.86111 11.575 3.7852 11.6586C3.70929 11.7423 3.66724 11.8512 3.66724 11.9641C3.66724 12.0771 3.70929 12.186 3.7852 12.2696C3.86111 12.3532 3.96545 12.4056 4.07787 12.4165H5.70479Z" fill="#212121"/>
<path d="M21.7489 16.5454C22.1864 12.4377 21.5705 7.98599 20.8271 5.78136C20.7198 5.42281 20.5655 5.08002 20.3683 4.76188C20.1135 5.35233 19.9351 6.78385 19.9351 9.34105H19.0303C19.0303 6.62244 19.2427 5.05923 19.5485 4.37533C19.9011 3.60222 20.3641 3.51727 20.8738 3.98028C21.1584 4.23515 21.4346 4.76188 21.6809 5.49251C22.4583 7.78635 23.0997 12.3953 22.6494 16.6388L21.7489 16.5454ZM20.2876 4.66418C20.2821 4.65838 20.2764 4.65271 20.2706 4.64719L20.2876 4.66418Z" fill="#212121"/>
<path d="M23.4055 24.3402L22.6749 23.0743L22.5347 22.8322L22.6877 22.6028C23.4608 21.4177 23.6901 20.292 23.5585 19.298C23.4062 18.2832 22.9116 17.3509 22.1567 16.6558C21.4033 17.3515 20.9102 18.2837 20.7591 19.298C20.6317 20.292 20.8611 21.4219 21.6342 22.6028L21.7829 22.8322L21.6427 23.0743L20.9121 24.3444H23.4098L23.4055 24.3402ZM23.5924 22.8619L24.5822 24.5738L24.973 25.2535H19.3446L19.7397 24.5738L20.7252 22.8619C19.9436 21.5621 19.7142 20.3132 19.8671 19.179C20.054 17.7688 20.8356 16.5624 21.8721 15.7043L22.1609 15.4664L22.4455 15.7043C23.4862 16.5624 24.2679 17.7688 24.4548 19.179C24.6034 20.309 24.374 21.5621 23.5924 22.8619Z" fill="#212121"/>
<path d="M22.2034 18.406C22.4544 18.406 22.6579 18.2025 22.6579 17.9515C22.6579 17.7004 22.4544 17.4969 22.2034 17.4969C21.9524 17.4969 21.7489 17.7004 21.7489 17.9515C21.7489 18.2025 21.9524 18.406 22.2034 18.406Z" fill="#212121"/>
</g>
<defs>
<clipPath id="clip0_203_37">
<rect width="29" height="29" fill="white"/>
</clipPath>
</defs>
</svg>
