<svg width="26" height="26" viewBox="0 0 26 26" fill="none" xmlns="http://www.w3.org/2000/svg">
<path d="M25.4583 25.43H0.541622C0.445641 25.4298 0.351427 25.4039 0.268624 25.3549C0.185821 25.3059 0.117403 25.2355 0.0703723 25.151C0.0228311 25.0678 -0.00219727 24.9735 -0.00219727 24.8775C-0.00219727 24.7814 0.0228311 24.6871 0.0703723 24.6039L12.3662 4.20865L9.83121 0.00158381L10.752 -0.545499L13 3.15825L15.2479 -0.567383L16.1687 -0.0202995L13.6337 4.20865L25.9187 24.5984C25.9662 24.6816 25.9913 24.776 25.9913 24.872C25.9913 24.968 25.9662 25.0624 25.9187 25.1455C25.8733 25.2295 25.8069 25.2999 25.7261 25.3498C25.6453 25.3997 25.553 25.4274 25.4583 25.43ZM1.50579 24.3358H24.4941L13 5.26453L1.50579 24.3358Z" fill="#1E0F00" fillOpacity="0.5"/>
<path d="M12.4583 4.09375H13.5416V11.2058H12.4583V4.09375Z" fill="#1E0F00" fillOpacity="0.5"/>
<path d="M21.3471 25.3261C15.9629 21.3269 13.8396 16.8408 13 14.0234C12.1604 16.8408 10.0371 21.3269 4.65292 25.3261L4.01375 24.4398C12.0629 18.4657 12.4583 11.2551 12.4583 11.2059C12.4583 11.0608 12.5154 10.9216 12.617 10.819C12.7186 10.7164 12.8563 10.6588 13 10.6588C13.1437 10.6588 13.2814 10.7164 13.383 10.819C13.4846 10.9216 13.5417 11.0608 13.5417 11.2059C13.5417 11.277 13.9642 18.5094 21.9863 24.4617L21.3471 25.3261ZM24.9167 19.4121H26V24.883H24.9167V19.4121ZM0 19.4121H1.08333V24.883H0V19.4121ZM2.16667 -0.829956H5.41667V0.264211H2.16667V-0.829956ZM4.33333 1.90546H7.58333V2.99963H4.33333V1.90546ZM0 6.28213H3.25V7.37629H0V6.28213ZM18.4167 0.811294H21.6667V1.90546H18.4167V0.811294ZM22.75 4.64088H26V5.73504H22.75V4.64088ZM20.5833 8.47046H23.8333V9.56463H20.5833V8.47046Z" fill="#1E0F00" fillOpacity="0.5"/>
</svg>
