<svg width="29" height="29" viewBox="0 0 29 29" fill="none" xmlns="http://www.w3.org/2000/svg">
<g clipPath="url(#clip0_203_48)">
<path d="M21.6821 8.29214C21.2969 8.11089 21.025 7.88433 20.9571 7.61245C15.1344 10.3312 13.254 18.2382 13.254 18.2382V16.8789C13.3446 14.9304 13.6844 11.1468 14.4094 9.76479C14.7266 9.17573 16.018 8.63198 16.9016 8.45073C16.2899 8.31479 15.8821 8.08823 15.8821 7.7937C15.6102 7.90698 15.3383 7.99761 15.1344 8.06558C15.361 7.70308 16.018 7.09136 16.154 7.00073C15.7915 7.02339 15.4063 7.02339 15.0211 7.02339H14.7266C13.8883 8.11089 12.7782 10.014 12.6649 11.8039C12.3477 10.671 11.8493 9.53823 11.0563 8.63198C10.8524 8.83589 10.5352 9.01714 10.15 9.17573C10.875 9.92339 11.3282 10.9429 11.6227 11.9625C11.1922 11.7812 10.7391 11.6 10.354 11.4414C10.2407 11.6679 9.92349 11.8718 9.51567 12.0078C9.99145 12.257 11.3055 12.9367 11.9172 13.2085C11.8719 14.9531 11.9399 17.6265 11.9399 18.3968C11.9399 18.0343 7.95239 12.8687 5.55083 11.1921C5.30161 11.396 4.87114 11.5546 4.32739 11.6679V11.6906C4.96177 11.8945 6.3438 13.0953 7.02349 13.8429C6.72896 13.707 6.16255 13.4125 5.68677 13.1859C5.73208 13.2765 5.75474 13.3445 5.75474 13.4351C5.75474 13.6617 5.59614 13.8882 5.30161 14.0695C7.9977 14.9078 9.69692 17.6945 9.71958 17.7171C11.3282 20.0054 9.9688 24.4687 9.9688 24.4687H14.3188C14.0469 22.7242 14.0016 17.6039 18.6461 14.5226C18.329 14.3187 18.1477 14.0695 18.1477 13.8203C18.1477 13.639 18.2383 13.4578 18.3969 13.3218C17.3774 13.7976 16.4485 14.5906 15.6782 15.4062C16.1993 14.0015 17.9211 11.2601 20.504 10.7617C20.4586 10.671 20.436 10.6031 20.436 10.5125C20.436 10.2406 20.6399 9.99136 20.9571 9.78745C20.368 9.92339 19.0993 10.1953 18.7141 10.3765C19.575 9.42495 20.9344 8.65464 21.6821 8.29214Z" fill="#161616"/>
<path d="M5.73208 13.4578C5.73208 13.6844 5.57349 13.9109 5.27895 14.0922C4.78052 14.4094 3.87427 14.6359 2.87739 14.6359C1.29145 14.6359 0.0227051 14.1148 0.0227051 13.4805C0.0227051 12.8461 1.31411 12.325 2.87739 12.325C4.23677 12.325 5.39224 12.7102 5.68677 13.2312C5.70942 13.2766 5.73208 13.3672 5.73208 13.4578ZM3.21724 9.92344C1.8352 9.92344 0.702393 10.3312 0.702393 10.8523C0.702393 11.3734 1.8352 11.7812 3.21724 11.7812C3.60239 11.7812 3.98755 11.7586 4.30474 11.6906C4.84849 11.6 5.27895 11.4187 5.52817 11.2148C5.66411 11.1016 5.73208 10.9883 5.73208 10.8523C5.73208 10.3312 4.59927 9.92344 3.21724 9.92344ZM8.54146 10.3086C7.49927 10.3086 6.66099 10.7164 6.66099 11.2375C6.66099 11.7586 7.49927 12.1664 8.54146 12.1664C8.90396 12.1664 9.22114 12.1211 9.51567 12.0305C9.92349 11.9172 10.2407 11.7133 10.354 11.4641C10.3993 11.3961 10.4219 11.3055 10.4219 11.2375C10.4219 10.7164 9.58364 10.3086 8.54146 10.3086ZM7.31802 6.50234C5.09771 6.50234 3.30786 7.20469 3.30786 8.06562C3.30786 8.92656 5.09771 9.62891 7.31802 9.62891C8.42817 9.62891 9.40239 9.44766 10.15 9.17578C10.5352 9.01719 10.8524 8.83594 11.0563 8.63203C11.2375 8.45078 11.3282 8.26953 11.3282 8.04297C11.3282 7.20469 9.53833 6.50234 7.31802 6.50234ZM15.0211 4.53125C12.2118 4.53125 9.94614 5.09766 9.94614 5.8C9.94614 6.47969 12.0532 7.02344 14.7266 7.06875H15.0211C15.4063 7.06875 15.7915 7.06875 16.154 7.04609C18.4196 6.91016 20.0961 6.41172 20.0961 5.82266C20.0735 5.09766 17.8079 4.53125 15.0211 4.53125ZM17.7852 7.04609C16.7204 7.04609 15.8594 7.38594 15.8594 7.79375C15.8594 8.08828 16.2672 8.3375 16.879 8.45078C17.1508 8.51875 17.4454 8.54141 17.7852 8.54141C18.85 8.54141 19.6883 8.20156 19.6883 7.79375C19.6883 7.38594 18.8274 7.04609 17.7852 7.04609ZM29 6.59297C28.8868 5.73203 26.9836 5.23359 24.7633 5.48281C22.543 5.73203 20.8211 6.63828 20.9344 7.49922C20.9344 7.52187 20.9344 7.56719 20.9571 7.58984C21.025 7.86172 21.2969 8.08828 21.6821 8.26953C22.4524 8.63203 23.7438 8.76797 25.1711 8.60937C27.3915 8.38281 29.1133 7.47656 29 6.59297ZM23.3133 9.24375C22.3391 9.24375 21.4782 9.44766 20.9344 9.7875C20.6172 9.99141 20.4133 10.2406 20.4133 10.5125C20.4133 10.6031 20.436 10.6937 20.4813 10.7617C20.7532 11.3281 21.9086 11.7586 23.3133 11.7586C24.8993 11.7586 26.1907 11.1922 26.1907 10.4898C26.1907 9.7875 24.8993 9.24375 23.3133 9.24375ZM21.6368 12.4383C20.1641 12.4383 18.8954 12.8008 18.3743 13.3219C18.2157 13.4805 18.125 13.6391 18.125 13.8203C18.125 14.0695 18.3063 14.3187 18.6235 14.5227C19.2352 14.9305 20.3454 15.2023 21.6368 15.2023C23.5625 15.2023 25.1485 14.5906 25.1485 13.8203C25.1485 13.05 23.5852 12.4383 21.6368 12.4383Z" fill="#161616"/>
</g>
<defs>
<clipPath id="clip0_203_48">
<rect width="29" height="29" fill="white"/>
</clipPath>
</defs>
</svg>
