<svg width="29" height="29" viewBox="0 0 29 29" fill="none" xmlns="http://www.w3.org/2000/svg">
<path d="M26.4369 12.1397H19.5546C19.468 9.71313 18.4322 7.41756 16.67 5.7471C14.9078 4.07664 12.5601 3.16486 10.1324 3.20801C7.70467 3.25116 5.39093 4.24579 3.68921 5.97782C1.9875 7.70985 1.03386 10.0408 1.03357 12.4689V25.3977C1.03363 25.5028 1.07542 25.6036 1.14976 25.678C1.22411 25.7523 1.32492 25.7941 1.43005 25.7942H27.5697C27.6749 25.7942 27.7757 25.7524 27.8501 25.678C27.9244 25.6037 27.9662 25.5028 27.9662 25.3977V13.669C27.9658 13.2635 27.8045 12.8748 27.5178 12.5881C27.2311 12.3014 26.8424 12.1401 26.4369 12.1397ZM25.1156 25.0014H3.88667V19.3634H5.52381V22.1825C5.52381 22.2877 5.56558 22.3885 5.63994 22.4629C5.71429 22.5373 5.81514 22.579 5.9203 22.579H7.40859C7.51374 22.579 7.61459 22.5373 7.68894 22.4629C7.7633 22.3885 7.80507 22.2877 7.80507 22.1825V19.3634H9.44221V22.1825C9.44221 22.2877 9.48398 22.3885 9.55834 22.4629C9.63269 22.5373 9.73354 22.579 9.83869 22.579H11.3281C11.4333 22.579 11.5341 22.5373 11.6085 22.4629C11.6828 22.3885 11.7246 22.2877 11.7246 22.1825V19.3634H13.3617V22.1825C13.3617 22.2877 13.4035 22.3885 13.4779 22.4629C13.5522 22.5373 13.6531 22.579 13.7582 22.579H15.2454C15.3505 22.579 15.4514 22.5373 15.5257 22.4629C15.6001 22.3885 15.6419 22.2877 15.6419 22.1825V19.3634H17.279V22.1825C17.279 22.2877 17.3208 22.3885 17.3951 22.4629C17.4695 22.5373 17.5703 22.579 17.6755 22.579H19.1638C19.2689 22.579 19.3698 22.5373 19.4441 22.4629C19.5185 22.3885 19.5603 22.2877 19.5603 22.1825V19.3634H21.1974V22.1825C21.1974 22.2877 21.2392 22.3885 21.3135 22.4629C21.3879 22.5373 21.4887 22.579 21.5939 22.579H23.082C23.1871 22.579 23.288 22.5373 23.3623 22.4629C23.4367 22.3885 23.4784 22.2877 23.4784 22.1825V19.3634H25.1156V25.0014ZM6.31723 21.7861V19.3634H7.01233V21.7861H6.31723ZM10.2354 21.7861V19.3634H10.9307V21.7861H10.2354ZM14.1549 21.7861V19.3634H14.8489V21.7861H14.1549ZM18.0731 21.7861V19.3634H18.7684V21.7861H18.0731ZM21.9926 21.7861V19.3634H22.6877V21.7861H21.9926ZM27.1755 25.0014H25.9108V18.9669C25.9108 18.8618 25.869 18.7609 25.7947 18.6866C25.7203 18.6122 25.6195 18.5705 25.5143 18.5705H3.49245C3.3873 18.5705 3.28645 18.6122 3.2121 18.6866C3.13774 18.7609 3.09597 18.8618 3.09597 18.9669V25.0014H1.82722V12.4689C1.8388 10.23 2.73631 8.08676 4.32356 6.5077C5.91081 4.92864 8.05867 4.04221 10.2976 4.04221C12.5365 4.04221 14.6844 4.92864 16.2716 6.5077C17.8589 8.08676 18.7564 10.23 18.768 12.4689V12.5369C18.768 12.5889 18.7782 12.6405 18.7982 12.6886C18.8181 12.7367 18.8473 12.7804 18.8841 12.8172C18.9209 12.854 18.9646 12.8832 19.0127 12.9032C19.0608 12.9231 19.1124 12.9334 19.1645 12.9334H26.4371C26.6323 12.9336 26.8195 13.0112 26.9575 13.1493C27.0956 13.2873 27.1732 13.4745 27.1734 13.6697L27.1755 25.0014Z" fill="#241C49" stroke="#0A2119" stroke-miterlimit="10"/>
<path d="M9.411 5.76631C7.91301 5.96032 6.5237 6.65214 5.46617 7.73067C4.40864 8.8092 3.74426 10.2118 3.57973 11.7134C3.57394 11.7651 3.5784 11.8175 3.59287 11.8675C3.60735 11.9176 3.63154 11.9643 3.66407 12.0049C3.6966 12.0456 3.73683 12.0795 3.78246 12.1046C3.82809 12.1297 3.87823 12.1456 3.93 12.1513C3.94504 12.153 3.96017 12.1538 3.97531 12.1538C4.0728 12.1537 4.16683 12.1176 4.23942 12.0525C4.31202 11.9875 4.3581 11.8979 4.36885 11.801C4.51429 10.4758 5.10087 9.23795 6.03439 8.28618C6.96791 7.33442 8.19421 6.72399 9.51635 6.55294C9.56849 6.54679 9.61889 6.53035 9.66462 6.50457C9.71036 6.47878 9.75052 6.44418 9.78277 6.40275C9.81502 6.36132 9.83873 6.3139 9.85251 6.26324C9.86628 6.21258 9.86987 6.15969 9.86304 6.10763C9.85621 6.05558 9.83912 6.0054 9.81274 5.96C9.78637 5.9146 9.75124 5.8749 9.7094 5.84319C9.66755 5.81148 9.61983 5.78839 9.56899 5.77527C9.51816 5.76215 9.46522 5.75926 9.41326 5.76676L9.411 5.76631Z" fill="#241C49" stroke="#0A2119" stroke-miterlimit="10"/>
</svg>
