<svg width="29" height="29" viewBox="0 0 29 29" fill="none" xmlns="http://www.w3.org/2000/svg">
<g clipPath="url(#clip0_204_103)">
<path d="M28.6035 18.3516C28.0779 18.3379 27.5608 18.4861 27.1222 18.7762C27.0779 17.8012 26.6598 16.8808 25.9548 16.206C25.2497 15.5312 24.3119 15.1539 23.3359 15.1523H21.4401V11.7654H23.6207C23.6932 11.7654 23.7642 11.7456 23.8262 11.708C23.8881 11.6705 23.9386 11.6167 23.9721 11.5525C24.0057 11.4882 24.021 11.4161 24.0164 11.3438C24.0118 11.2715 23.9875 11.2018 23.9461 11.1424L22.3305 8.8217H23.6219C23.6943 8.82169 23.7654 8.80184 23.8273 8.7643C23.8893 8.72675 23.9397 8.67295 23.9733 8.60874C24.0068 8.54452 24.0221 8.47235 24.0175 8.40005C24.0129 8.32776 23.9886 8.2581 23.9472 8.19865L22.3305 5.87775H23.6219C23.6943 5.87774 23.7654 5.85789 23.8273 5.82034C23.8893 5.7828 23.9397 5.729 23.9733 5.66478C24.0068 5.60057 24.0221 5.52839 24.0175 5.4561C24.0129 5.3838 23.9886 5.31415 23.9472 5.2547L20.406 0.169956C20.3675 0.120493 20.3183 0.0804715 20.262 0.0529422C20.2057 0.0254129 20.1438 0.0111028 20.0811 0.0111028C20.0185 0.0111028 19.9566 0.0254129 19.9003 0.0529422C19.844 0.0804715 19.7947 0.120493 19.7562 0.169956L16.2151 5.2547C16.1738 5.31418 16.1495 5.38384 16.145 5.45613C16.1404 5.52842 16.1557 5.60057 16.1893 5.66476C16.2228 5.72896 16.2733 5.78274 16.3352 5.82029C16.3972 5.85783 16.4682 5.8777 16.5406 5.87775H17.8321L16.2151 8.19865C16.1738 8.25814 16.1495 8.3278 16.145 8.40008C16.1404 8.47237 16.1557 8.54452 16.1893 8.60872C16.2228 8.67291 16.2733 8.72669 16.3352 8.76424C16.3972 8.80178 16.4682 8.82165 16.5406 8.8217H17.8321L16.2151 11.1426C16.1738 11.2021 16.1495 11.2718 16.145 11.344C16.1404 11.4163 16.1557 11.4885 16.1893 11.5527C16.2228 11.6169 16.2733 11.6706 16.3352 11.7082C16.3972 11.7457 16.4682 11.7656 16.5406 11.7657H18.7213V15.1523H10.2787V11.7657H12.4594C12.5318 11.7656 12.6028 11.7458 12.6648 11.7082C12.7268 11.6707 12.7772 11.6169 12.8108 11.5527C12.8443 11.4885 12.8596 11.4163 12.855 11.344C12.8504 11.2717 12.8261 11.2021 12.7847 11.1426L11.1695 8.8217H12.4609C12.5334 8.82169 12.6044 8.80184 12.6664 8.7643C12.7283 8.72675 12.7788 8.67295 12.8124 8.60874C12.8459 8.54452 12.8612 8.47235 12.8566 8.40005C12.852 8.32776 12.8277 8.2581 12.7863 8.19865L11.1695 5.87775H12.4609C12.5334 5.87774 12.6044 5.85789 12.6664 5.82034C12.7283 5.7828 12.7788 5.729 12.8124 5.66478C12.8459 5.60057 12.8612 5.52839 12.8566 5.4561C12.852 5.3838 12.8277 5.31415 12.7863 5.2547L9.24375 0.169956C9.2053 0.120287 9.15599 0.0800803 9.09959 0.052419C9.0432 0.0247578 8.98122 0.010376 8.91841 0.010376C8.85559 0.010376 8.79361 0.0247578 8.73722 0.052419C8.68083 0.0800803 8.63151 0.120287 8.59306 0.169956L5.05393 5.2547C5.01245 5.31413 4.98807 5.3838 4.98343 5.45612C4.97879 5.52845 4.99407 5.60066 5.02762 5.66491C5.06117 5.72915 5.11169 5.78296 5.17369 5.82049C5.23569 5.85801 5.3068 5.87782 5.37927 5.87775H6.67068L5.05393 8.19865C5.01245 8.25808 4.98807 8.32775 4.98343 8.40008C4.97879 8.4724 4.99407 8.54462 5.02762 8.60886C5.06117 8.6731 5.11169 8.72691 5.17369 8.76444C5.23569 8.80197 5.3068 8.82177 5.37927 8.8217H6.67068L5.05393 11.1426C5.01245 11.202 4.98807 11.2717 4.98343 11.344C4.97879 11.4164 4.99407 11.4886 5.02762 11.5528C5.06117 11.6171 5.11169 11.6709 5.17369 11.7084C5.23569 11.7459 5.3068 11.7657 5.37927 11.7657H7.55994V15.1523H5.66406C4.68795 15.1539 3.74997 15.5315 3.0449 16.2065C2.33983 16.8815 1.92184 17.8022 1.87775 18.7773C1.43937 18.4868 0.922225 18.3381 0.396484 18.3516C0.291349 18.3517 0.190536 18.3934 0.116194 18.4678C0.0418516 18.5421 6.00262e-05 18.6429 0 18.7481L0 28.6035C6.00262e-05 28.7087 0.0418516 28.8095 0.116194 28.8838C0.190536 28.9582 0.291349 29 0.396484 29H28.6035C28.7087 29 28.8095 28.9583 28.8839 28.8839C28.9582 28.8096 29 28.7087 29 28.6035V18.7481C29 18.6429 28.9582 18.5421 28.8839 18.4677C28.8095 18.3934 28.7087 18.3516 28.6035 18.3516ZM18.9157 8.65178C18.957 8.59231 18.9813 8.52267 18.9858 8.4504C18.9904 8.37813 18.9751 8.306 18.9415 8.24181C18.908 8.17763 18.8576 8.12384 18.7957 8.08628C18.7338 8.04872 18.6628 8.02881 18.5904 8.02873H17.299L18.9157 5.70782C18.957 5.64835 18.9813 5.57871 18.9858 5.50645C18.9904 5.43418 18.9751 5.36205 18.9415 5.29786C18.908 5.23367 18.8576 5.17989 18.7957 5.14232C18.7338 5.10476 18.6628 5.08486 18.5904 5.08478H17.299L20.0807 1.09048L22.8615 5.08478H21.5701C21.4977 5.08482 21.4266 5.10469 21.3647 5.14224C21.3028 5.17978 21.2523 5.23357 21.2187 5.29776C21.1852 5.36195 21.1699 5.4341 21.1744 5.50639C21.179 5.57868 21.2032 5.64834 21.2445 5.70782L22.8604 8.02873H21.569C21.4965 8.02877 21.4255 8.04864 21.3636 8.08619C21.3016 8.12373 21.2512 8.17752 21.2176 8.24171C21.1841 8.30591 21.1687 8.37806 21.1733 8.45034C21.1778 8.52263 21.2021 8.59229 21.2434 8.65178L22.8593 10.9725H17.2996L18.9157 8.65178ZM19.5143 11.7654H20.6471V15.1523H19.5143V11.7654ZM7.7541 8.65178C7.7955 8.59233 7.81981 8.52267 7.82441 8.45038C7.82901 8.37808 7.81371 8.30591 7.78018 8.24169C7.74665 8.17748 7.69616 8.12368 7.63421 8.08613C7.57226 8.04859 7.5012 8.02874 7.42876 8.02873H6.13735L7.7532 5.70782C7.79459 5.64837 7.81891 5.57872 7.8235 5.50642C7.8281 5.43413 7.8128 5.36195 7.77927 5.29774C7.74574 5.23352 7.69526 5.17972 7.6333 5.14218C7.57135 5.10464 7.50029 5.08478 7.42785 5.08478H6.13645L8.91931 1.09048L11.7001 5.08478H10.4099C10.3374 5.08478 10.2664 5.10464 10.2044 5.14218C10.1425 5.17972 10.092 5.23352 10.0584 5.29774C10.0249 5.36195 10.0096 5.43413 10.0142 5.50642C10.0188 5.57872 10.0431 5.64837 10.0845 5.70782L11.7001 8.02873H10.4099C10.3374 8.02874 10.2664 8.04859 10.2044 8.08613C10.1425 8.12368 10.092 8.17748 10.0584 8.24169C10.0249 8.30591 10.0096 8.37808 10.0142 8.45038C10.0188 8.52267 10.0431 8.59233 10.0845 8.65178L11.7001 10.9727H6.13826L7.7541 8.65178ZM8.35291 11.7657H9.48572V15.1523H8.35291V11.7657ZM2.66211 18.9472C2.66301 18.1513 2.97957 17.3883 3.54235 16.8255C4.10514 16.2627 4.86817 15.9462 5.66406 15.9453H23.3359C24.1318 15.9462 24.8949 16.2627 25.4576 16.8255C26.0204 17.3883 26.337 18.1513 26.3379 18.9472V19.1881C26.1564 19.2368 25.9691 19.2603 25.7812 19.2578C25.3494 19.2683 24.927 19.1305 24.5843 18.8675C24.109 18.5317 23.5413 18.3515 22.9594 18.3515C22.3775 18.3515 21.8098 18.5317 21.3345 18.8675C20.9872 19.121 20.5684 19.2576 20.1385 19.2576C19.7085 19.2576 19.2897 19.121 18.9424 18.8675C18.4672 18.5317 17.8996 18.3514 17.3178 18.3514C16.7359 18.3514 16.1683 18.5317 15.6931 18.8675C15.346 19.121 14.9273 19.2576 14.4975 19.2576C14.0677 19.2576 13.649 19.121 13.3019 18.8675C12.8269 18.5317 12.2594 18.3514 11.6776 18.3514C11.0958 18.3514 10.5283 18.5317 10.0533 18.8675C9.71125 19.1301 9.28969 19.2679 8.85859 19.2578C8.42713 19.2683 8.00511 19.1306 7.6628 18.8677C7.19221 18.5219 6.62088 18.3405 6.03698 18.3516C5.45361 18.3407 4.88286 18.5221 4.41276 18.8677C4.07048 19.1305 3.64857 19.2681 3.21719 19.2578C3.02991 19.2604 2.84319 19.237 2.66234 19.1883L2.66211 18.9472ZM0.792969 19.1765C1.0823 19.2363 1.35508 19.3586 1.59228 19.5347C2.07068 19.8642 2.63633 20.0439 3.21719 20.0508C3.80064 20.0617 4.37147 19.8804 4.84164 19.5347C5.18381 19.2719 5.60566 19.1342 6.03698 19.1446C6.46846 19.1341 6.89049 19.2718 7.23278 19.5347C7.70337 19.8805 8.27469 20.0619 8.85859 20.0508C9.44204 20.0617 10.0129 19.8804 10.483 19.5347C10.8301 19.2812 11.2488 19.1446 11.6786 19.1446C12.1084 19.1446 12.5271 19.2812 12.8742 19.5347C13.3493 19.8705 13.9167 20.0508 14.4985 20.0508C15.0803 20.0508 15.6478 19.8705 16.1229 19.5347C16.4701 19.2811 16.8889 19.1445 17.3189 19.1445C17.7489 19.1445 18.1677 19.2811 18.5149 19.5347C18.9902 19.8704 19.5578 20.0507 20.1397 20.0507C20.7216 20.0507 21.2892 19.8704 21.7645 19.5347C22.1118 19.2811 22.5307 19.1445 22.9608 19.1445C23.3908 19.1445 23.8097 19.2811 24.157 19.5347C24.6276 19.8802 25.1987 20.0614 25.7824 20.0506C26.3633 20.0436 26.9291 19.864 27.4077 19.5347C27.6452 19.3583 27.9184 19.236 28.2082 19.1763V22.7922C27.7663 22.8604 27.346 23.0288 26.9793 23.2845C26.6318 23.5382 26.2126 23.6749 25.7824 23.6749C25.3521 23.6749 24.933 23.5382 24.5854 23.2845C24.1101 22.9488 23.5425 22.7685 22.9605 22.7685C22.3786 22.7685 21.8109 22.9488 21.3356 23.2845C20.9884 23.5381 20.5695 23.6747 20.1396 23.6747C19.7096 23.6747 19.2908 23.5381 18.9436 23.2845C18.4684 22.9487 17.9008 22.7684 17.3189 22.7684C16.737 22.7684 16.1694 22.9487 15.6942 23.2845C15.3519 23.5474 14.9299 23.6851 14.4984 23.6747C14.2143 23.6845 13.9319 23.6259 13.6751 23.5039C13.5468 23.4382 13.4226 23.365 13.3031 23.2845C12.828 22.9487 12.2605 22.7684 11.6787 22.7684C11.097 22.7684 10.5295 22.9487 10.0544 23.2845C9.7122 23.5478 9.29019 23.6858 8.85859 23.6758C8.42713 23.6862 8.00511 23.5485 7.6628 23.2857C7.19252 22.9401 6.62163 22.7587 6.03812 22.7696C5.45474 22.7587 4.88399 22.9401 4.41389 23.2857C4.07131 23.5487 3.64896 23.6864 3.21719 23.6758C2.78572 23.6862 2.3637 23.5485 2.02139 23.2857C1.65498 23.0295 1.23476 22.8607 0.792969 22.7922V19.1765ZM0.792969 28.2071V23.5949C1.08071 23.6593 1.35254 23.781 1.59228 23.9527C2.06262 24.2983 2.6336 24.4797 3.21719 24.4688C3.80064 24.4797 4.37147 24.2983 4.84164 23.9527C5.18381 23.6899 5.60566 23.5522 6.03698 23.5625C6.46846 23.5521 6.89049 23.6898 7.23278 23.9527C7.70337 24.2985 8.27469 24.4799 8.85859 24.4688C9.44204 24.4797 10.0129 24.2983 10.483 23.9527C10.8301 23.6992 11.2488 23.5626 11.6786 23.5626C12.1084 23.5626 12.5271 23.6992 12.8742 23.9527C13.344 24.2981 13.9143 24.4794 14.4973 24.4688C15.0226 24.4825 15.5394 24.3344 15.9776 24.0444C16.0267 24.0142 16.0748 23.9836 16.1217 23.9527C16.469 23.6991 16.8878 23.5624 17.3178 23.5624C17.7477 23.5624 18.1666 23.6991 18.5138 23.9527C18.9891 24.2884 19.5567 24.4687 20.1386 24.4687C20.7205 24.4687 21.2881 24.2884 21.7634 23.9527C22.1107 23.6991 22.5296 23.5624 22.9596 23.5624C23.3896 23.5624 23.8086 23.6991 24.1559 23.9527C24.6314 24.2883 25.1992 24.4685 25.7812 24.4685C26.3633 24.4685 26.9311 24.2883 27.4066 23.9527C27.6467 23.7809 27.9189 23.659 28.207 23.5945V28.2071H0.792969Z" fill="black"/>
</g>
<defs>
<clipPath id="clip0_204_103">
<rect width="29" height="29" fill="white"/>
</clipPath>
</defs>
</svg>
