<svg width="29" height="29" viewBox="0 0 29 29" fill="none" xmlns="http://www.w3.org/2000/svg">
<path d="M16.9469 2.44688V9.0625L19.8922 7.27266V4.39531L16.9469 2.44688ZM18.9179 6.72891L17.9211 7.34063V4.25937L18.9179 4.91641V6.72891ZM16.9469 2.44688V9.0625L19.8922 7.27266V4.39531L16.9469 2.44688ZM18.9179 6.72891L17.9211 7.34063V4.25937L18.9179 4.91641V6.72891ZM16.9469 2.44688V9.0625L19.8922 7.27266V4.39531L16.9469 2.44688ZM18.9179 6.72891L17.9211 7.34063V4.25937L18.9179 4.91641V6.72891ZM21.4554 3.42109C21.3195 3.28516 18.1476 0 14.4093 0C10.6711 0 7.68044 2.96797 7.54451 3.10391L7.40857 3.23984V10.4898L9.13044 12.1891V26.5305L11.3281 29L14.1148 25.5789L13.2765 24.4914L14.1148 23.7211L13.5937 22.6562L14.0922 21.8633L13.6844 20.957L14.5 20.0281V18.057L13.7976 17.332L14.5 16.5391V15.0664H15.4515L15.6554 11.7359L21.3422 8.47344L21.5687 3.53438L21.4554 3.42109ZM20.4359 7.92969L14.7718 11.1695L14.5906 14.0922H13.5711V16.1766L12.5289 17.3547L13.5711 18.4422V19.643L12.5742 20.7531L13.0273 21.75L12.5062 22.543L12.9367 23.4492L11.9625 24.3328L12.8687 25.5109L11.4867 27.2102V12.1211H10.8297V27.0062L10.082 26.1906V11.7812L8.38279 10.082V3.64766C8.99451 3.08125 11.4867 0.974219 14.4093 0.974219C17.3093 0.974219 19.9601 3.33047 20.6172 3.94219L20.4359 7.92969Z" fill="#1C252C" fill-opacity="0.5"/>
</svg>
