<svg width="29" height="29" viewBox="0 0 29 29" fill="none" xmlns="http://www.w3.org/2000/svg">
<g clip-path="url(#clip0_203_62)">
<path d="M5.60289 13.283V17.756C5.60289 18.4441 5.85776 18.631 6.09564 18.8052C6.80078 19.3277 7.38699 19.7567 5.73033 23.3589C5.67155 23.4821 5.65225 23.6204 5.67506 23.755C5.69786 23.8896 5.76167 24.0138 5.85776 24.1107C5.92573 24.183 6.00644 24.2424 6.0914 24.2849C6.17635 24.3274 6.25706 24.3486 6.33777 24.3529C6.49919 24.3614 6.66061 24.2807 6.76255 24.064V24.0428C7.00468 23.567 7.22557 23.1762 7.42097 22.8279C8.19408 21.4516 8.55089 20.8144 7.4507 19.1663L7.24681 18.8604L7.50593 18.6013C7.60414 18.4783 7.67639 18.3367 7.71832 18.185C7.78704 17.9823 7.82429 17.7703 7.82876 17.5563V13.5251L8.23231 13.4827C8.47819 13.4463 8.71391 13.3595 8.9247 13.2278C9.21731 13.0526 9.48457 12.8382 9.71905 12.5906C10.3477 11.9364 10.5601 11.1718 10.7938 10.335C10.8532 10.1226 10.9127 9.90172 10.9807 9.68508C11.0231 9.54491 10.9807 9.43446 10.9 9.37499C10.809 9.30908 10.6976 9.27748 10.5856 9.28579C10.5187 9.29053 10.455 9.31598 10.4032 9.35861C10.3514 9.40124 10.3142 9.45893 10.2968 9.52367C10.2409 9.71995 10.1927 9.91833 10.1523 10.1184C9.97392 10.9424 9.77002 11.8812 8.92046 12.3145C8.75835 12.3943 8.5872 12.4542 8.41072 12.4929C8.24263 12.5285 8.07233 12.5526 7.90098 12.5651L7.70982 12.5821L7.5654 12.4589C7.37936 12.316 7.15932 12.224 6.92693 12.192C6.69455 12.16 6.45782 12.189 6.24007 12.2763C6.08832 12.3376 5.95303 12.4336 5.84502 12.5566C5.67851 12.7595 5.59234 13.0165 5.60289 13.2788V13.283ZM4.6981 17.756V13.283C4.68623 12.8015 4.85263 12.3325 5.16537 11.9662C5.36549 11.7392 5.61561 11.5618 5.896 11.4479C6.23585 11.3081 6.60477 11.2535 6.97055 11.2891C7.33634 11.3246 7.68786 11.4492 7.99443 11.6518C8.06574 11.6422 8.13661 11.6294 8.20682 11.6136C8.31243 11.5918 8.41509 11.5576 8.51266 11.5117C8.97568 11.2738 9.1286 10.5601 9.26878 9.93146C9.31975 9.69783 9.36648 9.47694 9.43445 9.2603C9.50153 9.0191 9.6425 8.80498 9.83755 8.64802C10.0326 8.49107 10.2719 8.39917 10.5219 8.38525C10.8606 8.36052 11.1964 8.46189 11.4649 8.66985C11.8175 8.95021 12.0171 9.39623 11.8472 9.9527C11.7835 10.16 11.7226 10.3682 11.6646 10.5771C11.3969 11.5329 11.1548 12.3995 10.3732 13.215C10.0886 13.5124 9.74454 13.797 9.37922 14.0094C9.17597 14.1316 8.95932 14.2299 8.73355 14.3025V17.5606C8.72336 18.04 8.59962 18.5103 8.37249 18.9326C9.57462 20.8484 9.1286 21.6385 8.21107 23.2782C8.01142 23.6265 7.79478 24.0173 7.57389 24.4548C7.47181 24.7084 7.29163 24.923 7.05945 25.0673C6.82727 25.2117 6.55516 25.2783 6.28255 25.2577C6.07696 25.2436 5.87623 25.1888 5.6921 25.0962C5.50744 25.0047 5.34057 24.881 5.19935 24.7309C4.97726 24.5051 4.83032 24.2162 4.77862 23.9037C4.72692 23.5912 4.77298 23.2704 4.9105 22.9851C6.25706 20.0498 5.94272 19.8162 5.56042 19.5358C5.14838 19.23 4.6981 18.8986 4.6981 17.756Z" fill="#212121"/>
<path d="M8.04117 8.75488C8.04117 8.39325 7.89751 8.04642 7.64179 7.7907C7.38608 7.53499 7.03925 7.39133 6.67761 7.39133C6.31598 7.39133 5.96915 7.53499 5.71343 7.7907C5.45772 8.04642 5.31406 8.39325 5.31406 8.75488C5.31406 9.11652 5.45772 9.46335 5.71343 9.71906C5.96915 9.97478 6.31598 10.1184 6.67761 10.1184C7.03925 10.1184 7.38608 9.97478 7.64179 9.71906C7.89751 9.46335 8.04117 9.11652 8.04117 8.75488ZM8.2833 7.15345C8.60333 7.46989 8.82179 7.87452 8.91079 8.3157C8.99979 8.75687 8.95529 9.21456 8.78296 9.63032C8.61064 10.0461 8.31832 10.4011 7.94332 10.6499C7.56832 10.8988 7.12766 11.0302 6.67761 11.0275C6.22668 11.0311 5.78494 10.9 5.40901 10.6509C5.03308 10.4018 4.74009 10.0462 4.56759 9.62954C4.39509 9.21289 4.35093 8.75422 4.44079 8.31231C4.53064 7.87041 4.75041 7.4654 5.07193 7.1492C5.28234 6.93754 5.53253 6.76957 5.80809 6.65495C6.08365 6.54033 6.37916 6.48132 6.67761 6.48132C6.97606 6.48132 7.27157 6.54033 7.54714 6.65495C7.8227 6.76957 8.07288 6.93754 8.2833 7.1492V7.15345Z" fill="#212121"/>
<path d="M11.2227 5.53922C11.2227 5.80961 11.3302 6.06892 11.5213 6.26011C11.7125 6.4513 11.9718 6.55871 12.2422 6.55871C12.5126 6.55871 12.7719 6.4513 12.9631 6.26011C13.1543 6.06892 13.2617 5.80961 13.2617 5.53922C13.2617 5.26884 13.1543 5.00953 12.9631 4.81834C12.7719 4.62715 12.5126 4.51974 12.2422 4.51974C12.1082 4.51918 11.9754 4.54517 11.8514 4.5962C11.7275 4.64724 11.6149 4.72231 11.5201 4.81709C11.4253 4.91187 11.3502 5.02448 11.2992 5.14842C11.2482 5.27236 11.2222 5.40519 11.2227 5.53922ZM10.8829 6.89853C10.6108 6.63047 10.4248 6.28732 10.3487 5.91298C10.2727 5.53864 10.31 5.15012 10.456 4.79711C10.6019 4.4441 10.8498 4.14265 11.168 3.9313C11.4862 3.71996 11.8602 3.60834 12.2422 3.61071C12.6255 3.6066 13.0011 3.71728 13.3209 3.9285C13.6407 4.13972 13.89 4.44181 14.0367 4.79589C14.1833 5.14997 14.2207 5.53984 14.1439 5.91532C14.0671 6.2908 13.8797 6.63471 13.6058 6.90278C13.4274 7.0822 13.2152 7.22459 12.9816 7.32175C12.7479 7.41891 12.4974 7.46892 12.2444 7.46892C11.9913 7.46892 11.7408 7.41891 11.5071 7.32175C11.2735 7.22459 11.0614 7.0822 10.8829 6.90278V6.89853Z" fill="#212121"/>
<path d="M12.7946 7.70142H17.7136L17.6074 8.24089L16.6388 13.2194L16.5666 13.5847H13.4105L13.3425 13.2151L12.3485 8.24089L12.2466 7.70142H12.7946ZM16.6176 8.61045H13.3383L14.1624 12.6799H15.8275L16.6176 8.61045Z" fill="#212121"/>
<path d="M13.1046 7.70142H20.8442V8.61045H13.1046V7.70142Z" fill="#212121"/>
<path d="M13.2533 10.3351H16.7025V11.2399H13.2575L13.2533 10.3351Z" fill="#212121"/>
<path d="M14.5276 13.3638V8.26636H15.4324V13.3638H14.5276Z" fill="#212121"/>
<path d="M17.671 7.25114V4.078H24.4676V14.498H17.671V9.06072H18.5801V13.5932H23.5628V4.98279H18.5843V7.25114H17.671Z" fill="#212121"/>
<path d="M21.3157 13.6653V25.3723H20.4109V13.6653H21.3157Z" fill="#212121"/>
</g>
<defs>
<clipPath id="clip0_203_62">
<rect width="29" height="29" fill="white"/>
</clipPath>
</defs>
</svg>
