<svg width="29" height="29" viewBox="0 0 29 29" fill="none" xmlns="http://www.w3.org/2000/svg">
<g clip-path="url(#clip0_13_264)">
<path d="M1.60474 8.17822H8.25073V9.08447H1.60474V8.17822ZM0 16.6068H9.58812V17.5131H0V16.6068ZM17.0771 16.6068H29V17.5131H17.0771V16.6068ZM18.236 8.17822H27.3953V9.08447H18.236V8.17822ZM6.1804 22.2181C4.7739 22.2181 3.62953 21.0662 3.62953 19.6507H4.53578C4.53578 20.5667 5.27347 21.3118 6.1804 21.3118C7.08733 21.3118 7.82502 20.5667 7.82502 19.6507H8.73127C8.73127 21.0662 7.5869 22.2181 6.1804 22.2181Z" fill="#282D33" fillOpacity="0.5"/>
<path d="M10.3401 22.218C8.93355 22.218 7.78918 21.0662 7.78918 19.6506H8.69543C8.69543 20.5666 9.43312 21.3118 10.3401 21.3118C11.2468 21.3118 11.9847 20.5666 11.9847 19.6506H12.8909C12.8909 21.0662 11.7466 22.218 10.3401 22.218Z" fill="#282D33" fillOpacity="0.5"/>
<path d="M14.5002 22.218C13.0937 22.218 11.9493 21.0662 11.9493 19.6506H12.8556C12.8556 20.5666 13.5933 21.3118 14.5002 21.3118C15.4071 21.3118 16.1448 20.5666 16.1448 19.6506H17.0511C17.0511 21.0662 15.9067 22.218 14.5002 22.218Z" fill="#282D33" fillOpacity="0.5"/>
<path d="M18.6599 22.218C17.2531 22.218 16.1088 21.0662 16.1088 19.6506H17.015C17.015 20.5666 17.7529 21.3118 18.6599 21.3118C19.5668 21.3118 20.3047 20.5666 20.3047 19.6506H21.211C21.211 21.0662 20.0666 22.218 18.6599 22.218Z" fill="#282D33" fillOpacity="0.5"/>
<path d="M22.8196 22.218C21.4136 22.218 20.2694 21.0662 20.2694 19.6506H21.1757C21.1757 20.5666 21.9131 21.3118 22.8196 21.3118C23.7265 21.3118 24.4644 20.5666 24.4644 19.6506H25.3707C25.3705 21.0662 24.2263 22.218 22.8196 22.218Z" fill="#282D33" fillOpacity="0.5"/>
<path d="M6.18042 26.2522V25.346C7.08735 25.346 7.82504 24.6008 7.82504 23.6851H8.73129C8.73129 25.1006 7.58692 26.2522 6.18042 26.2522Z" fill="#282D33" fillOpacity="0.5"/>
<path d="M10.3401 26.2522C8.93355 26.2522 7.78918 25.1006 7.78918 23.6851H8.69543C8.69543 24.6008 9.43312 25.346 10.3401 25.346C11.2468 25.346 11.9847 24.6008 11.9847 23.6851H12.8909C12.8909 25.1006 11.7466 26.2522 10.3401 26.2522Z" fill="#282D33" fillOpacity="0.5"/>
<path d="M14.5002 26.2522C13.0937 26.2522 11.9493 25.1006 11.9493 23.6851H12.8556C12.8556 24.6008 13.5933 25.346 14.5002 25.346C15.4071 25.346 16.1448 24.6008 16.1448 23.6851H17.0511C17.0511 25.1006 15.9067 26.2522 14.5002 26.2522Z" fill="#282D33" fillOpacity="0.5"/>
<path d="M18.66 26.2522C17.2533 26.2522 16.1089 25.1006 16.1089 23.6851H17.0151C17.0151 24.6008 17.7531 25.346 18.66 25.346C19.5669 25.346 20.3048 24.6008 20.3048 23.6851H21.2111C21.2111 25.1006 20.0667 26.2522 18.66 26.2522Z" fill="#282D33" fillOpacity="0.5"/>
<path d="M22.8196 26.2522C21.4136 26.2522 20.2697 25.1006 20.2697 23.6851H21.1759C21.1759 24.6008 21.9134 25.346 22.8196 25.346V26.2522Z" fill="#282D33" fillOpacity="0.5"/>
<path d="M10.1176 18.5188H9.2113V4.59361C9.2113 3.57589 10.0344 2.7478 11.046 2.7478H12.1512V3.65405H11.046C10.5342 3.65405 10.1176 4.07546 10.1176 4.59361V18.5188ZM17.3018 18.5188H16.3956V4.59361C16.3956 3.57589 17.2187 2.7478 18.2305 2.7478H19.3357V3.65405H18.2305C17.7185 3.65405 17.3018 4.07546 17.3018 4.59361V18.5188Z" fill="#282D33" fillOpacity="0.5"/>
<path d="M9.94055 6.64648H15.1909V7.55273H9.94055V6.64648ZM9.94055 9.98896H15.1909V10.8952H9.94055V9.98896ZM9.94055 13.3312H15.1909V14.2375H9.94055V13.3312ZM9.94055 16.6732H15.1909V17.5795H9.94055V16.6732Z" fill="#282D33" fillOpacity="0.5"/>
</g>
<defs>
<clipPath id="clip0_13_264">
<rect width="29" height="29" fill="white"/>
</clipPath>
</defs>
</svg>
