<svg width="27" height="30" viewBox="0 0 27 30" fill="none" xmlns="http://www.w3.org/2000/svg">
<path d="M22.6184 16.6149H22.2883V16.5802C22.2873 15.8822 22.0731 15.2052 21.6808 14.6601C21.2885 14.1149 20.7413 13.7338 20.1287 13.579V7.69177C20.1283 7.30261 19.9889 6.92954 19.7413 6.65436C19.4936 6.37918 19.1578 6.22437 18.8076 6.22388H8.19239C7.84215 6.22437 7.50638 6.37918 7.25872 6.65436C7.01106 6.92954 6.87173 7.30261 6.87129 7.69177V13.579C6.25871 13.7338 5.71152 14.1149 5.31923 14.6601C4.92693 15.2052 4.71275 15.8822 4.71171 16.5802V16.6149H4.38159C4.28371 16.615 4.18985 16.6582 4.12063 16.7351C4.05142 16.812 4.01251 16.9163 4.01245 17.025V20.199C4.01251 20.3077 4.05142 20.412 4.12063 20.4889C4.18985 20.5658 4.28371 20.609 4.38159 20.6091H5.01251V23.0232C5.01248 23.077 5.02201 23.1304 5.04055 23.1802C5.05909 23.2299 5.08628 23.2752 5.12056 23.3133C5.15485 23.3514 5.19555 23.3816 5.24035 23.4022C5.28515 23.4228 5.33316 23.4334 5.38165 23.4333H6.90778C7.00568 23.4333 7.09957 23.3901 7.1688 23.3132C7.23803 23.2363 7.27692 23.132 7.27692 23.0232V20.6091H19.506V23.0232C19.506 23.132 19.5449 23.2363 19.6141 23.3132C19.6834 23.3901 19.7773 23.4333 19.8752 23.4333H21.6183C21.6668 23.4334 21.7148 23.4228 21.7596 23.4022C21.8044 23.3816 21.8451 23.3514 21.8794 23.3133C21.9137 23.2752 21.9409 23.2299 21.9594 23.1802C21.978 23.1304 21.9875 23.077 21.9875 23.0232V20.6091H22.6184C22.7163 20.609 22.8102 20.5658 22.8794 20.4889C22.9486 20.412 22.9875 20.3077 22.9875 20.199V17.025C22.9875 16.9163 22.9486 16.812 22.8794 16.7351C22.8102 16.6582 22.7163 16.615 22.6184 16.6149ZM7.60957 7.69177C7.60979 7.5201 7.67127 7.35553 7.78052 7.23413C7.88977 7.11274 8.03788 7.04444 8.19239 7.04419H18.8076C18.9621 7.04444 19.1102 7.11274 19.2195 7.23413C19.3287 7.35553 19.3902 7.5201 19.3904 7.69177V13.5H16.829V9.86114C16.829 9.80727 16.8195 9.75392 16.801 9.70415C16.7824 9.65437 16.7552 9.60914 16.721 9.57105C16.6867 9.53296 16.646 9.50275 16.6012 9.48214C16.5564 9.46154 16.5084 9.45096 16.4599 9.45099H10.5401C10.4916 9.45096 10.4436 9.46154 10.3988 9.48214C10.354 9.50275 10.3133 9.53296 10.279 9.57105C10.2448 9.60914 10.2176 9.65437 10.199 9.70415C10.1805 9.75392 10.171 9.80727 10.171 9.86114V13.5H7.60957V7.69177ZM16.0907 13.5H10.9093V10.2713H16.0907V13.5ZM5.44999 16.5802C5.45038 15.9811 5.6647 15.4067 6.0459 14.983C6.4271 14.5593 6.94403 14.321 7.48322 14.3204H19.5168C20.0558 14.321 20.5726 14.5592 20.9538 14.9826C21.335 15.4061 21.5494 15.9803 21.55 16.5793V16.614H5.44999V16.5802ZM6.53906 22.6128H5.75079V20.6091H6.53906V22.6128ZM21.2496 22.6128H20.2443V20.6091H21.2492L21.2496 22.6128ZM22.2497 19.7888H4.75073V17.4352H22.2493L22.2497 19.7888Z" fill="black" fillOpacity="0.5"/>
</svg>
