<svg width="29" height="29" viewBox="0 0 29 29" fill="none" xmlns="http://www.w3.org/2000/svg">
<path d="M22.9793 17.4489V21.4187H21.9537V17.4489H20.8832V21.4187H19.835V17.4489H18.7645V21.4187H17.7083V15.4883C17.7799 15.4896 17.8511 15.4765 17.9175 15.4498C17.984 15.423 18.0444 15.3832 18.0951 15.3326L19.2938 14.1341C19.3436 14.0844 19.383 14.0254 19.4099 13.9605C19.4368 13.8955 19.4507 13.8259 19.4507 13.7556C19.4507 13.6853 19.4368 13.6157 19.4099 13.5507C19.383 13.4858 19.3436 13.4267 19.2938 13.377L17.7195 11.8027C17.7199 11.7956 17.722 11.789 17.722 11.782V7.18311C17.722 7.04116 17.6656 6.90502 17.5652 6.80465C17.4648 6.70427 17.3287 6.64788 17.1867 6.64786H14.4997C14.3578 6.64786 14.2216 6.70425 14.1212 6.80463C14.0209 6.90501 13.9645 7.04116 13.9645 7.18311V8.04773L12.5839 6.66712C12.5066 6.58994 12.4072 6.53873 12.2995 6.52059C12.2132 6.50401 12.1241 6.50868 12.0399 6.53421C11.9558 6.55974 11.8791 6.60535 11.8165 6.66712L5.10678 13.3771C5.05706 13.4268 5.01762 13.4858 4.99071 13.5507C4.9638 13.6156 4.94995 13.6852 4.94995 13.7555C4.94995 13.8258 4.9638 13.8954 4.99071 13.9603C5.01762 14.0253 5.05706 14.0843 5.10678 14.1339L6.30523 15.3323C6.35489 15.3821 6.41387 15.4215 6.47879 15.4485C6.54372 15.4754 6.61331 15.4892 6.68359 15.4892C6.68665 15.4892 6.68931 15.4883 6.69237 15.4883V21.954C6.69237 22.0959 6.74877 22.2321 6.84915 22.3324C6.94952 22.4328 7.08567 22.4892 7.22763 22.4892H23.5147C23.6567 22.4892 23.7928 22.4328 23.8932 22.3324C23.9936 22.2321 24.0499 22.0959 24.0499 21.954V17.4489H22.9793ZM15.0352 7.71837H16.6513V10.7345L15.035 9.11824L15.0352 7.71837ZM7.76271 14.6315L12.2002 10.1943L16.6378 14.6321V21.4188H7.76271V14.6315Z" fill="black" fillOpacity="0.5"/>
<path d="M14.4998 13.6798H9.90073C9.75877 13.6798 9.62263 13.7362 9.52225 13.8366C9.42187 13.937 9.36548 14.0731 9.36548 14.2151V18.8143C9.36548 18.9563 9.42187 19.0924 9.52225 19.1928C9.62263 19.2932 9.75877 19.3496 9.90073 19.3496H14.4998C14.6417 19.3496 14.7779 19.2932 14.8783 19.1928C14.9786 19.0924 15.035 18.9563 15.035 18.8143V14.2151C15.0351 14.1448 15.0212 14.0752 14.9943 14.0103C14.9674 13.9453 14.928 13.8863 14.8783 13.8366C14.8286 13.7869 14.7696 13.7475 14.7046 13.7206C14.6397 13.6937 14.5701 13.6798 14.4998 13.6798ZM13.9645 14.7503V15.2658H10.436V14.7504L13.9645 14.7503ZM10.436 18.2793V16.3363H13.9645V18.2793L10.436 18.2793Z" fill="black" fillOpacity="0.5"/>
</svg>
