<svg width="29" height="29" viewBox="0 0 29 29" fill="none" xmlns="http://www.w3.org/2000/svg">
<path d="M28.9471 28.3517L18.4547 8.92094V0.439221C18.4544 0.322726 18.408 0.211103 18.3255 0.128785C18.2431 0.0464672 18.1314 0.000160399 18.0149 1.03533e-06H10.0697C9.99286 -0.000166092 9.91735 0.0199034 9.85075 0.0581901C9.78414 0.0964768 9.7288 0.15163 9.69028 0.218101C9.65196 0.28495 9.6318 0.36066 9.6318 0.437711C9.6318 0.514761 9.65196 0.590472 9.69028 0.657321L10.7373 2.48972L9.68846 4.32212C9.65025 4.38891 9.63026 4.46457 9.63049 4.54152C9.63072 4.61847 9.65116 4.69401 9.68976 4.76057C9.72837 4.82714 9.78378 4.88239 9.85046 4.9208C9.91714 4.95922 9.99274 4.97943 10.0697 4.97944H17.5763V8.92034L13.1962 17.0317C13.1408 17.1343 13.1285 17.2546 13.1618 17.3663C13.1952 17.4779 13.2716 17.5717 13.3741 17.6271C13.4767 17.6825 13.597 17.6948 13.7087 17.6615C13.8203 17.6281 13.9141 17.5517 13.9695 17.4492L14.8552 15.8089L17.8234 17.2589C17.8833 17.2883 17.9491 17.3036 18.0158 17.3036C18.0825 17.3036 18.1484 17.2883 18.2082 17.2589L21.1765 15.8089L27.8221 28.1197H19.445C19.3283 28.1197 19.2164 28.1661 19.1339 28.2486C19.0515 28.3311 19.0051 28.4429 19.0051 28.5596C19.0051 28.6762 19.0515 28.7881 19.1339 28.8706C19.2164 28.9531 19.3283 28.9994 19.445 28.9994H28.561C28.637 28.9993 28.7116 28.9795 28.7777 28.9419C28.8437 28.9044 28.8989 28.8503 28.9377 28.7851C28.9766 28.7198 28.998 28.6456 28.9996 28.5696C29.0012 28.4937 28.9831 28.4186 28.9471 28.3517ZM10.8267 4.101L11.623 2.70842C11.6607 2.64181 11.6805 2.56657 11.6805 2.49002C11.6805 2.41348 11.6607 2.33824 11.623 2.27162L10.8267 0.882066H17.5757V4.1004L10.8267 4.101ZM18.0161 16.3762L15.2739 15.0356L18.0161 9.95707L20.759 15.0356L18.0161 16.3762ZM9.15741 12.9247C9.11994 12.8547 9.06419 12.7962 8.9961 12.7554C8.928 12.7147 8.85012 12.6931 8.77075 12.6931C8.69139 12.6931 8.6135 12.7147 8.54541 12.7554C8.47732 12.7962 8.42157 12.8547 8.3841 12.9247L0.0528106 28.3517C0.0168972 28.4187 -0.00104595 28.4939 0.000730541 28.5699C0.00250703 28.6458 0.0239426 28.7201 0.0629471 28.7853C0.101952 28.8505 0.157194 28.9045 0.223288 28.9421C0.289381 28.9796 0.364071 28.9993 0.440073 28.9994H17.1014C17.1774 28.9993 17.2521 28.9796 17.3182 28.9421C17.3843 28.9045 17.4396 28.8505 17.4786 28.7853C17.5176 28.7201 17.539 28.6458 17.5408 28.5699C17.5426 28.4939 17.5246 28.4187 17.4887 28.3517L9.15741 12.9247ZM8.77075 14.0575L10.7584 17.738L8.77075 18.7088L6.78309 17.738L8.77075 14.0575ZM1.17593 28.1204L6.36501 18.5143L8.57924 19.5927C8.63923 19.6221 8.70515 19.6374 8.77196 19.6374C8.83877 19.6374 8.90469 19.6221 8.96469 19.5927L11.1771 18.5119L16.3662 28.1179L1.17593 28.1204Z" fill="#1A171B" fillOpacity="0.5"/>
</svg>
