<svg width="28" height="28" viewBox="0 0 28 28" fill="none" xmlns="http://www.w3.org/2000/svg">
<path d="M6.01562 24.5C6.01562 24.5 3.82812 21.1899 3.82812 16.1875C3.82812 11.1851 6.16087 12.2898 5.14062 7.4375C5.14062 7.4375 7.93669 10.9913 7.76562 14.4375C7.76562 14.4375 7.77219 10.6391 12.1406 7.875C16.5091 5.11088 16.5156 3.5 16.5156 3.5C16.5156 3.5 19.5243 6.69506 20.4531 10.9375C21.3819 15.1799 20.0156 17.5 20.0156 17.5C20.0156 17.5 22.9057 15.4735 23.0781 13.125C23.0781 13.125 26.4617 20.5857 21.3281 24.5" stroke="#222A33" stroke-width="0.875" stroke-miterlimit="2" stroke-linecap="round" stroke-linejoin="round"/>
<path d="M7.76564 14.4375C7.76564 14.4375 7.54733 15.6909 7.87502 17.9375M11.3387 24.5C11.3387 24.5 10.6094 23.3966 10.6094 21.7293C10.6094 20.0616 11.3868 20.4299 11.0469 18.8125C11.0469 18.8125 11.9788 19.9973 11.9219 21.1457C11.9219 21.1457 11.9241 19.8796 13.3801 18.9582C14.8365 18.0368 14.8387 17.5 14.8387 17.5C14.8387 17.5 15.8415 18.5649 16.1512 19.9793C16.4605 21.3933 16.0051 22.1668 16.0051 22.1668C16.0051 22.1668 16.9685 21.4913 17.0262 20.7082C17.0262 20.7082 18.1541 23.1954 16.4426 24.5M9.18752 15.9688C9.07639 15.6957 8.79814 12.3484 12.25 9.84375M21 22.75C21 22.75 22.7723 21.5058 22.75 18.375" stroke="#222A33" stroke-width="0.875" stroke-miterlimit="2" stroke-linecap="round" stroke-linejoin="round"/>
</svg>
