<svg width="35" height="35" viewBox="0 0 35 35" fill="none" xmlns="http://www.w3.org/2000/svg">
<g clipPath="url(#clip0_71_780)">
<path d="M4.9216 10.2539H30.6218V15.6369H4.37305V10.2539H4.9216ZM29.5298 11.3459H5.47016V14.545H29.5298V11.3459Z" fill="#212121"/>
<path d="M6.69541 14.5449H28.8479V29.6841H6.15198V14.5449H6.69541ZM27.7559 15.6369H7.24909V28.5818H27.7559V15.6369Z" fill="#212121"/>
<path d="M18.046 15.0938V29.1307H16.954V15.0938H18.046Z" fill="#212121"/>
<path d="M6.69543 21.563H28.2994V22.6549H6.69543V21.563ZM16.954 15.0931V10.7969H18.046V15.0931H16.954Z" fill="#212121"/>
<path d="M16.954 10.7924C16.9847 7.9163 18.046 6.36291 19.2251 5.70669C19.6303 5.46778 20.09 5.33669 20.5603 5.32592C21.0306 5.31515 21.4958 5.42506 21.9115 5.64517C22.701 6.10144 23.106 6.96786 22.6651 8.00345C22.2191 9.04417 20.7734 10.2797 17.6717 11.3153L16.9489 11.5563L16.954 10.7924ZM19.7532 6.66025C18.9688 7.09602 18.2562 8.12136 18.0819 10.0131C20.312 9.17234 21.3527 8.29567 21.6603 7.57281C21.85 7.13704 21.6859 6.77304 21.3629 6.58848C20.9579 6.35265 20.3376 6.33215 19.7532 6.66025Z" fill="#212121"/>
<path d="M16.9181 10.0129C16.7438 8.12118 16.0312 7.09584 15.2468 6.66007C14.6573 6.33709 14.0369 6.35247 13.6319 6.5883C13.3141 6.77286 13.15 7.13686 13.3397 7.57263C13.6473 8.29036 14.688 9.17216 16.9181 10.0129ZM15.7749 5.70651C16.954 6.36272 18.0152 7.91611 18.046 10.7922L18.0511 11.5561L17.3283 11.3151C14.2215 10.2795 12.7809 9.04399 12.3349 7.99814C11.894 6.96767 12.299 6.10126 13.0885 5.63986C13.7908 5.22972 14.8264 5.18358 15.7749 5.70651Z" fill="#212121"/>
</g>
<defs>
<clipPath id="clip0_71_780">
<rect width="35" height="35" fill="white"/>
</clipPath>
</defs>
</svg>
