<svg width="35" height="35" viewBox="0 0 35 35" fill="none" xmlns="http://www.w3.org/2000/svg">
<g clipPath="url(#clip0_71_738)">
<path d="M9.47138 15.5107L12.4912 11.8869C12.6674 11.6751 12.741 11.4113 12.7175 11.1562C12.6942 10.902 12.5737 10.6566 12.3619 10.4804C12.1501 10.3043 11.8863 10.2307 11.6312 10.2541C11.377 10.2775 11.1316 10.3979 10.9554 10.6097L5.88125 16.6987L5.46255 16.3505L5.88268 16.7006C5.86465 16.7223 5.84498 16.7425 5.82384 16.7612C5.74134 16.8495 5.67542 16.9519 5.62922 17.0635C5.58094 17.1799 5.55427 17.3096 5.55427 17.4477C5.55427 17.7246 5.66651 17.9754 5.84797 18.1569C6.02943 18.3384 6.28021 18.4506 6.5572 18.4506H15.0547C15.3567 18.4506 15.6016 18.6955 15.6016 18.9975V28.7829H22.7736V18.988C22.7736 18.686 23.0185 18.4412 23.3205 18.4412C23.3454 18.4412 23.37 18.4429 23.3941 18.4461C24.0699 18.4903 25.107 18.7762 25.9689 19.9563C26.7802 21.0673 27.4399 23.0042 27.4399 26.366C27.4399 26.643 27.5522 26.8938 27.7337 27.0753C27.9151 27.2567 28.1659 27.369 28.4429 27.369C28.7199 27.369 28.9706 27.2567 29.1521 27.0752C29.3336 26.8938 29.4458 26.643 29.4458 26.366C29.4458 22.1828 28.6155 19.4934 27.2751 17.8117C26.0096 16.2239 24.2608 15.523 22.321 15.2965C21.9585 15.5265 21.5673 15.7079 21.1575 15.8361C20.6817 15.9851 20.1861 16.0608 19.6876 16.0607C19.2407 16.0607 18.8026 15.9988 18.3817 15.883C18.0182 15.7831 17.6675 15.6416 17.3364 15.4614C16.4232 15.5826 15.4912 15.7368 14.5911 15.8857C12.8427 16.175 11.2129 16.4447 9.85763 16.4447C9.5556 16.4447 9.31075 16.1999 9.31075 15.8978C9.31075 15.7466 9.37214 15.6097 9.47136 15.5107L9.47138 15.5107ZM13.3286 12.5833L11.0746 15.2881C12.0895 15.194 13.2243 15.0063 14.4159 14.8091C15.3518 14.6542 16.3225 14.4936 17.3313 14.3632C17.4623 14.3346 17.604 14.3538 17.7282 14.428L17.4478 14.8975L17.7276 14.4296C18.0198 14.6041 18.3355 14.7405 18.668 14.832C18.9876 14.9199 19.3293 14.9669 19.6876 14.9669C20.0886 14.9669 20.4732 14.9062 20.8328 14.7937C21.1986 14.6792 21.5419 14.5102 21.8533 14.2961C21.9592 14.2164 22.0942 14.1747 22.2366 14.1889L22.2364 14.1906C24.5262 14.4202 26.6084 15.2238 28.1296 17.1323C29.6178 18.9994 30.5396 21.9108 30.5396 26.366C30.5396 26.9449 30.3049 27.4691 29.9254 27.8486C29.546 28.228 29.0218 28.4628 28.4429 28.4628C27.864 28.4628 27.3398 28.2281 26.9603 27.8486C26.5809 27.4691 26.3461 26.9449 26.3461 26.366C26.3461 23.2707 25.7823 21.5468 25.0887 20.5972C24.6896 20.0506 24.2503 19.7766 23.8674 19.6444V29.3298C23.8674 29.6318 23.6225 29.8767 23.3205 29.8767H15.0547C14.7526 29.8767 14.5078 29.6318 14.5078 29.3298V19.5444H6.55717C5.97827 19.5444 5.45407 19.3097 5.07462 18.9302C4.69516 18.5508 4.46045 18.0266 4.46045 17.4477C4.46045 17.1652 4.51753 16.8939 4.62087 16.6448C4.72457 16.3949 4.87631 16.1686 5.06476 15.9772L10.118 9.91329C10.4868 9.46984 11.0005 9.21784 11.5329 9.16891C12.0643 9.12005 12.6149 9.27425 13.0583 9.64301C13.5018 10.0118 13.7538 10.5255 13.8027 11.0579C13.8516 11.5893 13.6974 12.1399 13.3286 12.5833H13.3286ZM17.6658 5.12316H22.0832C22.3501 5.12316 22.5723 5.31438 22.6204 5.56722L23.4986 9.08008L22.9689 9.21252L23.4994 9.07991C23.5727 9.37291 23.3945 9.66985 23.1015 9.74309C23.0547 9.7548 23.0067 9.76029 22.9585 9.75941H16.7695C16.4675 9.75941 16.2226 9.51455 16.2226 9.21254C16.2226 9.15563 16.2313 9.10077 16.2475 9.04918L17.1253 5.53759L17.1245 5.53742C17.1876 5.28517 17.4164 5.11803 17.6658 5.12316ZM21.6571 6.21695H18.0813L17.4691 8.66565H22.2692L21.6571 6.21695Z" fill="#212121"/>
<path d="M23.5179 9.21289C23.5179 8.91086 23.273 8.66602 22.971 8.66602C22.669 8.66602 22.4241 8.91086 22.4241 9.21289C22.4241 10.2523 22.1185 11.1851 21.6246 11.8528C21.1648 12.4743 20.5433 12.8587 19.8692 12.8587C19.195 12.8587 18.5736 12.4743 18.1138 11.8528C17.6198 11.1851 17.3142 10.2524 17.3142 9.21289C17.3142 8.91086 17.0694 8.66602 16.7674 8.66602C16.4653 8.66602 16.2205 8.91086 16.2205 9.21289C16.2205 10.489 16.6093 11.6526 17.2379 12.5023C17.9008 13.3982 18.8303 13.9524 19.8692 13.9524C20.9081 13.9524 21.8376 13.3982 22.5004 12.5023C23.129 11.6526 23.5179 10.4889 23.5179 9.21289ZM25.347 15.036C25.2703 15.3274 25.4444 15.6258 25.7358 15.7025C26.0272 15.7792 26.3256 15.6051 26.4023 15.3137L26.9131 13.3856L26.9143 13.3859C26.9798 13.1384 26.8647 12.8855 26.6503 12.7672L25.248 11.8318L24.9447 12.2847L25.2481 11.8298C24.9969 11.6622 24.6573 11.73 24.4897 11.9813C24.4509 12.0393 24.4236 12.1042 24.4093 12.1726L23.6566 14.9818C23.5787 15.2732 23.7518 15.5726 24.0432 15.6504C24.3346 15.7283 24.634 15.5552 24.7119 15.2638L25.2754 13.1606L25.7585 13.4828L25.347 15.036Z" fill="#212121"/>
<path d="M27.1128 9.10468C27.193 8.81446 27.0227 8.51411 26.7325 8.43391C26.4423 8.35369 26.1419 8.52392 26.0617 8.81415L25.0273 12.5483C24.9471 12.8385 25.1173 13.1389 25.4075 13.2191C25.6977 13.2993 25.9981 13.1291 26.0783 12.8388L27.1128 9.10468Z" fill="#212121"/>
<path d="M25.7887 8.73588C25.643 8.69697 25.4933 8.78351 25.4544 8.92922C25.4155 9.07491 25.502 9.2246 25.6477 9.26351L25.9779 9.35198C26.1235 9.3909 26.2733 9.30434 26.3122 9.15865C26.3511 9.01296 26.2645 8.86327 26.1188 8.82435L25.7887 8.73588Z" fill="#212121"/>
</g>
<defs>
<clipPath id="clip0_71_738">
<rect width="35" height="35" fill="white"/>
</clipPath>
</defs>
</svg>
