<svg width="35" height="35" viewBox="0 0 35 35" fill="none" xmlns="http://www.w3.org/2000/svg">
<path d="M33.3619 28.0004L30.9399 27.0204C30.4903 26.6106 30.1283 26.1141 29.8757 25.5607C29.6231 25.0073 29.485 24.4085 29.4699 23.8004C29.4699 20.5944 29.3999 15.0924 29.3999 14.8824V12.4884C29.4601 9.61402 28.3784 6.83301 26.3919 4.75468C24.4054 2.67634 21.6761 1.47015 18.802 1.40039H16.1979C13.3238 1.47015 10.5945 2.67634 8.60799 4.75468C6.6215 6.83301 5.53982 9.61402 5.59995 12.4884V23.8004C5.58742 24.4124 5.44922 25.0152 5.19393 25.5716C4.93865 26.1279 4.57173 26.6258 4.11595 27.0344L1.63795 28.0004C1.48645 28.057 1.35982 28.1653 1.28041 28.3062C1.201 28.4471 1.17392 28.6115 1.20395 28.7704C1.23335 28.9311 1.31803 29.0764 1.44331 29.1812C1.56859 29.2861 1.72659 29.3438 1.88995 29.3444H11.2979C11.7319 31.7104 14.3359 33.5444 17.4999 33.5444C20.6639 33.5444 23.2679 31.7104 23.7019 29.3444H33.1099C33.2733 29.3438 33.4313 29.2861 33.5566 29.1812C33.6819 29.0764 33.7665 28.9311 33.7959 28.7704C33.826 28.6115 33.7989 28.4471 33.7195 28.3062C33.6401 28.1653 33.5134 28.057 33.3619 28.0004ZM17.4999 32.2004C16.508 32.2893 15.513 32.0675 14.6526 31.5659C13.7923 31.0642 13.1092 30.3074 12.6979 29.4004H22.302C21.8907 30.3074 21.2076 31.0642 20.3473 31.5659C19.4869 32.0675 18.4919 32.2893 17.4999 32.2004ZM5.12395 28.0004C5.70223 27.4618 6.16631 26.8125 6.48859 26.091C6.81087 25.3694 6.98477 24.5905 6.99995 23.8004V12.4884C6.93972 9.98528 7.87387 7.56029 9.59783 5.74449C11.3218 3.92868 13.6951 2.87004 16.1979 2.80039H18.802C21.3048 2.87004 23.6781 3.92868 25.4021 5.74449C27.126 7.56029 28.0602 9.98528 27.9999 12.4884V14.9104C27.9999 15.1204 27.9999 20.6224 28.0699 23.8564C28.0755 24.6428 28.2396 25.4201 28.5523 26.1417C28.865 26.8633 29.3199 27.5145 29.8899 28.0564L5.12395 28.0004Z" fill="#231F20"/>
</svg>
