<svg width="35" height="35" viewBox="0 0 35 35" fill="none" xmlns="http://www.w3.org/2000/svg">
<g clipPath="url(#clip0_71_745)">
<path d="M5.98286 16.1338H29.2888C29.428 16.1331 29.5659 16.1599 29.6946 16.2127C29.8233 16.2655 29.9403 16.3432 30.0389 16.4413C30.1376 16.5394 30.2158 16.6561 30.2692 16.7846C30.3226 16.913 30.3501 17.0508 30.3501 17.1899V29.5658C30.3496 29.8444 30.2391 30.1116 30.0425 30.3091C29.9445 30.408 29.8228 30.4866 29.6943 30.5402C29.5659 30.5939 29.4281 30.6216 29.2888 30.6219H5.98286C5.84374 30.6225 5.70586 30.5957 5.57713 30.5429C5.44841 30.4902 5.33138 30.4125 5.23277 30.3144C5.13415 30.2162 5.0559 30.0996 5.00251 29.9711C4.94912 29.8426 4.92163 29.7049 4.92163 29.5658V17.1899C4.92163 16.9028 5.03955 16.6362 5.22923 16.4465H5.23436C5.33235 16.3476 5.44893 16.2691 5.57739 16.2154C5.70584 16.1618 5.84364 16.134 5.98286 16.1338ZM29.2581 17.2258H6.01362V29.5299H29.2581V17.2258Z" fill="#212121"/>
<path d="M5.74194 18.5946H29.5298V19.6865H5.74194V18.5946ZM5.74194 21.3271H29.5298V22.4191H5.74194V21.3271ZM22.4191 26.7973H24.0597V27.8893H22.4191V26.7973ZM26.2488 26.7973H27.8893V27.8893H26.2488V26.7973ZM17.6359 4.37308C18.3907 4.37037 19.1386 4.51704 19.8364 4.80464C20.5343 5.09224 21.1684 5.51508 21.7021 6.04881C22.2358 6.58253 22.6586 7.21659 22.9462 7.91446C23.2338 8.61232 23.3805 9.36019 23.3778 10.115C23.3805 10.8698 23.2338 11.6177 22.9462 12.3155C22.6586 13.0134 22.2358 13.6474 21.7021 14.1812C21.1684 14.7149 20.5343 15.1377 19.8364 15.4253C19.1386 15.7129 18.3907 15.8596 17.6359 15.8569C16.8811 15.8596 16.1332 15.7129 15.4354 15.4253C14.7375 15.1377 14.1034 14.7149 13.5697 14.1812C13.036 13.6474 12.6131 13.0134 12.3255 12.3155C12.0379 11.6177 11.8913 10.8698 11.894 10.115C11.8913 9.36019 12.0379 8.61232 12.3255 7.91446C12.6131 7.21659 13.036 6.58253 13.5697 6.04881C14.1034 5.51508 14.7375 5.09224 15.4354 4.80464C16.1332 4.51704 16.8811 4.37037 17.6359 4.37308ZM20.9221 6.8339C20.4914 6.40081 19.9794 6.05712 19.4154 5.8226C18.8514 5.58808 18.2467 5.46735 17.6359 5.46735C17.0251 5.46735 16.4203 5.58808 15.8564 5.8226C15.2924 6.05712 14.7804 6.40081 14.3497 6.8339C13.9174 7.2645 13.5743 7.77622 13.3403 8.33972C13.1062 8.90321 12.9857 9.50738 12.9857 10.1176C12.9857 10.7277 13.1062 11.3319 13.3403 11.8954C13.5743 12.4589 13.9174 12.9706 14.3497 13.4012C14.7804 13.8343 15.2924 14.178 15.8564 14.4125C16.4203 14.647 17.0251 14.7678 17.6359 14.7678C18.2467 14.7678 18.8514 14.647 19.4154 14.4125C19.9794 14.178 20.4914 13.8343 20.9221 13.4012C21.3552 12.9705 21.6989 12.4585 21.9334 11.8945C22.1679 11.3305 22.2887 10.7258 22.2887 10.115C22.2887 9.50421 22.1679 8.89944 21.9334 8.33548C21.6989 7.77151 21.3552 7.26459 20.9221 6.8339Z" fill="#212121"/>
<path d="M17.4155 11.6221V10.2892C17.0588 10.2084 16.7363 10.0184 16.4927 9.74573C16.2988 9.4973 16.1973 9.18921 16.2056 8.87419C16.2056 8.52045 16.3183 8.22822 16.5337 7.9924C16.7655 7.74951 17.0804 7.60304 17.4155 7.58226V7.26953H17.8769V7.58226C18.2101 7.62327 18.4818 7.73606 18.6818 7.93088C18.8872 8.13595 19.0203 8.40226 19.0611 8.68963L18.2562 8.79729C18.205 8.54608 18.0819 8.3769 17.8769 8.28462V9.53041C18.3844 9.66883 18.733 9.84826 18.9176 10.0687C19.1092 10.3079 19.2075 10.6084 19.1944 10.9146C19.2053 11.2717 19.0808 11.6196 18.8458 11.8887C18.5909 12.1629 18.2444 12.3343 17.8717 12.3706V12.9653H17.4103V12.386C17.0749 12.355 16.7601 12.2103 16.5183 11.9758C16.2696 11.7076 16.1148 11.3657 16.0774 11.0018L16.9079 10.9146C16.9438 11.0838 17.0105 11.2325 17.1027 11.3555C17.1825 11.4677 17.288 11.5591 17.4103 11.6221H17.4155ZM17.4155 8.27949C17.2946 8.31779 17.1887 8.39311 17.113 8.49481C17.0416 8.59307 17.0038 8.71174 17.0053 8.83318C17.0053 8.94596 17.0361 9.0485 17.1079 9.14078C17.1861 9.248 17.2926 9.33141 17.4155 9.38173V8.27949ZM17.8769 11.6631C18.027 11.6373 18.1632 11.5592 18.2614 11.4427C18.3639 11.3248 18.4152 11.1863 18.4152 11.0325C18.4178 10.8981 18.3723 10.7672 18.287 10.6634C18.1781 10.5431 18.035 10.459 17.8769 10.4225V11.6631Z" fill="#212121"/>
</g>
<defs>
<clipPath id="clip0_71_745">
<rect width="35" height="35" fill="white"/>
</clipPath>
</defs>
</svg>
