<svg width="35" height="35" viewBox="0 0 35 35" fill="none" xmlns="http://www.w3.org/2000/svg">
<path d="M33.2062 29.1663H1.79374C1.60035 29.1663 1.41489 29.0895 1.27814 28.9527C1.1414 28.816 1.06458 28.6305 1.06458 28.4371V9.61003C1.06458 9.41664 1.1414 9.23117 1.27814 9.09443C1.41489 8.95768 1.60035 8.88086 1.79374 8.88086H15.9615C16.1548 8.88086 16.3403 8.95768 16.477 9.09443C16.6138 9.23117 16.6906 9.41664 16.6906 9.61003C16.6906 9.80341 16.6138 9.98888 16.477 10.1256C16.3403 10.2624 16.1548 10.3392 15.9615 10.3392H2.52291V27.7079H32.4771V10.3392H19.0385C18.8451 10.3392 18.6597 10.2624 18.5229 10.1256C18.3862 9.98888 18.3094 9.80341 18.3094 9.61003C18.3094 9.41664 18.3862 9.23117 18.5229 9.09443C18.6597 8.95768 18.8451 8.88086 19.0385 8.88086H33.2062C33.3996 8.88086 33.5851 8.95768 33.7218 9.09443C33.8586 9.23117 33.9354 9.41664 33.9354 9.61003V28.4371C33.9354 28.6305 33.8586 28.816 33.7218 28.9527C33.5851 29.0895 33.3996 29.1663 33.2062 29.1663Z" fill="black"/>
<path d="M11.8635 24.5145H5.37394C5.18056 24.5145 4.99509 24.4377 4.85834 24.3009C4.7216 24.1642 4.64478 23.9787 4.64478 23.7853V21.1895C4.64478 20.5281 4.90751 19.8938 5.37518 19.4261C5.84285 18.9585 6.47714 18.6957 7.13853 18.6957H10.0989C10.7603 18.6957 11.3946 18.9585 11.8623 19.4261C12.33 19.8938 12.5927 20.5281 12.5927 21.1895V23.7853C12.5927 23.9787 12.5159 24.1642 12.3791 24.3009C12.2424 24.4377 12.0569 24.5145 11.8635 24.5145ZM6.10311 23.0561H11.1344V21.1895C11.1324 20.9155 11.0227 20.6532 10.829 20.4594C10.6352 20.2657 10.373 20.156 10.0989 20.1541H7.13853C6.86392 20.1541 6.60055 20.2631 6.40638 20.4573C6.2122 20.6515 6.10311 20.9149 6.10311 21.1895V23.0561ZM8.61873 18.3093C8.1454 18.3107 7.68228 18.1717 7.28801 17.9097C6.89375 17.6478 6.58607 17.2748 6.40393 16.8379C6.22179 16.401 6.17339 15.9199 6.26484 15.4555C6.3563 14.9911 6.58351 14.5642 6.9177 14.229C7.25189 13.8938 7.67803 13.6653 8.14216 13.5724C8.6063 13.4796 9.08756 13.5265 9.525 13.7073C9.96245 13.8881 10.3364 14.1946 10.5995 14.5881C10.8627 14.9816 11.0031 15.4443 11.0031 15.9176C11.0031 16.5506 10.7521 17.1579 10.3052 17.6062C9.85824 18.0545 9.25178 18.3073 8.61873 18.3093ZM8.61873 14.9916C8.43352 14.9901 8.25207 15.0438 8.09748 15.1458C7.94288 15.2478 7.82212 15.3935 7.75058 15.5643C7.67904 15.7352 7.65994 15.9234 7.69572 16.1052C7.7315 16.2869 7.82054 16.4539 7.9515 16.5848C8.08247 16.7158 8.24944 16.8048 8.43117 16.8406C8.61289 16.8764 8.80116 16.8573 8.97199 16.7858C9.14283 16.7142 9.28852 16.5935 9.39052 16.4389C9.49252 16.2843 9.54622 16.1028 9.54478 15.9176C9.54478 15.672 9.44721 15.4365 9.27354 15.2628C9.09988 15.0891 8.86434 14.9916 8.61873 14.9916ZM29.3344 16.7707H16.1364C15.9431 16.7707 15.7576 16.6939 15.6208 16.5572C15.4841 16.4204 15.4073 16.2349 15.4073 16.0416C15.4073 15.8482 15.4841 15.6627 15.6208 15.526C15.7576 15.3892 15.9431 15.3124 16.1364 15.3124H29.3344C29.5277 15.3124 29.7132 15.3892 29.85 15.526C29.9867 15.6627 30.0635 15.8482 30.0635 16.0416C30.0635 16.2349 29.9867 16.4204 29.85 16.5572C29.7132 16.6939 29.5277 16.7707 29.3344 16.7707ZM19.0385 11.6666H15.9614C15.7681 11.6666 15.5826 11.5897 15.4458 11.453C15.3091 11.3162 15.2323 11.1308 15.2323 10.9374V7.76551C15.2824 7.21083 15.548 6.69789 15.9719 6.33667C16.3958 5.97545 16.9444 5.79472 17.5 5.83322C18.0556 5.79472 18.6042 5.97545 19.0281 6.33667C19.452 6.69789 19.7175 7.21083 19.7677 7.76551V10.9374C19.7677 11.1308 19.6909 11.3162 19.5541 11.453C19.4174 11.5897 19.2319 11.6666 19.0385 11.6666ZM16.6906 10.2082H18.3094V7.76551C18.3094 7.54676 17.9521 7.29156 17.5 7.29156C17.0479 7.29156 16.6906 7.54676 16.6906 7.76551V10.2082ZM29.3344 20.0301H16.1364C15.9431 20.0301 15.7576 19.9533 15.6208 19.8165C15.4841 19.6798 15.4073 19.4943 15.4073 19.3009C15.4073 19.1075 15.4841 18.9221 15.6208 18.7853C15.7576 18.6486 15.9431 18.5718 16.1364 18.5718H29.3344C29.5277 18.5718 29.7132 18.6486 29.85 18.7853C29.9867 18.9221 30.0635 19.1075 30.0635 19.3009C30.0635 19.4943 29.9867 19.6798 29.85 19.8165C29.7132 19.9533 29.5277 20.0301 29.3344 20.0301ZM29.3344 23.3332H16.1364C15.9431 23.3332 15.7576 23.2564 15.6208 23.1197C15.4841 22.9829 15.4073 22.7974 15.4073 22.6041C15.4073 22.4107 15.4841 22.2252 15.6208 22.0885C15.7576 21.9517 15.9431 21.8749 16.1364 21.8749H29.3344C29.5277 21.8749 29.7132 21.9517 29.85 22.0885C29.9867 22.2252 30.0635 22.4107 30.0635 22.6041C30.0635 22.7974 29.9867 22.9829 29.85 23.1197C29.7132 23.2564 29.5277 23.3332 29.3344 23.3332Z" fill="black"/>
</svg>
