<svg width="35" height="30" viewBox="0 0 35 30" fill="none" xmlns="http://www.w3.org/2000/svg">
<g clipPath="url(#clip0_71_766)">
<path d="M3.64581 7.5H6.56248V8.75H3.64581V7.5ZM3.64581 3.75H6.56248V5H3.64581V3.75ZM3.64581 11.25H6.56248V12.5H3.64581V11.25ZM3.64581 15H6.56248V16.25H3.64581V15ZM3.64581 18.75H6.56248V20H3.64581V18.75ZM3.64581 22.5H6.56248V23.75H3.64581V22.5Z" fill="#201602"/>
<path d="M2.91669 0H4.37502V30H2.91669V0Z" fill="#201602"/>
<path d="M0 26.25H35V27.5H0V26.25Z" fill="#201602"/>
<path d="M31.3542 20H32.8125V26.875H31.3542V20ZM31.3542 0H32.8125V18.75H31.3542V0ZM26.9792 6.875H28.4375V26.875H26.9792V6.875ZM22.6042 16.875H24.0625V26.875H22.6042V16.875ZM22.6042 3.75H24.0625V15.625H22.6042V3.75ZM18.2292 13.125H19.6875V26.875H18.2292V13.125ZM13.8542 21.25H15.3125V26.875H13.8542V21.25ZM13.8542 8.75H15.3125V20H13.8542V8.75ZM9.47919 16.25H10.9375V26.875H9.47919V16.25Z" fill="#201602"/>
</g>
<defs>
<clipPath id="clip0_71_766">
<rect width="35" height="30" fill="white"/>
</clipPath>
</defs>
</svg>
