<svg width="35" height="35" viewBox="0 0 35 35" fill="none" xmlns="http://www.w3.org/2000/svg">
<path d="M30.7052 31.8138H4.29481C3.46257 31.8138 2.66431 31.4837 2.07515 30.8959C1.48599 30.3081 1.15403 29.5106 1.1521 28.6784V15.9909C1.1521 15.7975 1.22892 15.612 1.36567 15.4753C1.50241 15.3385 1.68788 15.2617 1.88127 15.2617C2.07465 15.2617 2.26012 15.3385 2.39687 15.4753C2.53361 15.612 2.61043 15.7975 2.61043 15.9909V28.6784C2.61236 29.1238 2.79067 29.5504 3.10635 29.8647C3.42202 30.179 3.84934 30.3555 4.29481 30.3555H30.7052C31.1507 30.3555 31.578 30.179 31.8937 29.8647C32.2094 29.5504 32.3877 29.1238 32.3896 28.6784V15.9909C32.3896 15.7975 32.4664 15.612 32.6032 15.4753C32.7399 15.3385 32.9254 15.2617 33.1188 15.2617C33.3122 15.2617 33.4976 15.3385 33.6344 15.4753C33.7711 15.612 33.8479 15.7975 33.8479 15.9909V28.6784C33.846 29.5106 33.514 30.3081 32.9249 30.8959C32.3357 31.4837 31.5375 31.8138 30.7052 31.8138Z" fill="black"/>
<path d="M17.5 22.3199C17.4155 22.3198 17.3316 22.305 17.2521 22.2761L1.61875 16.6688C1.51669 16.647 1.4205 16.6036 1.33668 16.5414C1.25286 16.4792 1.18336 16.3998 1.13287 16.3085C1.08239 16.2171 1.05209 16.116 1.04404 16.012C1.03599 15.9079 1.05037 15.8034 1.0862 15.7054C1.12203 15.6073 1.17849 15.5182 1.25175 15.4438C1.32501 15.3695 1.41337 15.3118 1.51086 15.2746C1.60835 15.2373 1.7127 15.2214 1.81685 15.228C1.921 15.2346 2.02254 15.2634 2.11459 15.3126L17.7479 20.9199C17.9001 20.9841 18.0259 21.0982 18.1048 21.2433C18.1837 21.3884 18.211 21.5561 18.1822 21.7187C18.1534 21.8814 18.0702 22.0294 17.9463 22.1386C17.8223 22.2479 17.665 22.3118 17.5 22.3199Z" fill="black"/>
<path d="M17.5 22.3201C17.3286 22.3199 17.1627 22.2593 17.0315 22.149C16.9004 22.0387 16.8122 21.8857 16.7826 21.7168C16.7531 21.548 16.7839 21.3741 16.8697 21.2258C16.9556 21.0774 17.091 20.964 17.2521 20.9055L32.8854 15.3128C32.9761 15.2771 33.0731 15.2599 33.1705 15.2623C33.268 15.2647 33.364 15.2866 33.4529 15.3267C33.5417 15.3668 33.6216 15.4244 33.6878 15.4959C33.7541 15.5674 33.8053 15.6515 33.8384 15.7432C33.8716 15.8349 33.886 15.9323 33.8809 16.0297C33.8758 16.127 33.8511 16.2223 33.8085 16.31C33.7659 16.3977 33.7061 16.4759 33.6327 16.5401C33.5594 16.6043 33.4738 16.6531 33.3813 16.6837L17.7479 22.2764C17.6684 22.3052 17.5846 22.32 17.5 22.3201ZM1.86668 16.7128C1.71792 16.7052 1.57509 16.6522 1.45737 16.5609C1.33966 16.4696 1.25272 16.3445 1.20825 16.2023C1.16378 16.0602 1.1639 15.9078 1.20862 15.7657C1.25333 15.6237 1.34048 15.4987 1.45834 15.4076L7.1823 10.9378C7.25719 10.8723 7.34471 10.8227 7.43947 10.7922C7.53424 10.7618 7.63424 10.751 7.73331 10.7607C7.83238 10.7703 7.92843 10.8001 8.01554 10.8483C8.10265 10.8965 8.17897 10.962 8.23981 11.0408C8.30064 11.1196 8.3447 11.21 8.36927 11.3064C8.39384 11.4029 8.3984 11.5034 8.38267 11.6016C8.36694 11.6999 8.33125 11.794 8.2778 11.8779C8.22435 11.9619 8.15427 12.0341 8.07188 12.0899L2.31147 16.5378C2.18708 16.6445 2.03039 16.7061 1.86668 16.7128ZM13.8542 7.48158C13.7024 7.48111 13.5545 7.43327 13.4311 7.34472C13.3078 7.25617 13.2152 7.13133 13.1662 6.98762C13.1173 6.84392 13.1144 6.68851 13.158 6.54308C13.2016 6.39765 13.2894 6.26946 13.4094 6.17638L17.0552 3.33263C17.209 3.21466 17.4033 3.1626 17.5954 3.1879C17.7875 3.21319 17.9617 3.31378 18.0797 3.46752C18.1977 3.62126 18.2497 3.81557 18.2244 4.0077C18.1991 4.19983 18.0985 4.37403 17.9448 4.492L14.299 7.32846C14.1717 7.42724 14.0153 7.48108 13.8542 7.48158Z" fill="black"/>
<path d="M33.1334 16.7128C32.9722 16.7123 32.8158 16.6585 32.6886 16.5597L26.9281 12.1118C26.8511 12.0534 26.7862 11.9804 26.7374 11.8969C26.6885 11.8134 26.6566 11.7212 26.6434 11.6254C26.6302 11.5295 26.636 11.4321 26.6604 11.3385C26.6849 11.2449 26.7275 11.1571 26.786 11.08C26.8444 11.0029 26.9174 10.9381 27.0009 10.8893C27.0843 10.8404 27.1766 10.8084 27.2724 10.7952C27.3682 10.782 27.4657 10.7878 27.5592 10.8123C27.6528 10.8368 27.7406 10.8794 27.8177 10.9378L33.5781 15.3858C33.6981 15.4788 33.786 15.607 33.8296 15.7525C33.8731 15.8979 33.8703 16.0533 33.8213 16.197C33.7723 16.3407 33.6797 16.4655 33.5564 16.5541C33.4331 16.6426 33.2852 16.6905 33.1334 16.691V16.7128ZM21.1459 7.48158C20.9847 7.48108 20.8283 7.42724 20.7011 7.32846L17.0552 4.492C16.9791 4.43359 16.9152 4.36076 16.8672 4.27766C16.8193 4.19456 16.7881 4.10283 16.7756 4.0077C16.7503 3.81557 16.8024 3.62126 16.9203 3.46752C17.0383 3.31378 17.2125 3.21319 17.4046 3.1879C17.5968 3.1626 17.7911 3.21466 17.9448 3.33263L21.5906 6.17638C21.7106 6.26946 21.7985 6.39765 21.8421 6.54308C21.8856 6.68851 21.8828 6.84392 21.8338 6.98762C21.7848 7.13133 21.6922 7.25617 21.5689 7.34472C21.4456 7.43327 21.2977 7.48111 21.1459 7.48158Z" fill="black"/>
<path d="M27.3729 18.7829C27.1795 18.7829 26.994 18.7061 26.8573 18.5693C26.7205 18.4326 26.6437 18.2471 26.6437 18.0537V7.48079H8.35622V18.0537C8.35622 18.2471 8.2794 18.4326 8.14265 18.5693C8.00591 18.7061 7.82044 18.7829 7.62705 18.7829C7.43367 18.7829 7.2482 18.7061 7.11146 18.5693C6.97471 18.4326 6.89789 18.2471 6.89789 18.0537V6.02246H28.1021V18.0537C28.1021 18.2471 28.0252 18.4326 27.8885 18.5693C27.7517 18.7061 27.5663 18.7829 27.3729 18.7829Z" fill="black"/>
<path d="M12.5709 14.0215C10.9594 14.0215 9.69794 13.059 9.69794 11.834C9.69794 10.609 10.9594 9.64648 12.5709 9.64648C14.0292 9.64648 15.2542 10.4632 15.4219 11.5788C15.4519 11.7722 15.4038 11.9695 15.2882 12.1275C15.1727 12.2854 14.9991 12.391 14.8057 12.421C14.6124 12.4509 14.415 12.4029 14.257 12.2873C14.0991 12.1718 13.9935 11.9982 13.9636 11.8048C13.9125 11.4694 13.3146 11.0757 12.549 11.0757C11.7834 11.0757 11.1344 11.4694 11.1344 11.8048C11.1344 12.1402 11.6886 12.534 12.549 12.534C12.7424 12.534 12.9278 12.6108 13.0646 12.7476C13.2013 12.8843 13.2781 13.0698 13.2781 13.2632C13.2781 13.4565 13.2013 13.642 13.0646 13.7787C12.9278 13.9155 12.7424 13.9923 12.549 13.9923L12.5709 14.0215Z" fill="black"/>
<path d="M12.5708 16.9531C11.1125 16.9531 9.8802 16.1365 9.71979 15.0135C9.69175 14.8202 9.74168 14.6235 9.85859 14.467C9.97551 14.3104 10.1498 14.2067 10.3432 14.1786C10.5366 14.1506 10.7332 14.2005 10.8898 14.3175C11.0464 14.4344 11.1501 14.6087 11.1781 14.8021C11.1781 15.0865 11.7396 15.4948 12.5854 15.4948C13.4312 15.4948 14 15.0573 14 14.7656C14 14.474 13.4458 14.0365 12.5854 14.0365C12.392 14.0365 12.2066 13.9596 12.0698 13.8229C11.9331 13.6861 11.8562 13.5007 11.8562 13.3073C11.8562 13.1139 11.9331 12.9284 12.0698 12.7917C12.2066 12.6549 12.392 12.5781 12.5854 12.5781C14.1969 12.5781 15.4583 13.5406 15.4583 14.7656C15.4583 15.9906 14.1823 16.9531 12.5708 16.9531Z" fill="black"/>
<path d="M12.5708 18.5715C12.3775 18.5715 12.192 18.4947 12.0552 18.358C11.9185 18.2212 11.8417 18.0358 11.8417 17.8424V8.74967C11.8417 8.55629 11.9185 8.37082 12.0552 8.23408C12.192 8.09733 12.3775 8.02051 12.5708 8.02051C12.7642 8.02051 12.9497 8.09733 13.0864 8.23408C13.2232 8.37082 13.3 8.55629 13.3 8.74967V17.8424C13.3 18.0358 13.2232 18.2212 13.0864 18.358C12.9497 18.4947 12.7642 18.5715 12.5708 18.5715ZM25.3167 10.7913H18.1781C17.9847 10.7913 17.7993 10.7145 17.6625 10.5778C17.5258 10.441 17.449 10.2556 17.449 10.0622C17.449 9.86879 17.5258 9.68332 17.6625 9.54658C17.7993 9.40983 17.9847 9.33301 18.1781 9.33301H25.3167C25.5101 9.33301 25.6955 9.40983 25.8323 9.54658C25.969 9.68332 26.0458 9.86879 26.0458 10.0622C26.0458 10.2556 25.969 10.441 25.8323 10.5778C25.6955 10.7145 25.5101 10.7913 25.3167 10.7913ZM25.3167 13.8538H18.1781C17.9847 13.8538 17.7993 13.777 17.6625 13.6403C17.5258 13.5035 17.449 13.3181 17.449 13.1247C17.449 12.9313 17.5258 12.7458 17.6625 12.6091C17.7993 12.4723 17.9847 12.3955 18.1781 12.3955H25.3167C25.5101 12.3955 25.6955 12.4723 25.8323 12.6091C25.969 12.7458 26.0458 12.9313 26.0458 13.1247C26.0458 13.3181 25.969 13.5035 25.8323 13.6403C25.6955 13.777 25.5101 13.8538 25.3167 13.8538ZM25.3167 16.9601H18.1781C17.9847 16.9601 17.7993 16.8833 17.6625 16.7465C17.5258 16.6098 17.449 16.4243 17.449 16.2309C17.449 16.0375 17.5258 15.8521 17.6625 15.7153C17.7993 15.5786 17.9847 15.5018 18.1781 15.5018H25.3167C25.5101 15.5018 25.6955 15.5786 25.8323 15.7153C25.969 15.8521 26.0458 16.0375 26.0458 16.2309C26.0458 16.4243 25.969 16.6098 25.8323 16.7465C25.6955 16.8833 25.5101 16.9601 25.3167 16.9601Z" fill="black"/>
</svg>
