<svg width="35" height="35" viewBox="0 0 35 35" fill="none" xmlns="http://www.w3.org/2000/svg">
<path d="M12.9352 7.51286C12.987 7.51278 13.0385 7.50428 13.0876 7.4877C14.1365 7.13564 15.2295 6.93196 16.3349 6.88259C16.4618 6.87686 16.5812 6.82095 16.6669 6.72716C16.7526 6.63337 16.7975 6.50938 16.7918 6.38247C16.7861 6.25556 16.7302 6.13612 16.6364 6.05043C16.5426 5.96475 16.4186 5.91982 16.2917 5.92555C15.0973 5.9789 13.9162 6.19896 12.7827 6.57934C12.6752 6.61564 12.584 6.68895 12.5255 6.7862C12.467 6.88344 12.445 6.9983 12.4633 7.1103C12.4816 7.22229 12.5392 7.32413 12.6256 7.39766C12.712 7.47119 12.8218 7.51163 12.9352 7.51176V7.51286ZM7.33033 11.376C7.40093 11.3761 7.47068 11.3606 7.53456 11.3305C7.59844 11.3004 7.65486 11.2566 7.69974 11.2021C8.40358 10.348 9.22259 9.59579 10.1333 8.967C10.1851 8.93131 10.2292 8.88577 10.2634 8.833C10.2975 8.78023 10.3209 8.72126 10.3322 8.65944C10.3436 8.59763 10.3426 8.53419 10.3295 8.47274C10.3163 8.41129 10.2911 8.35304 10.2554 8.30132C10.2197 8.24959 10.1742 8.2054 10.1214 8.17127C10.0687 8.13714 10.0097 8.11374 9.94787 8.1024C9.88605 8.09107 9.82261 8.09202 9.76116 8.1052C9.69972 8.11838 9.64147 8.14353 9.58974 8.17923C8.60585 8.85837 7.72095 9.67075 6.96037 10.5931C6.90255 10.6631 6.86585 10.7481 6.85454 10.8381C6.84323 10.9282 6.85777 11.0196 6.89649 11.1017C6.9352 11.1838 6.99647 11.2532 7.07315 11.3018C7.14983 11.3503 7.23874 11.3761 7.32951 11.376H7.33033ZM10.2878 28.6613C9.36695 28.0469 8.53595 27.3075 7.81869 26.4643C7.73641 26.3676 7.61911 26.3076 7.49257 26.2974C7.36604 26.2872 7.24065 26.3277 7.14398 26.41C7.04731 26.4923 6.98728 26.6096 6.9771 26.7361C6.96693 26.8626 7.00743 26.988 7.0897 27.0847C7.86451 27.9952 8.76203 28.7937 9.75654 29.4573C9.80879 29.4928 9.86755 29.5176 9.92944 29.5303C9.99132 29.543 10.0551 29.5433 10.1171 29.5312C10.1791 29.5191 10.2381 29.4948 10.2907 29.4598C10.3433 29.4248 10.3884 29.3797 10.4235 29.3272C10.4585 29.2746 10.4829 29.2157 10.495 29.1537C10.5072 29.0917 10.507 29.0279 10.4943 28.966C10.4817 28.9041 10.457 28.8453 10.4215 28.793C10.3861 28.7407 10.3407 28.696 10.2878 28.6613ZM5.1133 20.5074C5.10417 20.4453 5.0829 20.3855 5.05068 20.3315C5.01846 20.2776 4.97593 20.2305 4.92551 20.193C4.8751 20.1555 4.81779 20.1283 4.75686 20.1129C4.69592 20.0975 4.63256 20.0943 4.57039 20.1034C4.50821 20.1125 4.44844 20.1338 4.39449 20.166C4.34054 20.1983 4.29346 20.2408 4.25594 20.2912C4.21843 20.3416 4.19121 20.3989 4.17584 20.4599C4.16048 20.5208 4.15726 20.5842 4.16638 20.6463C4.34019 21.8298 4.67957 22.983 5.17455 24.072C5.19963 24.1306 5.23618 24.1836 5.28203 24.2278C5.32788 24.2721 5.38212 24.3068 5.44155 24.3298C5.50099 24.3529 5.56443 24.3638 5.62815 24.362C5.69187 24.3601 5.75458 24.3456 5.8126 24.3192C5.87062 24.2928 5.92278 24.2551 5.96602 24.2082C6.00926 24.1614 6.04271 24.1064 6.0644 24.0465C6.08609 23.9865 6.09559 23.9229 6.09233 23.8592C6.08908 23.7955 6.07314 23.7332 6.04544 23.6757C5.58787 22.6685 5.27409 21.602 5.1133 20.5074ZM16.5217 30.6484C15.4155 30.6164 14.3193 30.43 13.2647 30.0947C13.2045 30.0742 13.1408 30.066 13.0774 30.0704C13.0139 30.0748 12.952 30.0919 12.8952 30.1205C12.8384 30.1491 12.7879 30.1888 12.7466 30.2372C12.7053 30.2856 12.6741 30.3418 12.6548 30.4024C12.6355 30.463 12.6284 30.5268 12.6341 30.5902C12.6397 30.6535 12.6579 30.7151 12.6877 30.7714C12.7174 30.8276 12.758 30.8774 12.8072 30.9177C12.8564 30.958 12.9131 30.9882 12.9741 31.0063C14.1135 31.3689 15.298 31.5704 16.4932 31.6049H16.5077C16.5705 31.6058 16.633 31.5943 16.6914 31.5711C16.7498 31.5479 16.803 31.5135 16.8481 31.4697C16.8932 31.4259 16.9292 31.3736 16.9541 31.3159C16.979 31.2582 16.9923 31.1962 16.9932 31.1333C16.9941 31.0705 16.9826 31.0081 16.9594 30.9497C16.9362 30.8913 16.9018 30.838 16.858 30.7929C16.8142 30.7479 16.762 30.7118 16.7042 30.687C16.6465 30.6621 16.5845 30.6488 16.5217 30.6479V30.6484ZM4.5522 17.6142C4.57306 17.6169 4.59406 17.6183 4.61509 17.6183C4.73113 17.6181 4.84315 17.5757 4.93031 17.4991C5.01747 17.4225 5.07385 17.3169 5.08896 17.2018C5.2325 16.1046 5.52953 15.033 5.97134 14.0185C5.99648 13.9609 6.01002 13.8989 6.01119 13.836C6.01237 13.7732 6.00115 13.7107 5.97819 13.6522C5.95522 13.5937 5.92095 13.5403 5.87734 13.495C5.83373 13.4497 5.78163 13.4135 5.72402 13.3883C5.6664 13.3632 5.6044 13.3497 5.54155 13.3485C5.47871 13.3473 5.41624 13.3585 5.35773 13.3815C5.29921 13.4045 5.2458 13.4387 5.20053 13.4823C5.15526 13.526 5.11902 13.5781 5.09388 13.6357C4.61618 14.7324 4.29512 15.891 4.14013 17.0772C4.13187 17.1395 4.13598 17.2028 4.15223 17.2636C4.16847 17.3243 4.19654 17.3812 4.23481 17.4311C4.27308 17.481 4.32082 17.5228 4.37528 17.5543C4.42974 17.5857 4.48986 17.606 4.5522 17.6142ZM22.8638 29.0403C21.9082 29.5981 20.879 30.019 19.8065 30.2907C19.7443 30.305 19.6856 30.3315 19.6339 30.3687C19.5821 30.406 19.5383 30.4532 19.505 30.5076C19.4718 30.5619 19.4497 30.6224 19.4401 30.6855C19.4306 30.7485 19.4337 30.8129 19.4494 30.8747C19.465 30.9365 19.4929 30.9945 19.5313 31.0454C19.5697 31.0963 19.6179 31.139 19.673 31.1711C19.7282 31.2031 19.7892 31.2237 19.8524 31.2318C19.9157 31.2399 19.9799 31.2353 20.0413 31.2182C21.2008 30.9248 22.3133 30.4698 23.3461 29.8666C23.4018 29.8357 23.4508 29.794 23.4902 29.7439C23.5295 29.6938 23.5585 29.6364 23.5754 29.5749C23.5923 29.5135 23.5967 29.4493 23.5884 29.3861C23.5801 29.3229 23.5593 29.262 23.5272 29.207C23.4951 29.152 23.4523 29.1039 23.4014 29.0656C23.3504 29.0274 23.2923 28.9997 23.2305 28.9841C23.1687 28.9686 23.1045 28.9656 23.0415 28.9752C22.9785 28.9849 22.9181 29.007 22.8638 29.0403ZM29.1845 17.4015C29.0579 17.4104 28.9401 17.4693 28.8569 17.5651C28.7736 17.6609 28.7319 17.7859 28.7408 17.9125C28.7607 18.1931 28.7708 18.4788 28.7708 18.7621C28.771 19.5846 28.6865 20.4049 28.5187 21.2102C28.5058 21.2717 28.5052 21.3351 28.5168 21.3968C28.5284 21.4586 28.5521 21.5174 28.5865 21.57C28.6209 21.6226 28.6653 21.6679 28.7172 21.7033C28.7691 21.7388 28.8275 21.7636 28.889 21.7765C28.9214 21.7834 28.9545 21.7869 28.9877 21.7868C29.0975 21.7866 29.2038 21.7487 29.289 21.6794C29.3742 21.6101 29.433 21.5137 29.4555 21.4062C29.6372 20.5366 29.7289 19.6505 29.729 18.7621C29.729 18.4564 29.718 18.1479 29.697 17.8452C29.6926 17.7824 29.6759 17.721 29.6478 17.6647C29.6197 17.6083 29.5807 17.558 29.533 17.5168C29.4854 17.4755 29.4301 17.4441 29.3703 17.4243C29.3105 17.4045 29.2474 17.3968 29.1845 17.4015ZM28.0429 24.1182C27.9307 24.0588 27.7996 24.0464 27.6783 24.0838C27.5569 24.1211 27.4554 24.2051 27.396 24.3172C26.8781 25.2955 26.2263 26.1967 25.4595 26.995C25.416 27.0404 25.3818 27.0938 25.359 27.1524C25.3361 27.211 25.325 27.2734 25.3263 27.3363C25.3289 27.4632 25.3819 27.5839 25.4735 27.6718C25.565 27.7597 25.6878 27.8076 25.8147 27.805C25.9416 27.8023 26.0623 27.7494 26.1502 27.6578C26.9784 26.7952 27.6824 25.8216 28.242 24.7648C28.3013 24.6527 28.3137 24.5216 28.2764 24.4003C28.239 24.279 28.1551 24.1775 28.0429 24.1182ZM30.9665 5.54083C30.9643 5.44085 30.9309 5.34406 30.871 5.26403C30.811 5.184 30.7275 5.12475 30.6321 5.09458C28.4676 4.41098 26.8436 3.75473 26.0682 3.42661C26.0091 3.40157 25.9455 3.38867 25.8813 3.38867C25.8171 3.38867 25.7535 3.40157 25.6944 3.42661C24.9189 3.75473 23.2947 4.41098 21.1302 5.09458C21.0349 5.12476 20.9514 5.18402 20.8915 5.26406C20.8315 5.34409 20.7982 5.44087 20.796 5.54083C20.7899 5.87049 20.795 6.20027 20.8113 6.52958C20.5066 6.43076 20.1983 6.34329 19.8871 6.26735C19.825 6.24949 19.7599 6.2444 19.6958 6.25239C19.6317 6.26037 19.5698 6.28126 19.514 6.3138C19.4581 6.34634 19.4095 6.38986 19.3709 6.44172C19.3323 6.49358 19.3047 6.55272 19.2896 6.61556C19.2745 6.67841 19.2723 6.74366 19.2831 6.80737C19.294 6.87109 19.3176 6.93195 19.3526 6.98629C19.3876 7.04063 19.4332 7.08731 19.4867 7.12354C19.5402 7.15976 19.6005 7.18476 19.664 7.19704C20.0824 7.29992 20.4948 7.42571 20.8994 7.57384C20.9634 8.10519 21.0609 8.63197 21.1914 9.15102C21.3057 9.60036 21.4493 10.0417 21.6213 10.4723C19.6567 9.3482 17.3568 8.95817 15.1315 9.37169H15.1274C12.9118 9.78329 10.9142 10.9678 9.49021 12.7145C9.48551 12.7197 9.48095 12.7251 9.47654 12.7306C8.33485 14.1304 7.61373 15.8254 7.39692 17.6187C7.18011 19.412 7.47652 21.23 8.25171 22.8615C9.0269 24.4931 10.2491 25.8712 11.7762 26.8359C13.3034 27.8006 15.073 28.3122 16.8793 28.3113C19.4112 28.3089 21.8387 27.3022 23.6293 25.5121C25.4199 23.722 26.4273 21.2948 26.4305 18.7629C26.43 18.1545 26.3722 17.5475 26.2577 16.95C26.2577 16.9434 26.2547 16.9369 26.2536 16.9303C26.0919 16.0954 25.8186 15.2861 25.4412 14.5241C25.5303 14.5624 25.6186 14.6015 25.71 14.6367C25.8204 14.679 25.9425 14.679 26.0529 14.6367C26.6272 14.4183 27.1705 14.1254 27.6686 13.7656C27.8091 14.0646 27.9368 14.3695 28.0514 14.6794C28.0851 14.7714 28.1463 14.8509 28.2266 14.9071C28.307 14.9633 28.4026 14.9935 28.5007 14.9936C28.5776 14.9935 28.6534 14.9748 28.7217 14.9392C28.7899 14.9036 28.8485 14.8521 28.8926 14.789C28.9367 14.726 28.965 14.6532 28.975 14.5769C28.985 14.5006 28.9765 14.423 28.9502 14.3507C28.7951 13.9336 28.6184 13.5248 28.4211 13.126C29.4912 12.0251 30.2351 10.6492 30.5703 9.15102C30.8609 7.97034 30.9941 6.75643 30.9665 5.54083ZM8.28517 18.7629C8.2864 17.3147 8.6532 15.8903 9.35158 14.6217C9.41125 15.2845 9.59686 15.9299 9.89845 16.5232C10.6469 17.9582 11.5344 18.332 12.3173 18.662C12.9297 18.8618 13.4704 19.2361 13.8731 19.7388C14.9519 21.1363 14.0429 22.8314 12.8341 23.9514C12.2186 24.5199 11.9982 25.2062 12.2134 25.8832C12.2262 25.9231 12.244 25.962 12.2596 26.0013C11.0423 25.2259 10.0401 24.1562 9.34549 22.891C8.65085 21.6259 8.28619 20.2062 8.28517 18.7629ZM16.9094 27.3535C14.4252 27.0221 13.3164 26.1993 13.125 25.5934C13.0258 25.2814 13.1461 24.9645 13.4835 24.6541C14.9327 23.311 16.1047 21.0647 14.6319 19.1547C14.129 18.521 13.4554 18.0442 12.6905 17.7804C11.9645 17.4745 11.3376 17.2103 10.7491 16.081C10.327 15.1938 10.1748 14.2021 10.3116 13.2291C11.4462 11.8769 12.9709 10.9083 14.677 10.4559C14.6743 11.4402 15.0517 12.7459 16.5091 13.2996C17.6753 13.7407 18.71 13.5381 19.5415 13.3754C20.5519 13.1779 21.1053 13.1019 21.6617 13.6939C22.0535 14.1347 22.395 14.6176 22.68 15.1338C23.2507 16.0884 23.8399 17.0728 25.3687 17.4433C25.5601 18.6661 25.4848 19.9157 25.1479 21.1067C24.8111 22.2976 24.2206 23.4016 23.4171 24.3429C22.6136 25.2843 21.616 26.0407 20.4927 26.5603C19.3694 27.08 18.147 27.3506 16.9094 27.3535ZM25.133 16.3613C24.336 16.0296 23.9693 15.4215 23.5028 14.6419C23.1828 14.0663 22.7996 13.5281 22.3604 13.0374C21.4162 12.0328 20.3708 12.2379 19.3591 12.4358C18.573 12.5898 17.7598 12.7489 16.8492 12.4041C15.6735 11.9592 15.6035 10.8152 15.6439 10.2587C16.9352 10.0708 18.2523 10.1797 19.4952 10.5772C20.7381 10.9746 21.874 11.6501 22.8167 12.5523C23.0231 12.807 23.2475 13.0464 23.4883 13.2687C24.2447 14.1751 24.8048 15.2287 25.133 16.3627V16.3613ZM29.6426 8.91368C29.041 11.2838 27.7752 12.8843 25.8811 13.6737C25.2427 13.4097 24.656 13.0347 24.1484 12.566C23.9584 12.3436 23.7588 12.1303 23.5495 11.9261C22.8621 11.0365 22.3749 10.009 22.1211 8.91368C21.8795 7.92716 21.7555 6.91551 21.7517 5.89985C23.6319 5.29282 25.0802 4.72024 25.8822 4.38501C26.6845 4.72024 28.1329 5.29282 30.0131 5.89985C30.0089 6.91556 29.8845 7.9272 29.6426 8.91368Z" fill="black"/>
<path d="M24.5112 8.34173C24.4681 8.29371 24.4157 8.25492 24.3572 8.22769C24.2987 8.20045 24.2352 8.18534 24.1707 8.18325C24.1062 8.18117 24.042 8.19215 23.9818 8.21555C23.9216 8.23895 23.8668 8.27428 23.8207 8.31941C23.7746 8.36454 23.738 8.41854 23.7133 8.47816C23.6885 8.53778 23.6761 8.60179 23.6768 8.66633C23.6774 8.73087 23.6911 8.79462 23.7171 8.85373C23.743 8.91284 23.7806 8.96609 23.8276 9.01028L24.9649 10.1773C25.0094 10.223 25.0626 10.2592 25.1213 10.284C25.1801 10.3088 25.2432 10.3216 25.3069 10.3217C25.3706 10.3216 25.4336 10.3089 25.4923 10.2842C25.551 10.2595 25.6042 10.2234 25.6487 10.1779L27.9344 7.8438C27.9784 7.79891 28.0131 7.7458 28.0366 7.6875C28.06 7.6292 28.0718 7.56685 28.0711 7.504C28.0705 7.44116 28.0575 7.37906 28.0329 7.32124C28.0082 7.26343 27.9725 7.21103 27.9276 7.16704C27.8827 7.12305 27.8296 7.08834 27.7713 7.06487C27.713 7.04141 27.6506 7.02966 27.5878 7.0303C27.5249 7.03093 27.4628 7.04394 27.405 7.06857C27.3472 7.09321 27.2948 7.12899 27.2508 7.17388L25.3075 9.15849L24.5112 8.34173Z" fill="black"/>
</svg>
